{"glyphs":{"0":{"ha":833,"x_min":83,"x_max":775,"o":"m 408 -11 q 166 98 249 -11 q 83 417 83 207 q 126 726 83 597 q 251 923 169 856 q 449 990 333 990 q 692 881 608 990 q 775 563 775 772 q 678 140 775 290 q 408 -11 582 -11 m 413 85 q 597 210 533 85 q 660 581 660 336 q 608 817 660 740 q 447 894 556 894 q 262 769 325 894 q 199 399 199 643 q 251 162 199 239 q 413 85 304 85 z "},"1":{"ha":833,"x_min":154,"x_max":707,"o":"m 707 96 l 699 0 l 154 0 l 163 96 l 376 96 l 436 836 l 257 729 l 207 815 l 478 979 l 560 979 l 490 96 l 707 96 z "},"2":{"ha":833,"x_min":92,"x_max":740,"o":"m 249 96 l 729 96 l 722 0 l 92 0 l 97 86 l 472 463 q 591 609 556 546 q 626 740 626 672 q 581 853 626 811 q 457 894 535 894 q 311 867 381 894 q 169 782 242 840 l 135 869 q 283 958 197 926 q 464 990 369 990 q 665 924 590 990 q 740 742 740 857 q 697 576 740 656 q 549 392 653 496 l 249 96 z "},"3":{"ha":833,"x_min":60,"x_max":740,"o":"m 560 500 q 681 422 638 478 q 725 283 725 367 q 684 129 725 196 q 567 26 643 63 q 389 -10 492 -10 q 209 22 293 -10 q 60 111 125 53 l 110 199 q 247 114 178 142 q 392 86 315 86 q 554 137 496 86 q 613 281 613 188 q 399 449 613 449 l 288 449 l 296 544 l 396 544 q 565 598 503 544 q 626 744 626 651 q 580 854 626 814 q 453 894 533 894 q 169 782 307 894 l 135 869 q 283 958 196 926 q 464 990 371 990 q 665 926 589 990 q 740 753 740 861 q 692 598 740 665 q 560 500 644 531 z "},"4":{"ha":833,"x_min":61,"x_max":782,"o":"m 774 213 l 625 213 l 608 0 l 496 0 l 513 213 l 61 213 l 67 299 l 592 979 l 686 979 l 633 307 l 782 307 l 774 213 m 521 307 l 558 785 l 190 307 l 521 307 z "},"5":{"ha":833,"x_min":93,"x_max":775,"o":"m 294 885 l 267 542 q 360 595 307 576 q 471 614 413 614 q 624 578 557 614 q 726 478 690 543 q 763 331 763 414 q 719 152 763 229 q 598 33 676 75 q 418 -10 519 -10 q 242 22 325 -10 q 93 111 158 53 l 143 199 q 419 86 274 86 q 588 150 525 86 q 650 322 650 214 q 595 465 650 411 q 450 519 540 519 q 222 406 304 519 l 143 406 l 188 979 l 775 979 l 767 885 l 294 885 z "},"6":{"ha":832,"x_min":86,"x_max":804,"o":"m 461 614 q 618 577 550 614 q 724 473 686 540 q 761 318 761 406 q 719 149 761 224 q 604 31 678 74 q 439 -11 531 -11 q 178 99 269 -11 q 86 410 86 208 q 136 717 86 586 q 278 919 186 849 q 493 990 369 990 q 660 959 579 990 q 804 869 740 928 l 756 782 q 626 866 693 838 q 496 894 560 894 q 294 790 371 894 q 203 489 218 686 l 200 456 q 306 572 236 529 q 461 614 375 614 m 436 85 q 590 148 531 85 q 649 314 649 211 q 592 463 649 407 q 440 519 535 519 q 283 456 344 519 q 222 292 222 392 q 281 142 222 199 q 436 85 340 85 z "},"7":{"ha":833,"x_min":136,"x_max":790,"o":"m 790 979 l 783 894 l 263 0 l 142 0 l 657 883 l 136 883 l 144 979 l 790 979 z "},"8":{"ha":833,"x_min":58,"x_max":776,"o":"m 599 499 q 721 413 679 472 q 763 265 763 354 q 719 121 763 183 q 594 24 675 58 q 404 -10 514 -10 q 148 58 238 -10 q 58 254 58 126 q 113 411 58 343 q 260 506 167 479 q 155 588 192 533 q 118 718 118 642 q 160 862 118 800 q 278 957 201 924 q 456 990 354 990 q 692 926 608 990 q 776 747 776 861 q 728 594 776 660 q 599 499 681 528 m 456 896 q 288 848 346 896 q 231 711 231 800 q 285 589 231 633 q 442 544 339 544 q 606 594 549 544 q 663 735 663 644 q 610 854 663 813 q 456 896 558 896 m 403 86 q 585 134 521 86 q 650 271 650 182 q 595 406 650 363 q 417 449 540 449 q 234 401 297 449 q 171 257 171 353 q 403 86 171 86 z "},"9":{"ha":833,"x_min":54,"x_max":774,"o":"m 419 990 q 681 881 589 990 q 774 569 774 771 q 724 262 774 393 q 581 60 674 131 q 365 -11 489 -11 q 199 20 279 -11 q 54 110 118 51 l 104 197 q 363 85 232 85 q 565 190 489 85 q 656 492 642 294 l 658 525 q 554 408 622 450 q 399 365 486 365 q 242 403 310 365 q 136 508 174 440 q 99 663 99 575 q 140 831 99 756 q 255 948 182 906 q 419 990 328 990 m 418 460 q 576 524 514 460 q 638 688 638 588 q 578 838 638 781 q 425 894 519 894 q 270 831 329 894 q 211 665 211 768 q 267 516 211 572 q 418 460 324 460 z "},"\u0000":{"ha":0,"x_min":0,"x_max":0,"o":""},"\r":{"ha":358,"x_min":0,"x_max":0,"o":""}," ":{"ha":358,"x_min":0,"x_max":0,"o":""},"A":{"ha":1010,"x_min":-1,"x_max":958,"o":"m 756 251 l 244 251 l 118 0 l -1 0 l 506 979 l 604 979 l 958 0 l 844 0 l 756 251 m 722 346 l 546 847 l 293 346 l 722 346 z "},"Á":{"ha":1010,"x_min":-1,"x_max":958,"o":"m 756 251 l 244 251 l 118 0 l -1 0 l 506 979 l 604 979 l 958 0 l 844 0 l 756 251 m 722 346 l 546 847 l 293 346 l 722 346 m 524 1063 l 676 1274 l 807 1274 l 601 1063 l 524 1063 z "},"Ă":{"ha":1010,"x_min":-1,"x_max":958,"o":"m 756 251 l 244 251 l 118 0 l -1 0 l 506 979 l 604 979 l 958 0 l 844 0 l 756 251 m 722 346 l 546 847 l 293 346 l 722 346 m 567 1079 q 431 1116 490 1079 q 349 1226 372 1153 l 422 1257 q 484 1181 449 1203 q 571 1160 519 1160 q 659 1181 621 1160 q 732 1257 697 1203 l 801 1226 q 704 1115 765 1151 q 567 1079 643 1079 z "},"Ắ":{"ha":1010,"x_min":-1,"x_max":958,"o":"m 756 251 l 244 251 l 118 0 l -1 0 l 506 979 l 604 979 l 958 0 l 844 0 l 756 251 m 722 346 l 546 847 l 293 346 l 722 346 m 686 1401 l 813 1401 l 611 1206 l 536 1206 l 686 1401 m 565 1056 q 431 1092 489 1056 q 347 1203 372 1129 l 414 1231 q 480 1153 442 1176 q 569 1131 518 1131 q 660 1153 619 1131 q 736 1231 701 1175 l 800 1203 q 702 1091 764 1126 q 565 1056 640 1056 z "},"Ặ":{"ha":1010,"x_min":-1,"x_max":958,"o":"m 756 251 l 244 251 l 118 0 l -1 0 l 506 979 l 604 979 l 958 0 l 844 0 l 756 251 m 722 346 l 546 847 l 293 346 l 722 346 m 533 -131 l 522 -253 l 394 -253 l 406 -131 l 533 -131 m 567 1079 q 431 1116 490 1079 q 349 1226 372 1153 l 422 1257 q 484 1181 449 1203 q 571 1160 519 1160 q 659 1181 621 1160 q 732 1257 697 1203 l 801 1226 q 704 1115 765 1151 q 567 1079 643 1079 z "},"Ằ":{"ha":1010,"x_min":-1,"x_max":958,"o":"m 756 251 l 244 251 l 118 0 l -1 0 l 506 979 l 604 979 l 958 0 l 844 0 l 756 251 m 722 346 l 546 847 l 293 346 l 722 346 m 372 1401 l 485 1401 l 611 1206 l 536 1206 l 372 1401 m 565 1056 q 431 1092 489 1056 q 347 1203 372 1129 l 414 1231 q 480 1153 442 1176 q 569 1131 518 1131 q 660 1153 619 1131 q 736 1231 701 1175 l 800 1203 q 702 1091 764 1126 q 565 1056 640 1056 z "},"Ẳ":{"ha":1010,"x_min":-1,"x_max":958,"o":"m 756 251 l 244 251 l 118 0 l -1 0 l 506 979 l 604 979 l 958 0 l 844 0 l 756 251 m 722 346 l 546 847 l 293 346 l 722 346 m 539 1229 q 557 1267 540 1254 q 603 1292 574 1281 q 631 1306 622 1300 q 640 1321 640 1311 q 626 1337 640 1331 q 590 1343 613 1343 q 499 1326 549 1343 l 483 1388 q 599 1410 539 1410 q 694 1388 660 1410 q 729 1331 729 1365 q 711 1286 729 1301 q 661 1257 693 1271 q 626 1240 639 1249 q 613 1218 614 1232 l 611 1206 l 538 1206 l 539 1229 m 565 1056 q 431 1092 489 1056 q 347 1203 372 1129 l 414 1231 q 480 1153 442 1176 q 569 1131 518 1131 q 660 1153 619 1131 q 736 1231 701 1175 l 800 1203 q 702 1091 764 1126 q 565 1056 640 1056 z "},"Ẵ":{"ha":1010,"x_min":-1,"x_max":958,"o":"m 756 251 l 244 251 l 118 0 l -1 0 l 506 979 l 604 979 l 958 0 l 844 0 l 756 251 m 722 346 l 546 847 l 293 346 l 722 346 m 681 1265 q 627 1276 653 1265 q 567 1306 601 1286 q 520 1330 538 1322 q 486 1338 503 1338 q 438 1319 456 1338 q 417 1269 419 1301 l 356 1269 q 396 1375 358 1338 q 489 1413 433 1413 q 542 1402 517 1413 q 601 1372 568 1392 q 650 1348 633 1356 q 685 1340 667 1340 q 732 1358 714 1340 q 751 1408 750 1376 l 814 1408 q 774 1303 811 1342 q 681 1265 736 1265 m 565 1056 q 431 1092 489 1056 q 347 1203 372 1129 l 414 1231 q 480 1153 442 1176 q 569 1131 518 1131 q 660 1153 619 1131 q 736 1231 701 1175 l 800 1203 q 702 1091 764 1126 q 565 1056 640 1056 z "},"Â":{"ha":1010,"x_min":-1,"x_max":958,"o":"m 756 251 l 244 251 l 118 0 l -1 0 l 506 979 l 604 979 l 958 0 l 844 0 l 756 251 m 722 346 l 546 847 l 293 346 l 722 346 m 360 1063 l 542 1274 l 617 1274 l 765 1063 l 665 1063 l 578 1206 l 463 1063 l 360 1063 z "},"Ấ":{"ha":1010,"x_min":-1,"x_max":958,"o":"m 756 251 l 244 251 l 118 0 l -1 0 l 506 979 l 604 979 l 958 0 l 844 0 l 756 251 m 722 346 l 546 847 l 293 346 l 722 346 m 831 1401 l 954 1401 l 760 1206 l 692 1206 l 831 1401 m 542 1267 l 617 1267 l 765 1063 l 665 1063 l 576 1200 l 463 1063 l 360 1063 l 542 1267 z "},"Ậ":{"ha":1010,"x_min":-1,"x_max":958,"o":"m 756 251 l 244 251 l 118 0 l -1 0 l 506 979 l 604 979 l 958 0 l 844 0 l 756 251 m 722 346 l 546 847 l 293 346 l 722 346 m 533 -131 l 522 -253 l 394 -253 l 406 -131 l 533 -131 m 360 1063 l 542 1274 l 617 1274 l 765 1063 l 665 1063 l 578 1206 l 463 1063 l 360 1063 z "},"Ầ":{"ha":1010,"x_min":-1,"x_max":958,"o":"m 756 251 l 244 251 l 118 0 l -1 0 l 506 979 l 604 979 l 958 0 l 844 0 l 756 251 m 722 346 l 546 847 l 293 346 l 722 346 m 614 1401 l 725 1401 l 819 1206 l 750 1206 l 614 1401 m 542 1267 l 617 1267 l 765 1063 l 665 1063 l 576 1200 l 463 1063 l 360 1063 l 542 1267 z "},"Ẩ":{"ha":1010,"x_min":-1,"x_max":958,"o":"m 756 251 l 244 251 l 118 0 l -1 0 l 506 979 l 604 979 l 958 0 l 844 0 l 756 251 m 722 346 l 546 847 l 293 346 l 722 346 m 692 1229 q 710 1267 693 1254 q 756 1292 726 1281 q 784 1306 775 1300 q 793 1321 793 1311 q 779 1337 793 1331 q 743 1343 765 1343 q 651 1326 701 1343 l 636 1388 q 751 1410 692 1410 q 847 1388 811 1410 q 882 1331 882 1365 q 864 1286 882 1301 q 814 1257 846 1271 q 779 1240 792 1249 q 765 1218 767 1232 l 764 1206 l 690 1206 l 692 1229 m 542 1267 l 617 1267 l 765 1063 l 665 1063 l 576 1200 l 463 1063 l 360 1063 l 542 1267 z "},"Ẫ":{"ha":1010,"x_min":-1,"x_max":958,"o":"m 756 251 l 244 251 l 118 0 l -1 0 l 506 979 l 604 979 l 958 0 l 844 0 l 756 251 m 722 346 l 546 847 l 293 346 l 722 346 m 682 1289 q 628 1297 653 1289 q 565 1322 604 1306 q 521 1342 539 1335 q 486 1349 503 1349 q 439 1331 457 1349 q 418 1288 421 1314 l 357 1288 q 397 1387 360 1350 q 490 1424 435 1424 q 542 1416 519 1424 q 606 1390 565 1408 q 650 1371 632 1378 q 686 1364 668 1364 q 733 1381 715 1364 q 753 1426 751 1399 l 815 1426 q 775 1326 813 1363 q 682 1289 738 1289 m 542 1267 l 617 1267 l 765 1063 l 665 1063 l 576 1200 l 463 1063 l 360 1063 l 542 1267 z "},"Ȁ":{"ha":1010,"x_min":-1,"x_max":958,"o":"m 756 251 l 244 251 l 118 0 l -1 0 l 506 979 l 604 979 l 958 0 l 844 0 l 756 251 m 722 346 l 546 847 l 293 346 l 722 346 m 332 1274 l 426 1274 l 510 1063 l 449 1063 l 332 1274 m 497 1274 l 592 1274 l 676 1063 l 615 1063 l 497 1274 z "},"Ä":{"ha":1010,"x_min":-1,"x_max":958,"o":"m 756 251 l 244 251 l 118 0 l -1 0 l 506 979 l 604 979 l 958 0 l 844 0 l 756 251 m 722 346 l 546 847 l 293 346 l 722 346 m 519 1229 l 510 1110 l 386 1110 l 396 1229 l 519 1229 m 757 1229 l 747 1110 l 624 1110 l 633 1229 l 757 1229 z "},"Ạ":{"ha":1010,"x_min":-1,"x_max":958,"o":"m 756 251 l 244 251 l 118 0 l -1 0 l 506 979 l 604 979 l 958 0 l 844 0 l 756 251 m 722 346 l 546 847 l 293 346 l 722 346 m 533 -131 l 522 -253 l 394 -253 l 406 -131 l 533 -131 z "},"À":{"ha":1010,"x_min":-1,"x_max":958,"o":"m 756 251 l 244 251 l 118 0 l -1 0 l 506 979 l 604 979 l 958 0 l 844 0 l 756 251 m 722 346 l 546 847 l 293 346 l 722 346 m 358 1274 l 475 1274 l 601 1063 l 524 1063 l 358 1274 z "},"Ả":{"ha":1010,"x_min":-1,"x_max":958,"o":"m 756 251 l 244 251 l 118 0 l -1 0 l 506 979 l 604 979 l 958 0 l 844 0 l 756 251 m 722 346 l 546 847 l 293 346 l 722 346 m 600 1063 l 526 1063 l 528 1088 q 546 1126 529 1111 q 590 1154 563 1140 q 619 1171 610 1163 q 629 1189 629 1179 q 615 1206 629 1200 q 576 1213 601 1213 q 489 1196 535 1213 l 474 1257 q 586 1279 526 1279 q 683 1257 649 1279 q 718 1197 718 1235 q 700 1151 718 1168 q 649 1119 682 1135 q 613 1098 624 1106 q 601 1076 603 1090 l 600 1063 z "},"Ȃ":{"ha":1010,"x_min":-1,"x_max":958,"o":"m 756 251 l 244 251 l 118 0 l -1 0 l 506 979 l 604 979 l 958 0 l 844 0 l 756 251 m 722 346 l 546 847 l 293 346 l 722 346 m 575 1258 q 710 1221 651 1258 q 793 1111 769 1183 l 719 1081 q 658 1156 693 1135 q 571 1178 622 1178 q 483 1156 521 1178 q 410 1081 444 1135 l 340 1111 q 438 1222 376 1186 q 575 1258 499 1258 z "},"Ā":{"ha":1010,"x_min":-1,"x_max":958,"o":"m 756 251 l 244 251 l 118 0 l -1 0 l 506 979 l 604 979 l 958 0 l 844 0 l 756 251 m 722 346 l 546 847 l 293 346 l 722 346 m 367 1211 l 782 1211 l 775 1126 l 360 1126 l 367 1211 z "},"Ą":{"ha":1010,"x_min":-1,"x_max":986,"o":"m 986 -236 q 932 -259 963 -250 q 869 -268 901 -268 q 756 -229 799 -268 q 714 -128 714 -190 q 744 -29 714 -72 q 832 38 774 14 l 756 251 l 244 251 l 118 0 l -1 0 l 506 979 l 604 979 l 958 0 l 932 0 q 836 -33 869 0 q 803 -112 803 -67 q 824 -174 803 -153 q 885 -194 846 -194 q 969 -171 922 -194 l 986 -236 m 722 346 l 546 847 l 293 346 l 722 346 z "},"Å":{"ha":1010,"x_min":-1,"x_max":958,"o":"m 756 251 l 244 251 l 118 0 l -1 0 l 492 953 q 439 1003 458 971 q 419 1074 419 1035 q 461 1172 419 1132 q 561 1211 503 1211 q 660 1172 619 1211 q 701 1074 701 1132 q 678 997 701 1031 q 615 947 654 964 l 958 0 l 844 0 l 756 251 m 561 1143 q 513 1123 532 1143 q 493 1074 493 1103 q 513 1024 493 1044 q 561 1004 532 1004 q 609 1024 590 1004 q 628 1074 628 1044 q 609 1123 628 1103 q 561 1143 590 1143 m 722 346 l 546 847 l 293 346 l 722 346 z "},"Ǻ":{"ha":1010,"x_min":-1,"x_max":958,"o":"m 756 251 l 244 251 l 118 0 l -1 0 l 492 953 q 439 1003 458 971 q 419 1074 419 1035 q 461 1172 419 1132 q 561 1211 503 1211 q 642 1188 606 1211 l 761 1307 l 896 1307 l 683 1142 q 701 1074 701 1108 q 678 997 701 1031 q 615 947 654 964 l 958 0 l 844 0 l 756 251 m 561 1143 q 513 1123 532 1143 q 493 1074 493 1103 q 513 1024 493 1044 q 561 1004 532 1004 q 609 1024 590 1004 q 628 1074 628 1044 q 609 1123 628 1103 q 561 1143 590 1143 m 722 346 l 546 847 l 293 346 l 722 346 z "},"Ã":{"ha":1010,"x_min":-1,"x_max":958,"o":"m 756 251 l 244 251 l 118 0 l -1 0 l 506 979 l 604 979 l 958 0 l 844 0 l 756 251 m 722 346 l 546 847 l 293 346 l 722 346 m 342 1092 q 383 1211 346 1171 q 478 1251 419 1251 q 531 1240 506 1251 q 590 1206 557 1228 q 635 1180 617 1189 q 668 1171 653 1171 q 717 1191 699 1171 q 739 1247 736 1211 l 801 1247 q 760 1128 797 1169 q 664 1088 722 1088 q 612 1099 636 1088 q 551 1133 588 1111 q 508 1159 526 1150 q 475 1168 490 1168 q 425 1148 444 1168 q 403 1092 406 1128 l 342 1092 z "},"Æ":{"ha":1376,"x_min":-29,"x_max":1358,"o":"m 756 883 l 801 544 l 1297 544 l 1289 450 l 814 450 l 863 96 l 1290 96 l 1282 0 l 771 0 l 736 251 l 268 251 l 100 0 l -29 0 l 643 979 l 1358 979 l 1351 883 l 756 883 m 724 346 l 658 832 l 332 346 l 724 346 z "},"Ǽ":{"ha":1376,"x_min":-29,"x_max":1358,"o":"m 756 883 l 801 544 l 1297 544 l 1289 450 l 814 450 l 863 96 l 1290 96 l 1282 0 l 771 0 l 736 251 l 268 251 l 100 0 l -29 0 l 643 979 l 1358 979 l 1351 883 l 756 883 m 724 346 l 658 832 l 332 346 l 724 346 m 710 1063 l 863 1274 l 993 1274 l 788 1063 l 710 1063 z "},"B":{"ha":936,"x_min":94,"x_max":864,"o":"m 686 500 q 808 422 765 479 q 850 282 850 365 q 761 74 850 149 q 514 0 672 0 l 94 0 l 171 979 l 550 979 q 784 917 704 979 q 864 739 864 854 q 819 592 864 653 q 686 500 774 531 m 276 885 l 250 544 l 524 544 q 692 592 633 544 q 750 729 750 639 q 540 885 750 885 l 276 885 m 510 94 q 739 281 739 94 q 526 450 739 450 l 243 450 l 215 94 l 510 94 z "},"C":{"ha":940,"x_min":96,"x_max":914,"o":"m 515 -11 q 293 44 388 -11 q 147 203 199 100 q 96 449 96 307 q 153 735 96 613 q 317 924 211 857 q 568 990 424 990 q 763 959 675 990 q 914 867 851 928 l 864 781 q 730 866 799 840 q 569 892 661 892 q 308 774 401 892 q 214 447 214 656 q 296 181 214 275 q 531 88 378 88 q 818 200 686 88 l 856 113 q 704 20 790 51 q 515 -11 618 -11 z "},"Ć":{"ha":940,"x_min":96,"x_max":914,"o":"m 515 -11 q 293 44 388 -11 q 147 203 199 100 q 96 449 96 307 q 153 735 96 613 q 317 924 211 857 q 568 990 424 990 q 763 959 675 990 q 914 867 851 928 l 864 781 q 730 866 799 840 q 569 892 661 892 q 308 774 401 892 q 214 447 214 656 q 296 181 214 275 q 531 88 378 88 q 818 200 686 88 l 856 113 q 704 20 790 51 q 515 -11 618 -11 m 554 1063 l 707 1274 l 838 1274 l 632 1063 l 554 1063 z "},"Č":{"ha":940,"x_min":96,"x_max":914,"o":"m 515 -11 q 293 44 388 -11 q 147 203 199 100 q 96 449 96 307 q 153 735 96 613 q 317 924 211 857 q 568 990 424 990 q 763 959 675 990 q 914 867 851 928 l 864 781 q 730 866 799 840 q 569 892 661 892 q 308 774 401 892 q 214 447 214 656 q 296 181 214 275 q 531 88 378 88 q 818 200 686 88 l 856 113 q 704 20 790 51 q 515 -11 618 -11 m 813 1274 l 631 1063 l 556 1063 l 407 1274 l 508 1274 l 600 1129 l 710 1274 l 813 1274 z "},"Ç":{"ha":940,"x_min":96,"x_max":914,"o":"m 569 892 q 308 774 401 892 q 214 447 214 656 q 296 181 214 275 q 531 88 378 88 q 818 200 686 88 l 856 113 q 533 -11 732 -4 l 524 -58 q 550 -57 532 -57 q 626 -81 597 -57 q 654 -150 654 -106 q 611 -235 654 -203 q 492 -268 568 -268 q 426 -261 461 -268 q 367 -242 392 -254 l 386 -182 q 492 -201 440 -201 q 550 -189 529 -201 q 571 -153 571 -176 q 558 -125 571 -135 q 522 -115 546 -115 q 461 -128 493 -115 l 436 -106 l 456 -8 q 192 132 289 11 q 96 449 96 253 q 153 735 96 613 q 317 924 211 857 q 568 990 424 990 q 763 959 675 990 q 914 867 851 928 l 864 781 q 730 866 799 840 q 569 892 661 892 z "},"Ḉ":{"ha":940,"x_min":96,"x_max":914,"o":"m 632 1063 l 554 1063 l 707 1274 l 838 1274 l 632 1063 m 569 892 q 308 774 401 892 q 214 447 214 656 q 296 181 214 275 q 531 88 378 88 q 818 200 686 88 l 856 113 q 533 -11 732 -4 l 524 -58 q 550 -57 532 -57 q 626 -81 597 -57 q 654 -150 654 -106 q 611 -235 654 -203 q 492 -268 568 -268 q 426 -261 461 -268 q 367 -242 392 -254 l 386 -182 q 492 -201 440 -201 q 550 -189 529 -201 q 571 -153 571 -176 q 558 -125 571 -135 q 522 -115 546 -115 q 461 -128 493 -115 l 436 -106 l 456 -8 q 192 132 289 11 q 96 449 96 253 q 153 735 96 613 q 317 924 211 857 q 568 990 424 990 q 763 959 675 990 q 914 867 851 928 l 864 781 q 730 866 799 840 q 569 892 661 892 z "},"Ĉ":{"ha":940,"x_min":96,"x_max":914,"o":"m 515 -11 q 293 44 388 -11 q 147 203 199 100 q 96 449 96 307 q 153 735 96 613 q 317 924 211 857 q 568 990 424 990 q 763 959 675 990 q 914 867 851 928 l 864 781 q 730 866 799 840 q 569 892 661 892 q 308 774 401 892 q 214 447 214 656 q 296 181 214 275 q 531 88 378 88 q 818 200 686 88 l 856 113 q 704 20 790 51 q 515 -11 618 -11 m 390 1063 l 572 1274 l 647 1274 l 796 1063 l 696 1063 l 608 1206 l 493 1063 l 390 1063 z "},"Ċ":{"ha":940,"x_min":96,"x_max":914,"o":"m 515 -11 q 293 44 388 -11 q 147 203 199 100 q 96 449 96 307 q 153 735 96 613 q 317 924 211 857 q 568 990 424 990 q 763 959 675 990 q 914 867 851 928 l 864 781 q 730 866 799 840 q 569 892 661 892 q 308 774 401 892 q 214 447 214 656 q 296 181 214 275 q 531 88 378 88 q 818 200 686 88 l 856 113 q 704 20 790 51 q 515 -11 618 -11 m 675 1232 l 665 1106 l 528 1106 l 539 1232 l 675 1232 z "},"D":{"ha":1026,"x_min":94,"x_max":954,"o":"m 171 979 l 494 979 q 835 861 715 979 q 954 529 954 743 q 896 245 954 364 q 725 63 838 126 q 454 0 613 0 l 94 0 l 171 979 m 449 97 q 738 208 640 97 q 836 531 836 319 q 485 882 836 882 l 278 882 l 217 97 l 449 97 z "},"Ǆ":{"ha":1825,"x_min":94,"x_max":1810,"o":"m 171 979 l 494 979 q 835 861 715 979 q 954 529 954 743 q 896 245 954 364 q 725 63 838 126 q 454 0 613 0 l 94 0 l 171 979 m 449 97 q 738 208 640 97 q 836 531 836 319 q 485 882 836 882 l 278 882 l 217 97 l 449 97 m 1803 896 l 1185 96 l 1756 96 l 1747 0 l 1042 0 l 1047 85 l 1665 883 l 1111 883 l 1119 979 l 1810 979 l 1803 896 m 1692 1274 l 1510 1063 l 1435 1063 l 1286 1274 l 1388 1274 l 1479 1129 l 1589 1274 l 1692 1274 z "},"Ð":{"ha":1044,"x_min":19,"x_max":972,"o":"m 513 979 q 853 861 733 979 q 972 529 972 743 q 914 245 972 364 q 743 63 856 126 q 472 0 631 0 l 113 0 l 147 450 l 19 450 l 26 543 l 156 543 l 189 979 l 513 979 m 467 97 q 757 208 658 97 q 856 531 856 319 q 767 793 856 704 q 504 882 679 882 l 296 882 l 269 543 l 536 543 l 529 450 l 263 450 l 235 97 l 467 97 z "},"Ď":{"ha":1026,"x_min":94,"x_max":954,"o":"m 171 979 l 494 979 q 835 861 715 979 q 954 529 954 743 q 896 245 954 364 q 725 63 838 126 q 454 0 613 0 l 94 0 l 171 979 m 449 97 q 738 208 640 97 q 836 531 836 319 q 485 882 836 882 l 278 882 l 217 97 l 449 97 m 789 1274 l 607 1063 l 532 1063 l 383 1274 l 485 1274 l 576 1129 l 686 1274 l 789 1274 z "},"Đ":{"ha":1044,"x_min":19,"x_max":972,"o":"m 513 979 q 853 861 733 979 q 972 529 972 743 q 914 245 972 364 q 743 63 856 126 q 472 0 631 0 l 113 0 l 147 450 l 19 450 l 26 543 l 156 543 l 189 979 l 513 979 m 467 97 q 757 208 658 97 q 856 531 856 319 q 767 793 856 704 q 504 882 679 882 l 296 882 l 269 543 l 536 543 l 529 450 l 263 450 l 235 97 l 467 97 z "},"Ḍ":{"ha":1026,"x_min":94,"x_max":954,"o":"m 171 979 l 494 979 q 835 861 715 979 q 954 529 954 743 q 896 245 954 364 q 725 63 838 126 q 454 0 613 0 l 94 0 l 171 979 m 449 97 q 738 208 640 97 q 836 531 836 319 q 485 882 836 882 l 278 882 l 217 97 l 449 97 m 542 -131 l 531 -253 l 403 -253 l 414 -131 l 542 -131 z "},"Ḏ":{"ha":1026,"x_min":94,"x_max":954,"o":"m 171 979 l 494 979 q 835 861 715 979 q 954 529 954 743 q 896 245 954 364 q 725 63 838 126 q 454 0 613 0 l 94 0 l 171 979 m 449 97 q 738 208 640 97 q 836 531 836 319 q 485 882 836 882 l 278 882 l 217 97 l 449 97 m 268 -151 l 683 -151 l 676 -233 l 261 -233 l 268 -151 z "},"ǅ":{"ha":1725,"x_min":94,"x_max":1678,"o":"m 171 979 l 494 979 q 835 861 715 979 q 954 529 954 743 q 896 245 954 364 q 725 63 838 126 q 454 0 613 0 l 94 0 l 171 979 m 449 97 q 738 208 640 97 q 836 531 836 319 q 485 882 836 882 l 278 882 l 217 97 l 449 97 m 1672 594 l 1218 89 l 1647 89 l 1640 0 l 1067 0 l 1074 78 l 1529 588 l 1128 588 l 1135 676 l 1678 676 l 1672 594 m 1640 1046 l 1456 765 l 1376 765 l 1235 1046 l 1336 1046 l 1421 847 l 1535 1046 l 1640 1046 z "},"E":{"ha":808,"x_min":94,"x_max":790,"o":"m 276 885 l 250 544 l 729 544 l 721 450 l 243 450 l 215 94 l 722 94 l 714 0 l 94 0 l 171 979 l 790 979 l 783 885 l 276 885 z "},"É":{"ha":808,"x_min":94,"x_max":790,"o":"m 276 885 l 250 544 l 729 544 l 721 450 l 243 450 l 215 94 l 722 94 l 714 0 l 94 0 l 171 979 l 790 979 l 783 885 l 276 885 m 468 1063 l 621 1274 l 751 1274 l 546 1063 l 468 1063 z "},"Ĕ":{"ha":808,"x_min":94,"x_max":790,"o":"m 276 885 l 250 544 l 729 544 l 721 450 l 243 450 l 215 94 l 722 94 l 714 0 l 94 0 l 171 979 l 790 979 l 783 885 l 276 885 m 511 1079 q 376 1116 435 1079 q 293 1226 317 1153 l 367 1257 q 428 1181 393 1203 q 515 1160 464 1160 q 603 1181 565 1160 q 676 1257 642 1203 l 746 1226 q 649 1115 710 1151 q 511 1079 588 1079 z "},"Ě":{"ha":808,"x_min":94,"x_max":790,"o":"m 276 885 l 250 544 l 729 544 l 721 450 l 243 450 l 215 94 l 722 94 l 714 0 l 94 0 l 171 979 l 790 979 l 783 885 l 276 885 m 726 1274 l 544 1063 l 469 1063 l 321 1274 l 422 1274 l 514 1129 l 624 1274 l 726 1274 z "},"Ȩ":{"ha":808,"x_min":94,"x_max":790,"o":"m 276 885 l 250 544 l 729 544 l 721 450 l 243 450 l 215 94 l 722 94 l 714 0 l 450 0 l 439 -58 q 465 -57 447 -57 q 541 -81 513 -57 q 569 -150 569 -106 q 526 -235 569 -203 q 407 -268 483 -268 q 342 -261 376 -268 q 282 -242 307 -254 l 301 -182 q 407 -201 356 -201 q 465 -189 444 -201 q 486 -153 486 -176 q 474 -125 486 -135 q 438 -115 461 -115 q 376 -128 408 -115 l 351 -106 l 372 0 l 94 0 l 171 979 l 790 979 l 783 885 l 276 885 z "},"Ḝ":{"ha":808,"x_min":94,"x_max":790,"o":"m 511 1079 q 376 1116 435 1079 q 293 1226 317 1153 l 367 1257 q 428 1181 393 1203 q 515 1160 464 1160 q 603 1181 565 1160 q 676 1257 642 1203 l 746 1226 q 649 1115 710 1151 q 511 1079 588 1079 m 276 885 l 250 544 l 729 544 l 721 450 l 243 450 l 215 94 l 722 94 l 714 0 l 450 0 l 439 -58 q 465 -57 447 -57 q 541 -81 513 -57 q 569 -150 569 -106 q 526 -235 569 -203 q 407 -268 483 -268 q 342 -261 376 -268 q 282 -242 307 -254 l 301 -182 q 407 -201 356 -201 q 465 -189 444 -201 q 486 -153 486 -176 q 474 -125 486 -135 q 438 -115 461 -115 q 376 -128 408 -115 l 351 -106 l 372 0 l 94 0 l 171 979 l 790 979 l 783 885 l 276 885 z "},"Ê":{"ha":808,"x_min":94,"x_max":790,"o":"m 276 885 l 250 544 l 729 544 l 721 450 l 243 450 l 215 94 l 722 94 l 714 0 l 94 0 l 171 979 l 790 979 l 783 885 l 276 885 m 304 1063 l 486 1274 l 561 1274 l 710 1063 l 610 1063 l 522 1206 l 407 1063 l 304 1063 z "},"Ế":{"ha":808,"x_min":94,"x_max":899,"o":"m 276 885 l 250 544 l 729 544 l 721 450 l 243 450 l 215 94 l 722 94 l 714 0 l 94 0 l 171 979 l 790 979 l 783 885 l 276 885 m 775 1401 l 899 1401 l 704 1206 l 636 1206 l 775 1401 m 486 1267 l 561 1267 l 710 1063 l 610 1063 l 521 1200 l 407 1063 l 304 1063 l 486 1267 z "},"Ệ":{"ha":808,"x_min":94,"x_max":790,"o":"m 276 885 l 250 544 l 729 544 l 721 450 l 243 450 l 215 94 l 722 94 l 714 0 l 94 0 l 171 979 l 790 979 l 783 885 l 276 885 m 478 -131 l 467 -253 l 339 -253 l 350 -131 l 478 -131 m 304 1063 l 486 1274 l 561 1274 l 710 1063 l 610 1063 l 522 1206 l 407 1063 l 304 1063 z "},"Ề":{"ha":808,"x_min":94,"x_max":790,"o":"m 276 885 l 250 544 l 729 544 l 721 450 l 243 450 l 215 94 l 722 94 l 714 0 l 94 0 l 171 979 l 790 979 l 783 885 l 276 885 m 558 1401 l 669 1401 l 764 1206 l 694 1206 l 558 1401 m 486 1267 l 561 1267 l 710 1063 l 610 1063 l 521 1200 l 407 1063 l 304 1063 l 486 1267 z "},"Ể":{"ha":808,"x_min":94,"x_max":826,"o":"m 276 885 l 250 544 l 729 544 l 721 450 l 243 450 l 215 94 l 722 94 l 714 0 l 94 0 l 171 979 l 790 979 l 783 885 l 276 885 m 636 1229 q 654 1267 638 1254 q 700 1292 671 1281 q 728 1306 719 1300 q 738 1321 738 1311 q 724 1337 738 1331 q 688 1343 710 1343 q 596 1326 646 1343 l 581 1388 q 696 1410 636 1410 q 791 1388 756 1410 q 826 1331 826 1365 q 808 1286 826 1301 q 758 1257 790 1271 q 724 1240 736 1249 q 710 1218 711 1232 l 708 1206 l 635 1206 l 636 1229 m 486 1267 l 561 1267 l 710 1063 l 610 1063 l 521 1200 l 407 1063 l 304 1063 l 486 1267 z "},"Ễ":{"ha":808,"x_min":94,"x_max":790,"o":"m 276 885 l 250 544 l 729 544 l 721 450 l 243 450 l 215 94 l 722 94 l 714 0 l 94 0 l 171 979 l 790 979 l 783 885 l 276 885 m 626 1289 q 573 1297 597 1289 q 510 1322 549 1306 q 465 1342 483 1335 q 431 1349 447 1349 q 383 1331 401 1349 q 363 1288 365 1314 l 301 1288 q 342 1387 304 1350 q 435 1424 379 1424 q 487 1416 464 1424 q 550 1390 510 1408 q 594 1371 576 1378 q 631 1364 613 1364 q 678 1381 660 1364 q 697 1426 696 1399 l 760 1426 q 719 1326 757 1363 q 626 1289 682 1289 m 486 1267 l 561 1267 l 710 1063 l 610 1063 l 521 1200 l 407 1063 l 304 1063 l 486 1267 z "},"Ȅ":{"ha":808,"x_min":94,"x_max":790,"o":"m 276 885 l 250 544 l 729 544 l 721 450 l 243 450 l 215 94 l 722 94 l 714 0 l 94 0 l 171 979 l 790 979 l 783 885 l 276 885 m 276 1274 l 371 1274 l 454 1063 l 393 1063 l 276 1274 m 442 1274 l 536 1274 l 621 1063 l 560 1063 l 442 1274 z "},"Ë":{"ha":808,"x_min":94,"x_max":790,"o":"m 276 885 l 250 544 l 729 544 l 721 450 l 243 450 l 215 94 l 722 94 l 714 0 l 94 0 l 171 979 l 790 979 l 783 885 l 276 885 m 464 1229 l 454 1110 l 331 1110 l 340 1229 l 464 1229 m 701 1229 l 692 1110 l 568 1110 l 578 1229 l 701 1229 z "},"Ė":{"ha":808,"x_min":94,"x_max":790,"o":"m 276 885 l 250 544 l 729 544 l 721 450 l 243 450 l 215 94 l 722 94 l 714 0 l 94 0 l 171 979 l 790 979 l 783 885 l 276 885 m 589 1232 l 579 1106 l 442 1106 l 453 1232 l 589 1232 z "},"Ẹ":{"ha":808,"x_min":94,"x_max":790,"o":"m 276 885 l 250 544 l 729 544 l 721 450 l 243 450 l 215 94 l 722 94 l 714 0 l 94 0 l 171 979 l 790 979 l 783 885 l 276 885 m 478 -131 l 467 -253 l 339 -253 l 350 -131 l 478 -131 z "},"È":{"ha":808,"x_min":94,"x_max":790,"o":"m 276 885 l 250 544 l 729 544 l 721 450 l 243 450 l 215 94 l 722 94 l 714 0 l 94 0 l 171 979 l 790 979 l 783 885 l 276 885 m 303 1274 l 419 1274 l 546 1063 l 468 1063 l 303 1274 z "},"Ẻ":{"ha":808,"x_min":94,"x_max":790,"o":"m 276 885 l 250 544 l 729 544 l 721 450 l 243 450 l 215 94 l 722 94 l 714 0 l 94 0 l 171 979 l 790 979 l 783 885 l 276 885 m 544 1063 l 471 1063 l 472 1088 q 490 1126 474 1111 q 535 1154 507 1140 q 564 1171 554 1163 q 574 1189 574 1179 q 560 1206 574 1200 q 521 1213 546 1213 q 433 1196 479 1213 l 418 1257 q 531 1279 471 1279 q 628 1257 593 1279 q 663 1197 663 1235 q 644 1151 663 1168 q 593 1119 626 1135 q 558 1098 568 1106 q 546 1076 547 1090 l 544 1063 z "},"Ȇ":{"ha":808,"x_min":94,"x_max":790,"o":"m 276 885 l 250 544 l 729 544 l 721 450 l 243 450 l 215 94 l 722 94 l 714 0 l 94 0 l 171 979 l 790 979 l 783 885 l 276 885 m 519 1258 q 655 1221 596 1258 q 738 1111 714 1183 l 664 1081 q 602 1156 638 1135 q 515 1178 567 1178 q 427 1156 465 1178 q 354 1081 389 1135 l 285 1111 q 382 1222 321 1186 q 519 1258 443 1258 z "},"Ē":{"ha":808,"x_min":94,"x_max":790,"o":"m 276 885 l 250 544 l 729 544 l 721 450 l 243 450 l 215 94 l 722 94 l 714 0 l 94 0 l 171 979 l 790 979 l 783 885 l 276 885 m 311 1211 l 726 1211 l 719 1126 l 304 1126 l 311 1211 z "},"Ḗ":{"ha":808,"x_min":94,"x_max":790,"o":"m 276 885 l 250 544 l 729 544 l 721 450 l 243 450 l 215 94 l 722 94 l 714 0 l 94 0 l 171 979 l 790 979 l 783 885 l 276 885 m 311 1211 l 726 1211 l 719 1126 l 304 1126 l 311 1211 m 486 1285 l 639 1496 l 769 1496 l 564 1285 l 486 1285 z "},"Ḕ":{"ha":808,"x_min":94,"x_max":790,"o":"m 276 885 l 250 544 l 729 544 l 721 450 l 243 450 l 215 94 l 722 94 l 714 0 l 94 0 l 171 979 l 790 979 l 783 885 l 276 885 m 311 1211 l 726 1211 l 719 1126 l 304 1126 l 311 1211 m 321 1496 l 438 1496 l 564 1285 l 486 1285 l 321 1496 z "},"Ę":{"ha":808,"x_min":94,"x_max":790,"o":"m 276 885 l 250 544 l 729 544 l 721 450 l 243 450 l 215 94 l 722 94 l 714 0 l 693 0 q 593 -31 626 0 q 560 -111 560 -62 q 581 -174 560 -153 q 642 -194 603 -194 q 725 -171 678 -194 l 743 -236 q 626 -268 689 -268 q 512 -230 554 -268 q 469 -131 469 -192 q 532 0 469 -51 l 94 0 l 171 979 l 790 979 l 783 885 l 276 885 z "},"Ẽ":{"ha":808,"x_min":94,"x_max":790,"o":"m 276 885 l 250 544 l 729 544 l 721 450 l 243 450 l 215 94 l 722 94 l 714 0 l 94 0 l 171 979 l 790 979 l 783 885 l 276 885 m 286 1092 q 327 1211 290 1171 q 422 1251 364 1251 q 476 1240 450 1251 q 535 1206 501 1228 q 579 1180 561 1189 q 613 1171 597 1171 q 662 1191 643 1171 q 683 1247 681 1211 l 746 1247 q 704 1128 742 1169 q 608 1088 667 1088 q 556 1099 581 1088 q 496 1133 532 1111 q 453 1159 471 1150 q 419 1168 435 1168 q 369 1148 389 1168 q 347 1092 350 1128 l 286 1092 z "},"F":{"ha":774,"x_min":94,"x_max":776,"o":"m 278 883 l 251 546 l 715 546 l 707 450 l 243 450 l 207 0 l 94 0 l 171 979 l 776 979 l 769 883 l 278 883 z "},"G":{"ha":1006,"x_min":94,"x_max":924,"o":"m 563 510 l 910 510 l 874 58 q 721 8 813 28 q 542 -11 629 -11 q 210 108 326 -11 q 94 439 94 226 q 154 731 94 607 q 324 923 214 856 q 585 990 435 990 q 924 867 792 990 l 874 779 q 737 867 804 840 q 585 893 669 893 q 310 773 408 892 q 213 443 213 654 q 297 178 213 271 q 549 85 382 85 q 775 122 665 85 l 799 421 l 556 421 l 563 510 z "},"Ğ":{"ha":1006,"x_min":94,"x_max":924,"o":"m 563 510 l 910 510 l 874 58 q 721 8 813 28 q 542 -11 629 -11 q 210 108 326 -11 q 94 439 94 226 q 154 731 94 607 q 324 923 214 856 q 585 990 435 990 q 924 867 792 990 l 874 779 q 737 867 804 840 q 585 893 669 893 q 310 773 408 892 q 213 443 213 654 q 297 178 213 271 q 549 85 382 85 q 775 122 665 85 l 799 421 l 556 421 l 563 510 m 606 1079 q 470 1116 529 1079 q 388 1226 411 1153 l 461 1257 q 523 1181 488 1203 q 610 1160 558 1160 q 698 1181 660 1160 q 771 1257 736 1203 l 840 1226 q 743 1115 804 1151 q 606 1079 682 1079 z "},"Ǧ":{"ha":1006,"x_min":94,"x_max":924,"o":"m 563 510 l 910 510 l 874 58 q 721 8 813 28 q 542 -11 629 -11 q 210 108 326 -11 q 94 439 94 226 q 154 731 94 607 q 324 923 214 856 q 585 990 435 990 q 924 867 792 990 l 874 779 q 737 867 804 840 q 585 893 669 893 q 310 773 408 892 q 213 443 213 654 q 297 178 213 271 q 549 85 382 85 q 775 122 665 85 l 799 421 l 556 421 l 563 510 m 821 1274 l 639 1063 l 564 1063 l 415 1274 l 517 1274 l 608 1129 l 718 1274 l 821 1274 z "},"Ĝ":{"ha":1006,"x_min":94,"x_max":924,"o":"m 563 510 l 910 510 l 874 58 q 721 8 813 28 q 542 -11 629 -11 q 210 108 326 -11 q 94 439 94 226 q 154 731 94 607 q 324 923 214 856 q 585 990 435 990 q 924 867 792 990 l 874 779 q 737 867 804 840 q 585 893 669 893 q 310 773 408 892 q 213 443 213 654 q 297 178 213 271 q 549 85 382 85 q 775 122 665 85 l 799 421 l 556 421 l 563 510 m 399 1063 l 581 1274 l 656 1274 l 804 1063 l 704 1063 l 617 1206 l 501 1063 l 399 1063 z "},"Ģ":{"ha":1006,"x_min":94,"x_max":924,"o":"m 563 510 l 910 510 l 874 58 q 721 8 813 28 q 542 -11 629 -11 q 210 108 326 -11 q 94 439 94 226 q 154 731 94 607 q 324 923 214 856 q 585 990 435 990 q 924 867 792 990 l 874 779 q 737 867 804 840 q 585 893 669 893 q 310 773 408 892 q 213 443 213 654 q 297 178 213 271 q 549 85 382 85 q 775 122 665 85 l 799 421 l 556 421 l 563 510 m 588 -100 l 582 -181 q 558 -278 578 -235 q 497 -360 539 -322 l 449 -322 q 490 -271 476 -296 q 507 -215 503 -246 l 443 -215 l 451 -100 l 588 -100 z "},"Ġ":{"ha":1006,"x_min":94,"x_max":924,"o":"m 563 510 l 910 510 l 874 58 q 721 8 813 28 q 542 -11 629 -11 q 210 108 326 -11 q 94 439 94 226 q 154 731 94 607 q 324 923 214 856 q 585 990 435 990 q 924 867 792 990 l 874 779 q 737 867 804 840 q 585 893 669 893 q 310 773 408 892 q 213 443 213 654 q 297 178 213 271 q 549 85 382 85 q 775 122 665 85 l 799 421 l 556 421 l 563 510 m 683 1232 l 674 1106 l 536 1106 l 547 1232 l 683 1232 z "},"Ḡ":{"ha":1006,"x_min":94,"x_max":924,"o":"m 563 510 l 910 510 l 874 58 q 721 8 813 28 q 542 -11 629 -11 q 210 108 326 -11 q 94 439 94 226 q 154 731 94 607 q 324 923 214 856 q 585 990 435 990 q 924 867 792 990 l 874 779 q 737 867 804 840 q 585 893 669 893 q 310 773 408 892 q 213 443 213 654 q 297 178 213 271 q 549 85 382 85 q 775 122 665 85 l 799 421 l 556 421 l 563 510 m 406 1211 l 821 1211 l 814 1126 l 399 1126 l 406 1211 z "},"H":{"ha":1053,"x_min":94,"x_max":982,"o":"m 982 979 l 906 0 l 793 0 l 828 449 l 242 449 l 207 0 l 94 0 l 171 979 l 283 979 l 250 546 l 836 546 l 869 979 l 982 979 z "},"Ħ":{"ha":1090,"x_min":40,"x_max":1117,"o":"m 1110 722 l 989 722 l 932 0 l 818 0 l 853 449 l 268 449 l 233 0 l 119 0 l 176 722 l 40 722 l 49 813 l 183 813 l 196 979 l 310 979 l 297 813 l 882 813 l 894 979 l 1008 979 l 996 813 l 1117 813 l 1110 722 m 875 722 l 290 722 l 276 546 l 861 546 l 875 722 z "},"Ḫ":{"ha":1053,"x_min":94,"x_max":982,"o":"m 982 979 l 906 0 l 793 0 l 828 449 l 242 449 l 207 0 l 94 0 l 171 979 l 283 979 l 250 546 l 836 546 l 869 979 l 982 979 m 479 -293 q 344 -249 403 -293 q 261 -118 285 -206 l 335 -87 q 485 -211 382 -211 q 576 -183 535 -211 q 650 -87 617 -154 l 719 -117 q 621 -251 685 -208 q 479 -293 557 -293 z "},"Ĥ":{"ha":1053,"x_min":94,"x_max":982,"o":"m 982 979 l 906 0 l 793 0 l 828 449 l 242 449 l 207 0 l 94 0 l 171 979 l 283 979 l 250 546 l 836 546 l 869 979 l 982 979 m 381 1063 l 563 1274 l 638 1274 l 786 1063 l 686 1063 l 599 1206 l 483 1063 l 381 1063 z "},"Ḥ":{"ha":1053,"x_min":94,"x_max":982,"o":"m 982 979 l 906 0 l 793 0 l 828 449 l 242 449 l 207 0 l 94 0 l 171 979 l 283 979 l 250 546 l 836 546 l 869 979 l 982 979 m 554 -131 l 543 -253 l 415 -253 l 426 -131 l 554 -131 z "},"I":{"ha":356,"x_min":94,"x_max":285,"o":"m 171 979 l 285 979 l 208 0 l 94 0 l 171 979 z "},"Í":{"ha":356,"x_min":94,"x_max":479,"o":"m 171 979 l 285 979 l 208 0 l 94 0 l 171 979 m 196 1063 l 349 1274 l 479 1274 l 274 1063 l 196 1063 z "},"Ĭ":{"ha":356,"x_min":21,"x_max":474,"o":"m 171 979 l 285 979 l 208 0 l 94 0 l 171 979 m 239 1079 q 103 1116 163 1079 q 21 1226 44 1153 l 94 1257 q 156 1181 121 1203 q 243 1160 192 1160 q 331 1181 293 1160 q 404 1257 369 1203 l 474 1226 q 376 1115 438 1151 q 239 1079 315 1079 z "},"Î":{"ha":356,"x_min":32,"x_max":438,"o":"m 171 979 l 285 979 l 208 0 l 94 0 l 171 979 m 32 1063 l 214 1274 l 289 1274 l 438 1063 l 338 1063 l 250 1206 l 135 1063 l 32 1063 z "},"Ȉ":{"ha":356,"x_min":4,"x_max":349,"o":"m 171 979 l 285 979 l 208 0 l 94 0 l 171 979 m 4 1274 l 99 1274 l 182 1063 l 121 1063 l 4 1274 m 169 1274 l 264 1274 l 349 1063 l 288 1063 l 169 1274 z "},"Ï":{"ha":356,"x_min":58,"x_max":429,"o":"m 171 979 l 285 979 l 208 0 l 94 0 l 171 979 m 192 1229 l 182 1110 l 58 1110 l 68 1229 l 192 1229 m 429 1229 l 419 1110 l 296 1110 l 306 1229 l 429 1229 z "},"Ḯ":{"ha":356,"x_min":58,"x_max":497,"o":"m 171 979 l 285 979 l 208 0 l 94 0 l 171 979 m 192 1229 l 182 1110 l 58 1110 l 68 1229 l 192 1229 m 429 1229 l 419 1110 l 296 1110 l 306 1229 l 429 1229 m 214 1285 l 367 1496 l 497 1496 l 292 1285 l 214 1285 z "},"İ":{"ha":356,"x_min":94,"x_max":317,"o":"m 171 979 l 285 979 l 208 0 l 94 0 l 171 979 m 317 1232 l 307 1106 l 169 1106 l 181 1232 l 317 1232 z "},"Ị":{"ha":356,"x_min":67,"x_max":285,"o":"m 171 979 l 285 979 l 208 0 l 94 0 l 171 979 m 206 -131 l 194 -253 l 67 -253 l 78 -131 l 206 -131 z "},"Ì":{"ha":356,"x_min":31,"x_max":285,"o":"m 171 979 l 285 979 l 208 0 l 94 0 l 171 979 m 31 1274 l 147 1274 l 274 1063 l 196 1063 l 31 1274 z "},"Ỉ":{"ha":356,"x_min":94,"x_max":390,"o":"m 171 979 l 285 979 l 208 0 l 94 0 l 171 979 m 272 1063 l 199 1063 l 200 1088 q 218 1126 201 1111 q 263 1154 235 1140 q 292 1171 282 1163 q 301 1189 301 1179 q 288 1206 301 1200 q 249 1213 274 1213 q 161 1196 207 1213 l 146 1257 q 258 1279 199 1279 q 356 1257 321 1279 q 390 1197 390 1235 q 372 1151 390 1168 q 321 1119 354 1135 q 285 1098 296 1106 q 274 1076 275 1090 l 272 1063 z "},"Ȋ":{"ha":356,"x_min":13,"x_max":465,"o":"m 171 979 l 285 979 l 208 0 l 94 0 l 171 979 m 247 1258 q 383 1221 324 1258 q 465 1111 442 1183 l 392 1081 q 330 1156 365 1135 q 243 1178 294 1178 q 155 1156 193 1178 q 82 1081 117 1135 l 13 1111 q 110 1222 49 1186 q 247 1258 171 1258 z "},"Ī":{"ha":356,"x_min":32,"x_max":454,"o":"m 171 979 l 285 979 l 208 0 l 94 0 l 171 979 m 39 1211 l 454 1211 l 447 1126 l 32 1126 l 39 1211 z "},"Į":{"ha":356,"x_min":-24,"x_max":285,"o":"m 149 -194 q 232 -171 185 -194 l 250 -236 q 133 -268 196 -268 q 19 -229 63 -268 q -24 -126 -24 -190 q 7 -26 -24 -69 q 97 39 38 17 l 171 979 l 285 979 l 208 0 l 199 0 q 99 -31 131 0 q 67 -111 67 -62 q 88 -174 67 -153 q 149 -194 110 -194 z "},"Ĩ":{"ha":356,"x_min":14,"x_max":474,"o":"m 171 979 l 285 979 l 208 0 l 94 0 l 171 979 m 14 1092 q 55 1211 18 1171 q 150 1251 92 1251 q 203 1240 178 1251 q 263 1206 229 1228 q 307 1180 289 1189 q 340 1171 325 1171 q 390 1191 371 1171 q 411 1247 408 1211 l 474 1247 q 432 1128 469 1169 q 336 1088 394 1088 q 284 1099 308 1088 q 224 1133 260 1111 q 181 1159 199 1150 q 147 1168 163 1168 q 97 1148 117 1168 q 75 1092 78 1128 l 14 1092 z "},"J":{"ha":453,"x_min":-32,"x_max":382,"o":"m -32 86 l 50 92 q 211 265 199 103 l 268 979 l 382 979 l 326 264 q 58 -4 306 13 l -28 -10 l -32 86 z "},"Ĵ":{"ha":453,"x_min":-32,"x_max":535,"o":"m -32 86 l 50 92 q 211 265 199 103 l 268 979 l 382 979 l 326 264 q 58 -4 306 13 l -28 -10 l -32 86 m 129 1063 l 311 1274 l 386 1274 l 535 1063 l 435 1063 l 347 1206 l 232 1063 l 129 1063 z "},"K":{"ha":872,"x_min":94,"x_max":910,"o":"m 360 501 l 860 0 l 719 0 l 244 467 l 208 0 l 94 0 l 171 979 l 285 979 l 250 532 l 758 979 l 910 979 l 360 501 z "},"Ķ":{"ha":872,"x_min":94,"x_max":910,"o":"m 360 501 l 860 0 l 719 0 l 244 467 l 208 0 l 94 0 l 171 979 l 285 979 l 250 532 l 758 979 l 910 979 l 360 501 m 472 -100 l 467 -181 q 443 -278 463 -235 q 382 -360 424 -322 l 333 -322 q 374 -271 361 -296 q 392 -215 388 -246 l 328 -215 l 336 -100 l 472 -100 z "},"L":{"ha":750,"x_min":94,"x_max":707,"o":"m 171 979 l 285 979 l 217 97 l 707 97 l 699 0 l 94 0 l 171 979 z "},"Ǉ":{"ha":1201,"x_min":94,"x_max":1132,"o":"m 171 979 l 285 979 l 217 97 l 665 97 l 657 0 l 94 0 l 171 979 m 717 86 l 799 92 q 914 140 874 97 q 961 265 954 183 l 1017 979 l 1132 979 l 1075 264 q 999 70 1065 136 q 807 -4 932 4 l 721 -10 l 717 86 z "},"Ĺ":{"ha":750,"x_min":94,"x_max":707,"o":"m 171 979 l 285 979 l 217 97 l 707 97 l 699 0 l 94 0 l 171 979 m 196 1063 l 349 1274 l 479 1274 l 274 1063 l 196 1063 z "},"Ľ":{"ha":750,"x_min":94,"x_max":707,"o":"m 171 979 l 285 979 l 217 97 l 707 97 l 699 0 l 94 0 l 171 979 m 382 715 l 401 979 l 499 979 l 442 715 l 382 715 z "},"Ļ":{"ha":750,"x_min":94,"x_max":707,"o":"m 171 979 l 285 979 l 217 97 l 707 97 l 699 0 l 94 0 l 171 979 m 463 -100 l 457 -181 q 433 -278 453 -235 q 372 -360 414 -322 l 324 -322 q 365 -271 351 -296 q 382 -215 378 -246 l 318 -215 l 326 -100 l 463 -100 z "},"Ŀ":{"ha":750,"x_min":94,"x_max":707,"o":"m 171 979 l 285 979 l 217 97 l 707 97 l 699 0 l 94 0 l 171 979 m 575 556 l 565 425 l 424 425 l 433 556 l 575 556 z "},"Ḷ":{"ha":750,"x_min":94,"x_max":707,"o":"m 171 979 l 285 979 l 217 97 l 707 97 l 699 0 l 94 0 l 171 979 m 457 -131 l 446 -253 l 318 -253 l 329 -131 l 457 -131 z "},"ǈ":{"ha":1072,"x_min":94,"x_max":1029,"o":"m 171 979 l 285 979 l 217 97 l 707 97 l 699 0 l 94 0 l 171 979 m 942 8 q 868 -182 931 -121 q 672 -251 806 -243 l 610 -256 l 606 -168 l 671 -164 q 784 -122 746 -158 q 828 -8 822 -85 l 882 676 l 994 676 l 942 8 m 1029 969 l 1019 843 l 882 843 l 893 969 l 1029 969 z "},"Ḻ":{"ha":750,"x_min":94,"x_max":707,"o":"m 171 979 l 285 979 l 217 97 l 707 97 l 699 0 l 94 0 l 171 979 m 183 -151 l 599 -151 l 592 -233 l 176 -233 l 183 -151 z "},"Ł":{"ha":768,"x_min":-3,"x_max":725,"o":"m 725 97 l 718 0 l 113 0 l 144 408 l 38 350 l -3 431 l 153 515 l 189 979 l 304 979 l 272 582 l 521 718 l 558 638 l 264 475 l 235 97 l 725 97 z "},"M":{"ha":1168,"x_min":94,"x_max":1096,"o":"m 1096 979 l 1019 0 l 915 0 l 975 756 l 611 156 l 531 156 l 260 753 l 200 0 l 94 0 l 171 979 l 267 979 l 579 272 l 1003 979 l 1096 979 z "},"Ṃ":{"ha":1168,"x_min":94,"x_max":1096,"o":"m 1096 979 l 1019 0 l 915 0 l 975 756 l 611 156 l 531 156 l 260 753 l 200 0 l 94 0 l 171 979 l 267 979 l 579 272 l 1003 979 l 1096 979 m 611 -131 l 600 -253 l 472 -253 l 483 -131 l 611 -131 z "},"N":{"ha":1026,"x_min":94,"x_max":956,"o":"m 956 979 l 879 0 l 792 0 l 264 788 l 201 0 l 94 0 l 171 979 l 260 979 l 786 194 l 849 979 l 956 979 z "},"Ǌ":{"ha":1479,"x_min":94,"x_max":1408,"o":"m 956 979 l 879 0 l 792 0 l 264 788 l 201 0 l 94 0 l 171 979 l 260 979 l 786 194 l 849 979 l 956 979 m 994 86 l 1076 92 q 1238 265 1225 103 l 1294 979 l 1408 979 l 1353 264 q 1085 -4 1332 13 l 999 -10 l 994 86 z "},"Ń":{"ha":1026,"x_min":94,"x_max":956,"o":"m 956 979 l 879 0 l 792 0 l 264 788 l 201 0 l 94 0 l 171 979 l 260 979 l 786 194 l 849 979 l 956 979 m 531 1063 l 683 1274 l 814 1274 l 608 1063 l 531 1063 z "},"Ň":{"ha":1026,"x_min":94,"x_max":956,"o":"m 956 979 l 879 0 l 792 0 l 264 788 l 201 0 l 94 0 l 171 979 l 260 979 l 786 194 l 849 979 l 956 979 m 789 1274 l 607 1063 l 532 1063 l 383 1274 l 485 1274 l 576 1129 l 686 1274 l 789 1274 z "},"Ņ":{"ha":1026,"x_min":94,"x_max":956,"o":"m 956 979 l 879 0 l 792 0 l 264 788 l 201 0 l 94 0 l 171 979 l 260 979 l 786 194 l 849 979 l 956 979 m 547 -100 l 542 -181 q 518 -278 538 -235 q 457 -360 499 -322 l 408 -322 q 449 -271 436 -296 q 467 -215 463 -246 l 403 -215 l 411 -100 l 547 -100 z "},"Ṅ":{"ha":1026,"x_min":94,"x_max":956,"o":"m 956 979 l 879 0 l 792 0 l 264 788 l 201 0 l 94 0 l 171 979 l 260 979 l 786 194 l 849 979 l 956 979 m 651 1232 l 642 1106 l 504 1106 l 515 1232 l 651 1232 z "},"Ṇ":{"ha":1026,"x_min":94,"x_max":956,"o":"m 956 979 l 879 0 l 792 0 l 264 788 l 201 0 l 94 0 l 171 979 l 260 979 l 786 194 l 849 979 l 956 979 m 542 -131 l 531 -253 l 403 -253 l 414 -131 l 542 -131 z "},"Ŋ":{"ha":1026,"x_min":94,"x_max":956,"o":"m 956 979 l 879 6 q 613 -253 861 -237 l 525 -260 l 522 -167 l 604 -161 q 771 -3 761 -149 l 774 26 l 264 788 l 201 0 l 94 0 l 171 979 l 260 979 l 786 194 l 849 979 l 956 979 z "},"ǋ":{"ha":1349,"x_min":94,"x_max":1306,"o":"m 956 979 l 879 0 l 792 0 l 264 788 l 201 0 l 94 0 l 171 979 l 260 979 l 786 194 l 849 979 l 956 979 m 1218 8 q 1144 -182 1207 -121 q 949 -251 1082 -243 l 886 -256 l 882 -168 l 947 -164 q 1060 -122 1022 -158 q 1104 -8 1099 -85 l 1158 676 l 1271 676 l 1218 8 m 1306 969 l 1296 843 l 1158 843 l 1169 969 l 1306 969 z "},"Ṉ":{"ha":1026,"x_min":94,"x_max":956,"o":"m 956 979 l 879 0 l 792 0 l 264 788 l 201 0 l 94 0 l 171 979 l 260 979 l 786 194 l 849 979 l 956 979 m 268 -151 l 683 -151 l 676 -233 l 261 -233 l 268 -151 z "},"Ñ":{"ha":1026,"x_min":94,"x_max":956,"o":"m 956 979 l 879 0 l 792 0 l 264 788 l 201 0 l 94 0 l 171 979 l 260 979 l 786 194 l 849 979 l 956 979 m 349 1092 q 390 1211 353 1171 q 485 1251 426 1251 q 538 1240 513 1251 q 597 1206 564 1228 q 642 1180 624 1189 q 675 1171 660 1171 q 724 1191 706 1171 q 746 1247 743 1211 l 808 1247 q 767 1128 804 1169 q 671 1088 729 1088 q 619 1099 643 1088 q 558 1133 594 1111 q 515 1159 533 1150 q 482 1168 497 1168 q 432 1148 451 1168 q 410 1092 413 1128 l 349 1092 z "},"O":{"ha":1061,"x_min":96,"x_max":989,"o":"m 532 -12 q 299 43 397 -12 q 149 203 201 99 q 96 449 96 307 q 152 735 96 613 q 312 925 208 858 q 553 992 415 992 q 785 936 688 992 q 936 776 883 881 q 989 529 989 672 q 933 244 989 367 q 773 54 876 121 q 532 -12 669 -12 m 532 86 q 714 140 638 86 q 831 293 790 193 q 872 531 872 393 q 789 799 872 706 q 553 893 706 893 q 371 840 447 893 q 253 686 294 786 q 213 447 213 586 q 296 180 213 274 q 532 86 379 86 z "},"Ó":{"ha":1061,"x_min":96,"x_max":989,"o":"m 532 -12 q 299 43 397 -12 q 149 203 201 99 q 96 449 96 307 q 152 735 96 613 q 312 925 208 858 q 553 992 415 992 q 785 936 688 992 q 936 776 883 881 q 989 529 989 672 q 933 244 989 367 q 773 54 876 121 q 532 -12 669 -12 m 532 86 q 714 140 638 86 q 831 293 790 193 q 872 531 872 393 q 789 799 872 706 q 553 893 706 893 q 371 840 447 893 q 253 686 294 786 q 213 447 213 586 q 296 180 213 274 q 532 86 379 86 m 549 1063 l 701 1274 l 832 1274 l 626 1063 l 549 1063 z "},"Ŏ":{"ha":1061,"x_min":96,"x_max":989,"o":"m 532 -12 q 299 43 397 -12 q 149 203 201 99 q 96 449 96 307 q 152 735 96 613 q 312 925 208 858 q 553 992 415 992 q 785 936 688 992 q 936 776 883 881 q 989 529 989 672 q 933 244 989 367 q 773 54 876 121 q 532 -12 669 -12 m 532 86 q 714 140 638 86 q 831 293 790 193 q 872 531 872 393 q 789 799 872 706 q 553 893 706 893 q 371 840 447 893 q 253 686 294 786 q 213 447 213 586 q 296 180 213 274 q 532 86 379 86 m 592 1079 q 456 1116 515 1079 q 374 1226 397 1153 l 447 1257 q 509 1181 474 1203 q 596 1160 544 1160 q 684 1181 646 1160 q 757 1257 722 1203 l 826 1226 q 729 1115 790 1151 q 592 1079 668 1079 z "},"Ô":{"ha":1061,"x_min":96,"x_max":989,"o":"m 532 -12 q 299 43 397 -12 q 149 203 201 99 q 96 449 96 307 q 152 735 96 613 q 312 925 208 858 q 553 992 415 992 q 785 936 688 992 q 936 776 883 881 q 989 529 989 672 q 933 244 989 367 q 773 54 876 121 q 532 -12 669 -12 m 532 86 q 714 140 638 86 q 831 293 790 193 q 872 531 872 393 q 789 799 872 706 q 553 893 706 893 q 371 840 447 893 q 253 686 294 786 q 213 447 213 586 q 296 180 213 274 q 532 86 379 86 m 385 1063 l 567 1274 l 642 1274 l 790 1063 l 690 1063 l 603 1206 l 488 1063 l 385 1063 z "},"Ố":{"ha":1061,"x_min":96,"x_max":989,"o":"m 532 -12 q 299 43 397 -12 q 149 203 201 99 q 96 449 96 307 q 152 735 96 613 q 312 925 208 858 q 553 992 415 992 q 785 936 688 992 q 936 776 883 881 q 989 529 989 672 q 933 244 989 367 q 773 54 876 121 q 532 -12 669 -12 m 532 86 q 714 140 638 86 q 831 293 790 193 q 872 531 872 393 q 789 799 872 706 q 553 893 706 893 q 371 840 447 893 q 253 686 294 786 q 213 447 213 586 q 296 180 213 274 q 532 86 379 86 m 856 1401 l 979 1401 l 785 1206 l 717 1206 l 856 1401 m 567 1267 l 642 1267 l 790 1063 l 690 1063 l 601 1200 l 488 1063 l 385 1063 l 567 1267 z "},"Ộ":{"ha":1061,"x_min":96,"x_max":989,"o":"m 532 -12 q 299 43 397 -12 q 149 203 201 99 q 96 449 96 307 q 152 735 96 613 q 312 925 208 858 q 553 992 415 992 q 785 936 688 992 q 936 776 883 881 q 989 529 989 672 q 933 244 989 367 q 773 54 876 121 q 532 -12 669 -12 m 532 86 q 714 140 638 86 q 831 293 790 193 q 872 531 872 393 q 789 799 872 706 q 553 893 706 893 q 371 840 447 893 q 253 686 294 786 q 213 447 213 586 q 296 180 213 274 q 532 86 379 86 m 558 -131 l 547 -253 l 419 -253 l 431 -131 l 558 -131 m 385 1063 l 567 1274 l 642 1274 l 790 1063 l 690 1063 l 603 1206 l 488 1063 l 385 1063 z "},"Ồ":{"ha":1061,"x_min":96,"x_max":989,"o":"m 532 -12 q 299 43 397 -12 q 149 203 201 99 q 96 449 96 307 q 152 735 96 613 q 312 925 208 858 q 553 992 415 992 q 785 936 688 992 q 936 776 883 881 q 989 529 989 672 q 933 244 989 367 q 773 54 876 121 q 532 -12 669 -12 m 532 86 q 714 140 638 86 q 831 293 790 193 q 872 531 872 393 q 789 799 872 706 q 553 893 706 893 q 371 840 447 893 q 253 686 294 786 q 213 447 213 586 q 296 180 213 274 q 532 86 379 86 m 639 1401 l 750 1401 l 844 1206 l 775 1206 l 639 1401 m 567 1267 l 642 1267 l 790 1063 l 690 1063 l 601 1200 l 488 1063 l 385 1063 l 567 1267 z "},"Ổ":{"ha":1061,"x_min":96,"x_max":989,"o":"m 532 -12 q 299 43 397 -12 q 149 203 201 99 q 96 449 96 307 q 152 735 96 613 q 312 925 208 858 q 553 992 415 992 q 785 936 688 992 q 936 776 883 881 q 989 529 989 672 q 933 244 989 367 q 773 54 876 121 q 532 -12 669 -12 m 532 86 q 714 140 638 86 q 831 293 790 193 q 872 531 872 393 q 789 799 872 706 q 553 893 706 893 q 371 840 447 893 q 253 686 294 786 q 213 447 213 586 q 296 180 213 274 q 532 86 379 86 m 717 1229 q 735 1267 718 1254 q 781 1292 751 1281 q 809 1306 800 1300 q 818 1321 818 1311 q 804 1337 818 1331 q 768 1343 790 1343 q 676 1326 726 1343 l 661 1388 q 776 1410 717 1410 q 872 1388 836 1410 q 907 1331 907 1365 q 889 1286 907 1301 q 839 1257 871 1271 q 804 1240 817 1249 q 790 1218 792 1232 l 789 1206 l 715 1206 l 717 1229 m 567 1267 l 642 1267 l 790 1063 l 690 1063 l 601 1200 l 488 1063 l 385 1063 l 567 1267 z "},"Ỗ":{"ha":1061,"x_min":96,"x_max":989,"o":"m 532 -12 q 299 43 397 -12 q 149 203 201 99 q 96 449 96 307 q 152 735 96 613 q 312 925 208 858 q 553 992 415 992 q 785 936 688 992 q 936 776 883 881 q 989 529 989 672 q 933 244 989 367 q 773 54 876 121 q 532 -12 669 -12 m 532 86 q 714 140 638 86 q 831 293 790 193 q 872 531 872 393 q 789 799 872 706 q 553 893 706 893 q 371 840 447 893 q 253 686 294 786 q 213 447 213 586 q 296 180 213 274 q 532 86 379 86 m 707 1289 q 653 1297 678 1289 q 590 1322 629 1306 q 546 1342 564 1335 q 511 1349 528 1349 q 464 1331 482 1349 q 443 1288 446 1314 l 382 1288 q 422 1387 385 1350 q 515 1424 460 1424 q 567 1416 544 1424 q 631 1390 590 1408 q 675 1371 657 1378 q 711 1364 693 1364 q 758 1381 740 1364 q 778 1426 776 1399 l 840 1426 q 800 1326 838 1363 q 707 1289 763 1289 m 567 1267 l 642 1267 l 790 1063 l 690 1063 l 601 1200 l 488 1063 l 385 1063 l 567 1267 z "},"Ȍ":{"ha":1061,"x_min":96,"x_max":989,"o":"m 532 -12 q 299 43 397 -12 q 149 203 201 99 q 96 449 96 307 q 152 735 96 613 q 312 925 208 858 q 553 992 415 992 q 785 936 688 992 q 936 776 883 881 q 989 529 989 672 q 933 244 989 367 q 773 54 876 121 q 532 -12 669 -12 m 532 86 q 714 140 638 86 q 831 293 790 193 q 872 531 872 393 q 789 799 872 706 q 553 893 706 893 q 371 840 447 893 q 253 686 294 786 q 213 447 213 586 q 296 180 213 274 q 532 86 379 86 m 357 1274 l 451 1274 l 535 1063 l 474 1063 l 357 1274 m 522 1274 l 617 1274 l 701 1063 l 640 1063 l 522 1274 z "},"Ö":{"ha":1061,"x_min":96,"x_max":989,"o":"m 532 -12 q 299 43 397 -12 q 149 203 201 99 q 96 449 96 307 q 152 735 96 613 q 312 925 208 858 q 553 992 415 992 q 785 936 688 992 q 936 776 883 881 q 989 529 989 672 q 933 244 989 367 q 773 54 876 121 q 532 -12 669 -12 m 532 86 q 714 140 638 86 q 831 293 790 193 q 872 531 872 393 q 789 799 872 706 q 553 893 706 893 q 371 840 447 893 q 253 686 294 786 q 213 447 213 586 q 296 180 213 274 q 532 86 379 86 m 544 1229 l 535 1110 l 411 1110 l 421 1229 l 544 1229 m 782 1229 l 772 1110 l 649 1110 l 658 1229 l 782 1229 z "},"Ȫ":{"ha":1061,"x_min":96,"x_max":989,"o":"m 532 -12 q 299 43 397 -12 q 149 203 201 99 q 96 449 96 307 q 152 735 96 613 q 312 925 208 858 q 553 992 415 992 q 785 936 688 992 q 936 776 883 881 q 989 529 989 672 q 933 244 989 367 q 773 54 876 121 q 532 -12 669 -12 m 532 86 q 714 140 638 86 q 831 293 790 193 q 872 531 872 393 q 789 799 872 706 q 553 893 706 893 q 371 840 447 893 q 253 686 294 786 q 213 447 213 586 q 296 180 213 274 q 532 86 379 86 m 544 1229 l 535 1110 l 411 1110 l 421 1229 l 544 1229 m 782 1229 l 772 1110 l 649 1110 l 658 1229 l 782 1229 m 410 1433 l 825 1433 l 818 1349 l 403 1349 l 410 1433 z "},"Ȱ":{"ha":1061,"x_min":96,"x_max":989,"o":"m 532 -12 q 299 43 397 -12 q 149 203 201 99 q 96 449 96 307 q 152 735 96 613 q 312 925 208 858 q 553 992 415 992 q 785 936 688 992 q 936 776 883 881 q 989 529 989 672 q 933 244 989 367 q 773 54 876 121 q 532 -12 669 -12 m 532 86 q 714 140 638 86 q 831 293 790 193 q 872 531 872 393 q 789 799 872 706 q 553 893 706 893 q 371 840 447 893 q 253 686 294 786 q 213 447 213 586 q 296 180 213 274 q 532 86 379 86 m 669 1232 l 660 1106 l 522 1106 l 533 1232 l 669 1232 m 410 1433 l 825 1433 l 818 1349 l 403 1349 l 410 1433 z "},"Ọ":{"ha":1061,"x_min":96,"x_max":989,"o":"m 532 -12 q 299 43 397 -12 q 149 203 201 99 q 96 449 96 307 q 152 735 96 613 q 312 925 208 858 q 553 992 415 992 q 785 936 688 992 q 936 776 883 881 q 989 529 989 672 q 933 244 989 367 q 773 54 876 121 q 532 -12 669 -12 m 532 86 q 714 140 638 86 q 831 293 790 193 q 872 531 872 393 q 789 799 872 706 q 553 893 706 893 q 371 840 447 893 q 253 686 294 786 q 213 447 213 586 q 296 180 213 274 q 532 86 379 86 m 558 -131 l 547 -253 l 419 -253 l 431 -131 l 558 -131 z "},"Ò":{"ha":1061,"x_min":96,"x_max":989,"o":"m 532 -12 q 299 43 397 -12 q 149 203 201 99 q 96 449 96 307 q 152 735 96 613 q 312 925 208 858 q 553 992 415 992 q 785 936 688 992 q 936 776 883 881 q 989 529 989 672 q 933 244 989 367 q 773 54 876 121 q 532 -12 669 -12 m 532 86 q 714 140 638 86 q 831 293 790 193 q 872 531 872 393 q 789 799 872 706 q 553 893 706 893 q 371 840 447 893 q 253 686 294 786 q 213 447 213 586 q 296 180 213 274 q 532 86 379 86 m 383 1274 l 500 1274 l 626 1063 l 549 1063 l 383 1274 z "},"Ỏ":{"ha":1061,"x_min":96,"x_max":989,"o":"m 532 -12 q 299 43 397 -12 q 149 203 201 99 q 96 449 96 307 q 152 735 96 613 q 312 925 208 858 q 553 992 415 992 q 785 936 688 992 q 936 776 883 881 q 989 529 989 672 q 933 244 989 367 q 773 54 876 121 q 532 -12 669 -12 m 532 86 q 714 140 638 86 q 831 293 790 193 q 872 531 872 393 q 789 799 872 706 q 553 893 706 893 q 371 840 447 893 q 253 686 294 786 q 213 447 213 586 q 296 180 213 274 q 532 86 379 86 m 625 1063 l 551 1063 l 553 1088 q 571 1126 554 1111 q 615 1154 588 1140 q 644 1171 635 1163 q 654 1189 654 1179 q 640 1206 654 1200 q 601 1213 626 1213 q 514 1196 560 1213 l 499 1257 q 611 1279 551 1279 q 708 1257 674 1279 q 743 1197 743 1235 q 725 1151 743 1168 q 674 1119 707 1135 q 638 1098 649 1106 q 626 1076 628 1090 l 625 1063 z "},"Ơ":{"ha":1061,"x_min":96,"x_max":1040,"o":"m 1039 1115 q 978 969 1031 1022 q 828 910 925 915 q 945 759 901 856 q 989 529 989 663 q 933 244 989 367 q 773 54 876 121 q 532 -12 669 -12 q 299 43 397 -12 q 149 203 201 99 q 96 449 96 307 q 153 735 96 613 q 316 925 210 858 q 567 992 422 992 q 665 986 599 992 q 774 979 724 979 q 895 1014 858 979 q 939 1132 932 1049 l 940 1153 l 1040 1153 l 1039 1115 m 872 531 q 789 799 872 706 q 553 893 706 893 q 371 840 447 893 q 253 686 294 786 q 213 447 213 586 q 296 180 213 274 q 532 86 379 86 q 714 140 638 86 q 831 293 790 193 q 872 531 872 393 z "},"Ớ":{"ha":1061,"x_min":96,"x_max":1040,"o":"m 1039 1115 q 978 969 1031 1022 q 828 910 925 915 q 945 759 901 856 q 989 529 989 663 q 933 244 989 367 q 773 54 876 121 q 532 -12 669 -12 q 299 43 397 -12 q 149 203 201 99 q 96 449 96 307 q 153 735 96 613 q 316 925 210 858 q 567 992 422 992 q 665 986 599 992 q 774 979 724 979 q 895 1014 858 979 q 939 1132 932 1049 l 940 1153 l 1040 1153 l 1039 1115 m 872 531 q 789 799 872 706 q 553 893 706 893 q 371 840 447 893 q 253 686 294 786 q 213 447 213 586 q 296 180 213 274 q 532 86 379 86 q 714 140 638 86 q 831 293 790 193 q 872 531 872 393 m 549 1063 l 701 1274 l 832 1274 l 626 1063 l 549 1063 z "},"Ợ":{"ha":1061,"x_min":96,"x_max":1040,"o":"m 1039 1115 q 978 969 1031 1022 q 828 910 925 915 q 945 759 901 856 q 989 529 989 663 q 933 244 989 367 q 773 54 876 121 q 532 -12 669 -12 q 299 43 397 -12 q 149 203 201 99 q 96 449 96 307 q 153 735 96 613 q 316 925 210 858 q 567 992 422 992 q 665 986 599 992 q 774 979 724 979 q 895 1014 858 979 q 939 1132 932 1049 l 940 1153 l 1040 1153 l 1039 1115 m 872 531 q 789 799 872 706 q 553 893 706 893 q 371 840 447 893 q 253 686 294 786 q 213 447 213 586 q 296 180 213 274 q 532 86 379 86 q 714 140 638 86 q 831 293 790 193 q 872 531 872 393 m 560 -131 l 549 -253 l 421 -253 l 432 -131 l 560 -131 z "},"Ờ":{"ha":1061,"x_min":96,"x_max":1040,"o":"m 1039 1115 q 978 969 1031 1022 q 828 910 925 915 q 945 759 901 856 q 989 529 989 663 q 933 244 989 367 q 773 54 876 121 q 532 -12 669 -12 q 299 43 397 -12 q 149 203 201 99 q 96 449 96 307 q 153 735 96 613 q 316 925 210 858 q 567 992 422 992 q 665 986 599 992 q 774 979 724 979 q 895 1014 858 979 q 939 1132 932 1049 l 940 1153 l 1040 1153 l 1039 1115 m 872 531 q 789 799 872 706 q 553 893 706 893 q 371 840 447 893 q 253 686 294 786 q 213 447 213 586 q 296 180 213 274 q 532 86 379 86 q 714 140 638 86 q 831 293 790 193 q 872 531 872 393 m 383 1274 l 500 1274 l 626 1063 l 549 1063 l 383 1274 z "},"Ở":{"ha":1061,"x_min":96,"x_max":1040,"o":"m 1039 1115 q 978 969 1031 1022 q 828 910 925 915 q 945 759 901 856 q 989 529 989 663 q 933 244 989 367 q 773 54 876 121 q 532 -12 669 -12 q 299 43 397 -12 q 149 203 201 99 q 96 449 96 307 q 153 735 96 613 q 316 925 210 858 q 567 992 422 992 q 665 986 599 992 q 774 979 724 979 q 895 1014 858 979 q 939 1132 932 1049 l 940 1153 l 1040 1153 l 1039 1115 m 872 531 q 789 799 872 706 q 553 893 706 893 q 371 840 447 893 q 253 686 294 786 q 213 447 213 586 q 296 180 213 274 q 532 86 379 86 q 714 140 638 86 q 831 293 790 193 q 872 531 872 393 m 625 1063 l 551 1063 l 553 1088 q 571 1126 554 1111 q 615 1154 588 1140 q 644 1171 635 1163 q 654 1189 654 1179 q 640 1206 654 1200 q 601 1213 626 1213 q 514 1196 560 1213 l 499 1257 q 611 1279 551 1279 q 708 1257 674 1279 q 743 1197 743 1235 q 725 1151 743 1168 q 674 1119 707 1135 q 638 1098 649 1106 q 626 1076 628 1090 l 625 1063 z "},"Ỡ":{"ha":1061,"x_min":96,"x_max":1040,"o":"m 1039 1115 q 978 969 1031 1022 q 828 910 925 915 q 945 759 901 856 q 989 529 989 663 q 933 244 989 367 q 773 54 876 121 q 532 -12 669 -12 q 299 43 397 -12 q 149 203 201 99 q 96 449 96 307 q 153 735 96 613 q 316 925 210 858 q 567 992 422 992 q 665 986 599 992 q 774 979 724 979 q 895 1014 858 979 q 939 1132 932 1049 l 940 1153 l 1040 1153 l 1039 1115 m 872 531 q 789 799 872 706 q 553 893 706 893 q 371 840 447 893 q 253 686 294 786 q 213 447 213 586 q 296 180 213 274 q 532 86 379 86 q 714 140 638 86 q 831 293 790 193 q 872 531 872 393 m 367 1092 q 408 1211 371 1171 q 503 1251 444 1251 q 556 1240 531 1251 q 615 1206 582 1228 q 660 1180 642 1189 q 693 1171 678 1171 q 742 1191 724 1171 q 764 1247 761 1211 l 826 1247 q 785 1128 822 1169 q 689 1088 747 1088 q 637 1099 661 1088 q 576 1133 613 1111 q 533 1159 551 1150 q 500 1168 515 1168 q 450 1148 469 1168 q 428 1092 431 1128 l 367 1092 z "},"Ő":{"ha":1061,"x_min":96,"x_max":989,"o":"m 532 -12 q 299 43 397 -12 q 149 203 201 99 q 96 449 96 307 q 152 735 96 613 q 312 925 208 858 q 553 992 415 992 q 785 936 688 992 q 936 776 883 881 q 989 529 989 672 q 933 244 989 367 q 773 54 876 121 q 532 -12 669 -12 m 532 86 q 714 140 638 86 q 831 293 790 193 q 872 531 872 393 q 789 799 872 706 q 553 893 706 893 q 371 840 447 893 q 253 686 294 786 q 213 447 213 586 q 296 180 213 274 q 532 86 379 86 m 474 1063 l 588 1274 l 689 1274 l 535 1063 l 474 1063 m 640 1063 l 753 1274 l 856 1274 l 701 1063 l 640 1063 z "},"Ȏ":{"ha":1061,"x_min":96,"x_max":989,"o":"m 532 -12 q 299 43 397 -12 q 149 203 201 99 q 96 449 96 307 q 152 735 96 613 q 312 925 208 858 q 553 992 415 992 q 785 936 688 992 q 936 776 883 881 q 989 529 989 672 q 933 244 989 367 q 773 54 876 121 q 532 -12 669 -12 m 532 86 q 714 140 638 86 q 831 293 790 193 q 872 531 872 393 q 789 799 872 706 q 553 893 706 893 q 371 840 447 893 q 253 686 294 786 q 213 447 213 586 q 296 180 213 274 q 532 86 379 86 m 600 1258 q 735 1221 676 1258 q 818 1111 794 1183 l 744 1081 q 683 1156 718 1135 q 596 1178 647 1178 q 508 1156 546 1178 q 435 1081 469 1135 l 365 1111 q 463 1222 401 1186 q 600 1258 524 1258 z "},"Ō":{"ha":1061,"x_min":96,"x_max":989,"o":"m 532 -12 q 299 43 397 -12 q 149 203 201 99 q 96 449 96 307 q 152 735 96 613 q 312 925 208 858 q 553 992 415 992 q 785 936 688 992 q 936 776 883 881 q 989 529 989 672 q 933 244 989 367 q 773 54 876 121 q 532 -12 669 -12 m 532 86 q 714 140 638 86 q 831 293 790 193 q 872 531 872 393 q 789 799 872 706 q 553 893 706 893 q 371 840 447 893 q 253 686 294 786 q 213 447 213 586 q 296 180 213 274 q 532 86 379 86 m 392 1211 l 807 1211 l 800 1126 l 385 1126 l 392 1211 z "},"Ṓ":{"ha":1061,"x_min":96,"x_max":989,"o":"m 532 -12 q 299 43 397 -12 q 149 203 201 99 q 96 449 96 307 q 152 735 96 613 q 312 925 208 858 q 553 992 415 992 q 785 936 688 992 q 936 776 883 881 q 989 529 989 672 q 933 244 989 367 q 773 54 876 121 q 532 -12 669 -12 m 532 86 q 714 140 638 86 q 831 293 790 193 q 872 531 872 393 q 789 799 872 706 q 553 893 706 893 q 371 840 447 893 q 253 686 294 786 q 213 447 213 586 q 296 180 213 274 q 532 86 379 86 m 392 1211 l 807 1211 l 800 1126 l 385 1126 l 392 1211 m 567 1285 l 719 1496 l 850 1496 l 644 1285 l 567 1285 z "},"Ṑ":{"ha":1061,"x_min":96,"x_max":989,"o":"m 532 -12 q 299 43 397 -12 q 149 203 201 99 q 96 449 96 307 q 152 735 96 613 q 312 925 208 858 q 553 992 415 992 q 785 936 688 992 q 936 776 883 881 q 989 529 989 672 q 933 244 989 367 q 773 54 876 121 q 532 -12 669 -12 m 532 86 q 714 140 638 86 q 831 293 790 193 q 872 531 872 393 q 789 799 872 706 q 553 893 706 893 q 371 840 447 893 q 253 686 294 786 q 213 447 213 586 q 296 180 213 274 q 532 86 379 86 m 392 1211 l 807 1211 l 800 1126 l 385 1126 l 392 1211 m 401 1496 l 518 1496 l 644 1285 l 567 1285 l 401 1496 z "},"Ǫ":{"ha":1061,"x_min":96,"x_max":989,"o":"m 640 0 q 556 -41 583 -12 q 528 -112 528 -69 q 549 -174 528 -153 q 610 -194 571 -194 q 693 -171 646 -194 l 711 -236 q 594 -268 657 -268 q 480 -229 522 -268 q 438 -128 438 -190 q 489 -10 438 -58 q 280 54 368 -3 q 144 213 192 111 q 96 449 96 314 q 152 735 96 613 q 312 925 208 858 q 553 992 415 992 q 786 936 688 992 q 937 776 885 881 q 989 529 989 672 q 893 173 989 310 q 640 0 797 36 m 213 447 q 296 180 213 274 q 532 86 379 86 q 714 140 638 86 q 831 293 790 193 q 872 531 872 393 q 789 799 872 706 q 553 893 706 893 q 371 840 447 893 q 253 686 294 786 q 213 447 213 586 z "},"Ø":{"ha":1061,"x_min":96,"x_max":989,"o":"m 858 882 q 956 733 922 822 q 989 529 989 643 q 933 244 989 367 q 773 54 876 121 q 532 -12 669 -12 q 300 42 401 -12 l 229 -65 l 153 -17 l 228 96 q 130 245 164 156 q 96 449 96 335 q 152 735 96 613 q 312 925 208 858 q 553 992 415 992 q 785 936 686 992 l 857 1044 l 933 996 l 858 882 m 213 447 q 289 188 213 281 l 728 850 q 553 893 654 893 q 371 840 447 893 q 253 686 294 786 q 213 447 213 586 m 532 86 q 714 140 638 86 q 831 293 790 193 q 872 531 872 393 q 797 790 872 696 l 358 129 q 532 86 428 86 z "},"Ǿ":{"ha":1061,"x_min":96,"x_max":989,"o":"m 858 882 q 956 733 922 822 q 989 529 989 643 q 933 244 989 367 q 773 54 876 121 q 532 -12 669 -12 q 300 42 401 -12 l 229 -65 l 153 -17 l 228 96 q 130 245 164 156 q 96 449 96 335 q 152 735 96 613 q 312 925 208 858 q 553 992 415 992 q 785 936 686 992 l 857 1044 l 933 996 l 858 882 m 213 447 q 289 188 213 281 l 728 850 q 553 893 654 893 q 371 840 447 893 q 253 686 294 786 q 213 447 213 586 m 532 86 q 714 140 638 86 q 831 293 790 193 q 872 531 872 393 q 797 790 872 696 l 358 129 q 532 86 428 86 m 549 1063 l 701 1274 l 832 1274 l 626 1063 l 549 1063 z "},"Õ":{"ha":1061,"x_min":96,"x_max":989,"o":"m 532 -12 q 299 43 397 -12 q 149 203 201 99 q 96 449 96 307 q 152 735 96 613 q 312 925 208 858 q 553 992 415 992 q 785 936 688 992 q 936 776 883 881 q 989 529 989 672 q 933 244 989 367 q 773 54 876 121 q 532 -12 669 -12 m 532 86 q 714 140 638 86 q 831 293 790 193 q 872 531 872 393 q 789 799 872 706 q 553 893 706 893 q 371 840 447 893 q 253 686 294 786 q 213 447 213 586 q 296 180 213 274 q 532 86 379 86 m 367 1092 q 408 1211 371 1171 q 503 1251 444 1251 q 556 1240 531 1251 q 615 1206 582 1228 q 660 1180 642 1189 q 693 1171 678 1171 q 742 1191 724 1171 q 764 1247 761 1211 l 826 1247 q 785 1128 822 1169 q 689 1088 747 1088 q 637 1099 661 1088 q 576 1133 613 1111 q 533 1159 551 1150 q 500 1168 515 1168 q 450 1148 469 1168 q 428 1092 431 1128 l 367 1092 z "},"Ṍ":{"ha":1061,"x_min":96,"x_max":989,"o":"m 532 -12 q 299 43 397 -12 q 149 203 201 99 q 96 449 96 307 q 152 735 96 613 q 312 925 208 858 q 553 992 415 992 q 785 936 688 992 q 936 776 883 881 q 989 529 989 672 q 933 244 989 367 q 773 54 876 121 q 532 -12 669 -12 m 532 86 q 714 140 638 86 q 831 293 790 193 q 872 531 872 393 q 789 799 872 706 q 553 893 706 893 q 371 840 447 893 q 253 686 294 786 q 213 447 213 586 q 296 180 213 274 q 532 86 379 86 m 367 1092 q 408 1211 371 1171 q 503 1251 444 1251 q 556 1240 531 1251 q 615 1206 582 1228 q 660 1180 642 1189 q 693 1171 678 1171 q 742 1191 724 1171 q 764 1247 761 1211 l 826 1247 q 785 1128 822 1169 q 689 1088 747 1088 q 637 1099 661 1088 q 576 1133 613 1111 q 533 1159 551 1150 q 500 1168 515 1168 q 450 1148 469 1168 q 428 1092 431 1128 l 367 1092 m 567 1285 l 719 1496 l 850 1496 l 644 1285 l 567 1285 z "},"Ṏ":{"ha":1061,"x_min":96,"x_max":989,"o":"m 532 -12 q 299 43 397 -12 q 149 203 201 99 q 96 449 96 307 q 152 735 96 613 q 312 925 208 858 q 553 992 415 992 q 785 936 688 992 q 936 776 883 881 q 989 529 989 672 q 933 244 989 367 q 773 54 876 121 q 532 -12 669 -12 m 532 86 q 714 140 638 86 q 831 293 790 193 q 872 531 872 393 q 789 799 872 706 q 553 893 706 893 q 371 840 447 893 q 253 686 294 786 q 213 447 213 586 q 296 180 213 274 q 532 86 379 86 m 367 1092 q 408 1211 371 1171 q 503 1251 444 1251 q 556 1240 531 1251 q 615 1206 582 1228 q 660 1180 642 1189 q 693 1171 678 1171 q 742 1191 724 1171 q 764 1247 761 1211 l 826 1247 q 785 1128 822 1169 q 689 1088 747 1088 q 637 1099 661 1088 q 576 1133 613 1111 q 533 1159 551 1150 q 500 1168 515 1168 q 450 1148 469 1168 q 428 1092 431 1128 l 367 1092 m 563 1451 l 553 1332 l 429 1332 l 439 1451 l 563 1451 m 800 1451 l 790 1332 l 667 1332 l 676 1451 l 800 1451 z "},"Ȭ":{"ha":1061,"x_min":96,"x_max":989,"o":"m 532 -12 q 299 43 397 -12 q 149 203 201 99 q 96 449 96 307 q 152 735 96 613 q 312 925 208 858 q 553 992 415 992 q 785 936 688 992 q 936 776 883 881 q 989 529 989 672 q 933 244 989 367 q 773 54 876 121 q 532 -12 669 -12 m 532 86 q 714 140 638 86 q 831 293 790 193 q 872 531 872 393 q 789 799 872 706 q 553 893 706 893 q 371 840 447 893 q 253 686 294 786 q 213 447 213 586 q 296 180 213 274 q 532 86 379 86 m 367 1092 q 408 1211 371 1171 q 503 1251 444 1251 q 556 1240 531 1251 q 615 1206 582 1228 q 660 1180 642 1189 q 693 1171 678 1171 q 742 1191 724 1171 q 764 1247 761 1211 l 826 1247 q 785 1128 822 1169 q 689 1088 747 1088 q 637 1099 661 1088 q 576 1133 613 1111 q 533 1159 551 1150 q 500 1168 515 1168 q 450 1148 469 1168 q 428 1092 431 1128 l 367 1092 m 410 1433 l 825 1433 l 818 1349 l 403 1349 l 410 1433 z "},"Œ":{"ha":1451,"x_min":96,"x_max":1435,"o":"m 919 885 l 893 544 l 1372 544 l 1364 450 l 885 450 l 857 94 l 1365 94 l 1357 0 l 556 0 q 215 118 335 0 q 96 450 96 236 q 154 734 96 615 q 325 916 213 853 q 596 979 438 979 l 1435 979 l 1428 885 l 919 885 m 807 885 l 601 885 q 311 772 410 885 q 213 449 213 660 q 301 185 213 275 q 564 94 389 94 l 744 94 l 807 885 z "},"P":{"ha":896,"x_min":94,"x_max":863,"o":"m 550 979 q 781 907 700 979 q 863 710 863 835 q 771 480 863 558 q 515 401 679 401 l 240 401 l 208 0 l 94 0 l 171 979 l 550 979 m 510 496 q 750 704 750 496 q 540 885 750 885 l 278 885 l 247 496 l 510 496 z "},"Þ":{"ha":896,"x_min":94,"x_max":846,"o":"m 550 764 q 769 700 692 764 q 846 514 846 636 q 762 306 846 381 q 519 232 678 232 l 225 232 l 207 0 l 94 0 l 171 979 l 283 979 l 267 764 l 550 764 m 514 325 q 735 508 735 325 q 686 631 735 592 q 540 669 638 669 l 260 669 l 232 325 l 514 325 z "},"Q":{"ha":1061,"x_min":96,"x_max":989,"o":"m 688 15 q 732 -18 713 4 q 772 -78 751 -40 l 853 -228 l 753 -278 l 651 -90 q 504 -11 610 -14 q 289 49 381 -7 q 147 207 197 104 q 96 449 96 310 q 152 735 96 613 q 312 925 208 858 q 553 992 415 992 q 786 936 688 992 q 937 776 885 881 q 989 529 989 672 q 910 201 989 338 q 688 15 832 65 m 213 447 q 296 180 213 274 q 532 86 379 86 q 714 140 638 86 q 831 293 790 193 q 872 531 872 393 q 789 799 872 706 q 553 893 706 893 q 371 840 447 893 q 253 686 294 786 q 213 447 213 586 z "},"R":{"ha":953,"x_min":94,"x_max":882,"o":"m 615 426 q 672 390 649 415 q 717 319 696 364 l 865 0 l 740 0 l 597 314 q 533 392 572 371 q 422 414 493 414 l 239 414 l 207 0 l 94 0 l 171 979 l 571 979 q 801 912 721 979 q 882 718 882 844 q 815 518 882 593 q 615 426 747 443 m 533 508 q 712 558 653 508 q 771 711 771 608 q 719 842 771 800 q 563 885 667 885 l 276 885 l 247 508 l 533 508 z "},"Ŕ":{"ha":953,"x_min":94,"x_max":882,"o":"m 615 426 q 672 390 649 415 q 717 319 696 364 l 865 0 l 740 0 l 597 314 q 533 392 572 371 q 422 414 493 414 l 239 414 l 207 0 l 94 0 l 171 979 l 571 979 q 801 912 721 979 q 882 718 882 844 q 815 518 882 593 q 615 426 747 443 m 533 508 q 712 558 653 508 q 771 711 771 608 q 719 842 771 800 q 563 885 667 885 l 276 885 l 247 508 l 533 508 m 492 1063 l 644 1274 l 775 1274 l 569 1063 l 492 1063 z "},"Ř":{"ha":953,"x_min":94,"x_max":882,"o":"m 615 426 q 672 390 649 415 q 717 319 696 364 l 865 0 l 740 0 l 597 314 q 533 392 572 371 q 422 414 493 414 l 239 414 l 207 0 l 94 0 l 171 979 l 571 979 q 801 912 721 979 q 882 718 882 844 q 815 518 882 593 q 615 426 747 443 m 533 508 q 712 558 653 508 q 771 711 771 608 q 719 842 771 800 q 563 885 667 885 l 276 885 l 247 508 l 533 508 m 750 1274 l 568 1063 l 493 1063 l 344 1274 l 446 1274 l 538 1129 l 647 1274 l 750 1274 z "},"Ŗ":{"ha":953,"x_min":94,"x_max":882,"o":"m 615 426 q 672 390 649 415 q 717 319 696 364 l 865 0 l 740 0 l 597 314 q 533 392 572 371 q 422 414 493 414 l 239 414 l 207 0 l 94 0 l 171 979 l 571 979 q 801 912 721 979 q 882 718 882 844 q 815 518 882 593 q 615 426 747 443 m 533 508 q 712 558 653 508 q 771 711 771 608 q 719 842 771 800 q 563 885 667 885 l 276 885 l 247 508 l 533 508 m 507 -100 l 501 -181 q 478 -278 497 -235 q 417 -360 458 -322 l 368 -322 q 409 -271 396 -296 q 426 -215 422 -246 l 363 -215 l 371 -100 l 507 -100 z "},"Ȑ":{"ha":953,"x_min":94,"x_max":882,"o":"m 615 426 q 672 390 649 415 q 717 319 696 364 l 865 0 l 740 0 l 597 314 q 533 392 572 371 q 422 414 493 414 l 239 414 l 207 0 l 94 0 l 171 979 l 571 979 q 801 912 721 979 q 882 718 882 844 q 815 518 882 593 q 615 426 747 443 m 533 508 q 712 558 653 508 q 771 711 771 608 q 719 842 771 800 q 563 885 667 885 l 276 885 l 247 508 l 533 508 m 300 1274 l 394 1274 l 478 1063 l 417 1063 l 300 1274 m 465 1274 l 560 1274 l 644 1063 l 583 1063 l 465 1274 z "},"Ṛ":{"ha":953,"x_min":94,"x_max":882,"o":"m 615 426 q 672 390 649 415 q 717 319 696 364 l 865 0 l 740 0 l 597 314 q 533 392 572 371 q 422 414 493 414 l 239 414 l 207 0 l 94 0 l 171 979 l 571 979 q 801 912 721 979 q 882 718 882 844 q 815 518 882 593 q 615 426 747 443 m 533 508 q 712 558 653 508 q 771 711 771 608 q 719 842 771 800 q 563 885 667 885 l 276 885 l 247 508 l 533 508 m 501 -131 l 490 -253 l 363 -253 l 374 -131 l 501 -131 z "},"Ȓ":{"ha":953,"x_min":94,"x_max":882,"o":"m 615 426 q 672 390 649 415 q 717 319 696 364 l 865 0 l 740 0 l 597 314 q 533 392 572 371 q 422 414 493 414 l 239 414 l 207 0 l 94 0 l 171 979 l 571 979 q 801 912 721 979 q 882 718 882 844 q 815 518 882 593 q 615 426 747 443 m 533 508 q 712 558 653 508 q 771 711 771 608 q 719 842 771 800 q 563 885 667 885 l 276 885 l 247 508 l 533 508 m 543 1258 q 678 1221 619 1258 q 761 1111 738 1183 l 688 1081 q 626 1156 661 1135 q 539 1178 590 1178 q 451 1156 489 1178 q 378 1081 413 1135 l 308 1111 q 406 1222 344 1186 q 543 1258 467 1258 z "},"Ṟ":{"ha":953,"x_min":94,"x_max":882,"o":"m 615 426 q 672 390 649 415 q 717 319 696 364 l 865 0 l 740 0 l 597 314 q 533 392 572 371 q 422 414 493 414 l 239 414 l 207 0 l 94 0 l 171 979 l 571 979 q 801 912 721 979 q 882 718 882 844 q 815 518 882 593 q 615 426 747 443 m 533 508 q 712 558 653 508 q 771 711 771 608 q 719 842 771 800 q 563 885 667 885 l 276 885 l 247 508 l 533 508 m 228 -151 l 643 -151 l 636 -233 l 221 -233 l 228 -151 z "},"S":{"ha":857,"x_min":49,"x_max":821,"o":"m 422 -11 q 215 19 307 -11 q 49 113 124 50 l 99 200 q 251 112 174 139 q 425 85 328 85 q 608 129 544 85 q 672 254 672 174 q 641 336 672 304 q 563 387 610 368 q 433 429 515 406 q 267 486 331 458 q 158 569 203 514 q 113 713 113 624 q 157 859 113 796 q 284 956 201 922 q 476 990 367 990 q 669 958 579 990 q 821 867 758 926 l 769 779 q 475 894 639 894 q 292 848 356 894 q 228 718 228 801 q 261 628 228 663 q 344 573 294 593 q 481 526 393 553 q 642 471 581 497 q 745 394 703 444 q 788 263 788 344 q 690 63 788 136 q 422 -11 592 -11 z "},"Ś":{"ha":857,"x_min":49,"x_max":821,"o":"m 422 -11 q 215 19 307 -11 q 49 113 124 50 l 99 200 q 251 112 174 139 q 425 85 328 85 q 608 129 544 85 q 672 254 672 174 q 641 336 672 304 q 563 387 610 368 q 433 429 515 406 q 267 486 331 458 q 158 569 203 514 q 113 713 113 624 q 157 859 113 796 q 284 956 201 922 q 476 990 367 990 q 669 958 579 990 q 821 867 758 926 l 769 779 q 475 894 639 894 q 292 848 356 894 q 228 718 228 801 q 261 628 228 663 q 344 573 294 593 q 481 526 393 553 q 642 471 581 497 q 745 394 703 444 q 788 263 788 344 q 690 63 788 136 q 422 -11 592 -11 m 447 1063 l 600 1274 l 731 1274 l 525 1063 l 447 1063 z "},"Ṥ":{"ha":857,"x_min":49,"x_max":821,"o":"m 422 -11 q 215 19 307 -11 q 49 113 124 50 l 99 200 q 251 112 174 139 q 425 85 328 85 q 608 129 544 85 q 672 254 672 174 q 641 336 672 304 q 563 387 610 368 q 433 429 515 406 q 267 486 331 458 q 158 569 203 514 q 113 713 113 624 q 157 859 113 796 q 284 956 201 922 q 476 990 367 990 q 669 958 579 990 q 821 867 758 926 l 769 779 q 475 894 639 894 q 292 848 356 894 q 228 718 228 801 q 261 628 228 663 q 344 573 294 593 q 481 526 393 553 q 642 471 581 497 q 745 394 703 444 q 788 263 788 344 q 690 63 788 136 q 422 -11 592 -11 m 458 1063 l 611 1274 l 742 1274 l 536 1063 l 458 1063 m 413 1272 l 403 1146 l 265 1146 l 276 1272 l 413 1272 z "},"Š":{"ha":857,"x_min":49,"x_max":821,"o":"m 422 -11 q 215 19 307 -11 q 49 113 124 50 l 99 200 q 251 112 174 139 q 425 85 328 85 q 608 129 544 85 q 672 254 672 174 q 641 336 672 304 q 563 387 610 368 q 433 429 515 406 q 267 486 331 458 q 158 569 203 514 q 113 713 113 624 q 157 859 113 796 q 284 956 201 922 q 476 990 367 990 q 669 958 579 990 q 821 867 758 926 l 769 779 q 475 894 639 894 q 292 848 356 894 q 228 718 228 801 q 261 628 228 663 q 344 573 294 593 q 481 526 393 553 q 642 471 581 497 q 745 394 703 444 q 788 263 788 344 q 690 63 788 136 q 422 -11 592 -11 m 706 1274 l 524 1063 l 449 1063 l 300 1274 l 401 1274 l 493 1129 l 603 1274 l 706 1274 z "},"Ṧ":{"ha":857,"x_min":49,"x_max":821,"o":"m 422 -11 q 215 19 307 -11 q 49 113 124 50 l 99 200 q 251 112 174 139 q 425 85 328 85 q 608 129 544 85 q 672 254 672 174 q 641 336 672 304 q 563 387 610 368 q 433 429 515 406 q 267 486 331 458 q 158 569 203 514 q 113 713 113 624 q 157 859 113 796 q 284 956 201 922 q 476 990 367 990 q 669 958 579 990 q 821 867 758 926 l 769 779 q 475 894 639 894 q 292 848 356 894 q 228 718 228 801 q 261 628 228 663 q 344 573 294 593 q 481 526 393 553 q 642 471 581 497 q 745 394 703 444 q 788 263 788 344 q 690 63 788 136 q 422 -11 592 -11 m 706 1274 l 524 1063 l 449 1063 l 300 1274 l 401 1274 l 493 1129 l 603 1274 l 706 1274 m 586 1454 l 576 1328 l 439 1328 l 450 1454 l 586 1454 z "},"Ş":{"ha":857,"x_min":49,"x_max":821,"o":"m 228 718 q 261 628 228 663 q 344 573 294 593 q 481 526 393 553 q 642 471 581 497 q 745 394 703 444 q 788 263 788 344 q 692 65 788 138 q 432 -11 597 -8 l 422 -58 q 449 -57 431 -57 q 524 -81 496 -57 q 553 -150 553 -106 q 510 -235 553 -203 q 390 -268 467 -268 q 325 -261 360 -268 q 265 -242 290 -254 l 285 -182 q 390 -201 339 -201 q 449 -189 428 -201 q 469 -153 469 -176 q 457 -125 469 -135 q 421 -115 444 -115 q 360 -128 392 -115 l 335 -106 l 354 -8 q 49 113 174 8 l 99 200 q 251 112 174 139 q 425 85 328 85 q 608 129 544 85 q 672 254 672 174 q 641 336 672 304 q 563 387 610 368 q 433 429 515 406 q 267 486 331 458 q 158 569 203 514 q 113 713 113 624 q 157 859 113 796 q 284 956 201 922 q 476 990 367 990 q 669 958 579 990 q 821 867 758 926 l 769 779 q 475 894 639 894 q 292 848 356 894 q 228 718 228 801 z "},"Ŝ":{"ha":857,"x_min":49,"x_max":821,"o":"m 422 -11 q 215 19 307 -11 q 49 113 124 50 l 99 200 q 251 112 174 139 q 425 85 328 85 q 608 129 544 85 q 672 254 672 174 q 641 336 672 304 q 563 387 610 368 q 433 429 515 406 q 267 486 331 458 q 158 569 203 514 q 113 713 113 624 q 157 859 113 796 q 284 956 201 922 q 476 990 367 990 q 669 958 579 990 q 821 867 758 926 l 769 779 q 475 894 639 894 q 292 848 356 894 q 228 718 228 801 q 261 628 228 663 q 344 573 294 593 q 481 526 393 553 q 642 471 581 497 q 745 394 703 444 q 788 263 788 344 q 690 63 788 136 q 422 -11 592 -11 m 283 1063 l 465 1274 l 540 1274 l 689 1063 l 589 1063 l 501 1206 l 386 1063 l 283 1063 z "},"Ș":{"ha":857,"x_min":49,"x_max":821,"o":"m 422 -11 q 215 19 307 -11 q 49 113 124 50 l 99 200 q 251 112 174 139 q 425 85 328 85 q 608 129 544 85 q 672 254 672 174 q 641 336 672 304 q 563 387 610 368 q 433 429 515 406 q 267 486 331 458 q 158 569 203 514 q 113 713 113 624 q 157 859 113 796 q 284 956 201 922 q 476 990 367 990 q 669 958 579 990 q 821 867 758 926 l 769 779 q 475 894 639 894 q 292 848 356 894 q 228 718 228 801 q 261 628 228 663 q 344 573 294 593 q 481 526 393 553 q 642 471 581 497 q 745 394 703 444 q 788 263 788 344 q 690 63 788 136 q 422 -11 592 -11 m 467 -100 l 461 -181 q 438 -278 457 -235 q 376 -360 418 -322 l 328 -322 q 369 -271 356 -296 q 386 -215 382 -246 l 322 -215 l 331 -100 l 467 -100 z "},"Ṡ":{"ha":857,"x_min":49,"x_max":821,"o":"m 422 -11 q 215 19 307 -11 q 49 113 124 50 l 99 200 q 251 112 174 139 q 425 85 328 85 q 608 129 544 85 q 672 254 672 174 q 641 336 672 304 q 563 387 610 368 q 433 429 515 406 q 267 486 331 458 q 158 569 203 514 q 113 713 113 624 q 157 859 113 796 q 284 956 201 922 q 476 990 367 990 q 669 958 579 990 q 821 867 758 926 l 769 779 q 475 894 639 894 q 292 848 356 894 q 228 718 228 801 q 261 628 228 663 q 344 573 294 593 q 481 526 393 553 q 642 471 581 497 q 745 394 703 444 q 788 263 788 344 q 690 63 788 136 q 422 -11 592 -11 m 568 1232 l 558 1106 l 421 1106 l 432 1232 l 568 1232 z "},"Ṣ":{"ha":857,"x_min":49,"x_max":821,"o":"m 422 -11 q 215 19 307 -11 q 49 113 124 50 l 99 200 q 251 112 174 139 q 425 85 328 85 q 608 129 544 85 q 672 254 672 174 q 641 336 672 304 q 563 387 610 368 q 433 429 515 406 q 267 486 331 458 q 158 569 203 514 q 113 713 113 624 q 157 859 113 796 q 284 956 201 922 q 476 990 367 990 q 669 958 579 990 q 821 867 758 926 l 769 779 q 475 894 639 894 q 292 848 356 894 q 228 718 228 801 q 261 628 228 663 q 344 573 294 593 q 481 526 393 553 q 642 471 581 497 q 745 394 703 444 q 788 263 788 344 q 690 63 788 136 q 422 -11 592 -11 m 461 -131 l 450 -253 l 322 -253 l 333 -131 l 461 -131 z "},"Ṩ":{"ha":857,"x_min":49,"x_max":821,"o":"m 422 -11 q 215 19 307 -11 q 49 113 124 50 l 99 200 q 251 112 174 139 q 425 85 328 85 q 608 129 544 85 q 672 254 672 174 q 641 336 672 304 q 563 387 610 368 q 433 429 515 406 q 267 486 331 458 q 158 569 203 514 q 113 713 113 624 q 157 859 113 796 q 284 956 201 922 q 476 990 367 990 q 669 958 579 990 q 821 867 758 926 l 769 779 q 475 894 639 894 q 292 848 356 894 q 228 718 228 801 q 261 628 228 663 q 344 573 294 593 q 481 526 393 553 q 642 471 581 497 q 745 394 703 444 q 788 263 788 344 q 690 63 788 136 q 422 -11 592 -11 m 461 -131 l 450 -253 l 322 -253 l 333 -131 l 461 -131 m 568 1232 l 558 1106 l 421 1106 l 432 1232 l 568 1232 z "},"ẞ":{"ha":956,"x_min":93,"x_max":871,"o":"m 683 510 q 822 432 774 490 q 871 285 871 374 q 831 132 871 199 q 717 28 790 65 q 551 -10 644 -10 q 297 79 406 -10 l 343 167 q 546 86 446 86 q 702 138 646 86 q 758 286 758 190 q 703 408 758 368 q 538 449 649 449 l 363 449 l 369 544 l 510 544 q 671 594 614 544 q 728 736 728 644 q 674 850 728 808 q 528 892 619 892 q 331 829 396 892 q 256 633 267 767 l 206 0 l 93 0 l 144 642 q 256 901 158 814 q 532 989 354 989 q 757 923 674 989 q 840 743 840 857 q 800 598 840 658 q 683 510 760 538 z "},"Ə":{"ha":1031,"x_min":94,"x_max":958,"o":"m 533 990 q 758 935 663 990 q 906 775 854 879 q 958 529 958 671 q 902 244 958 365 q 741 56 846 122 q 496 -11 636 -11 q 278 43 368 -11 q 141 195 188 97 q 94 424 94 293 q 97 492 94 468 l 101 544 l 842 544 q 754 803 839 713 q 517 893 669 893 q 355 865 429 892 q 211 779 281 838 l 175 867 q 533 990 311 990 m 497 86 q 731 181 642 86 q 838 449 819 276 l 211 449 q 210 411 210 436 q 283 172 210 257 q 497 86 357 86 z "},"T":{"ha":831,"x_min":60,"x_max":864,"o":"m 401 882 l 60 882 l 68 979 l 864 979 l 857 882 l 515 882 l 446 0 l 331 0 l 401 882 z "},"Ŧ":{"ha":831,"x_min":60,"x_max":864,"o":"m 515 882 l 489 543 l 686 543 l 679 450 l 482 450 l 446 0 l 331 0 l 367 450 l 168 450 l 176 543 l 374 543 l 401 882 l 60 882 l 68 979 l 864 979 l 857 882 l 515 882 z "},"Ť":{"ha":831,"x_min":60,"x_max":864,"o":"m 401 882 l 60 882 l 68 979 l 864 979 l 857 882 l 515 882 l 446 0 l 331 0 l 401 882 m 692 1274 l 510 1063 l 435 1063 l 286 1274 l 388 1274 l 479 1129 l 589 1274 l 692 1274 z "},"Ţ":{"ha":831,"x_min":60,"x_max":864,"o":"m 415 0 l 404 -58 q 431 -57 413 -57 q 506 -81 478 -57 q 535 -150 535 -106 q 492 -235 535 -203 q 372 -268 449 -268 q 307 -261 342 -268 q 247 -242 272 -254 l 267 -182 q 372 -201 321 -201 q 431 -189 410 -201 q 451 -153 451 -176 q 439 -125 451 -135 q 403 -115 426 -115 q 342 -128 374 -115 l 317 -106 l 338 0 l 331 0 l 401 882 l 60 882 l 68 979 l 864 979 l 857 882 l 515 882 l 446 0 l 415 0 z "},"Ț":{"ha":831,"x_min":60,"x_max":864,"o":"m 401 882 l 60 882 l 68 979 l 864 979 l 857 882 l 515 882 l 446 0 l 331 0 l 401 882 m 449 -100 l 443 -181 q 419 -278 439 -235 q 358 -360 400 -322 l 310 -322 q 351 -271 338 -296 q 368 -215 364 -246 l 304 -215 l 313 -100 l 449 -100 z "},"Ṭ":{"ha":831,"x_min":60,"x_max":864,"o":"m 401 882 l 60 882 l 68 979 l 864 979 l 857 882 l 515 882 l 446 0 l 331 0 l 401 882 m 443 -131 l 432 -253 l 304 -253 l 315 -131 l 443 -131 z "},"Ṯ":{"ha":831,"x_min":60,"x_max":864,"o":"m 401 882 l 60 882 l 68 979 l 864 979 l 857 882 l 515 882 l 446 0 l 331 0 l 401 882 m 169 -151 l 585 -151 l 578 -233 l 163 -233 l 169 -151 z "},"U":{"ha":1006,"x_min":115,"x_max":942,"o":"m 485 -11 q 208 78 301 -11 q 115 335 115 167 q 117 386 115 368 l 164 979 l 276 979 l 231 388 q 229 343 229 372 q 293 150 229 214 q 488 86 357 86 q 697 156 624 86 q 781 371 771 225 l 828 979 l 942 979 l 894 382 q 776 87 879 185 q 485 -11 672 -11 z "},"Ú":{"ha":1006,"x_min":115,"x_max":942,"o":"m 485 -11 q 208 78 301 -11 q 115 335 115 167 q 117 386 115 368 l 164 979 l 276 979 l 231 388 q 229 343 229 372 q 293 150 229 214 q 488 86 357 86 q 697 156 624 86 q 781 371 771 225 l 828 979 l 942 979 l 894 382 q 776 87 879 185 q 485 -11 672 -11 m 521 1063 l 674 1274 l 804 1274 l 599 1063 l 521 1063 z "},"Ŭ":{"ha":1006,"x_min":115,"x_max":942,"o":"m 485 -11 q 208 78 301 -11 q 115 335 115 167 q 117 386 115 368 l 164 979 l 276 979 l 231 388 q 229 343 229 372 q 293 150 229 214 q 488 86 357 86 q 697 156 624 86 q 781 371 771 225 l 828 979 l 942 979 l 894 382 q 776 87 879 185 q 485 -11 672 -11 m 564 1079 q 428 1116 488 1079 q 346 1226 369 1153 l 419 1257 q 481 1181 446 1203 q 568 1160 517 1160 q 656 1181 618 1160 q 729 1257 694 1203 l 799 1226 q 701 1115 763 1151 q 564 1079 640 1079 z "},"Û":{"ha":1006,"x_min":115,"x_max":942,"o":"m 485 -11 q 208 78 301 -11 q 115 335 115 167 q 117 386 115 368 l 164 979 l 276 979 l 231 388 q 229 343 229 372 q 293 150 229 214 q 488 86 357 86 q 697 156 624 86 q 781 371 771 225 l 828 979 l 942 979 l 894 382 q 776 87 879 185 q 485 -11 672 -11 m 357 1063 l 539 1274 l 614 1274 l 763 1063 l 663 1063 l 575 1206 l 460 1063 l 357 1063 z "},"Ȕ":{"ha":1006,"x_min":115,"x_max":942,"o":"m 485 -11 q 208 78 301 -11 q 115 335 115 167 q 117 386 115 368 l 164 979 l 276 979 l 231 388 q 229 343 229 372 q 293 150 229 214 q 488 86 357 86 q 697 156 624 86 q 781 371 771 225 l 828 979 l 942 979 l 894 382 q 776 87 879 185 q 485 -11 672 -11 m 329 1274 l 424 1274 l 507 1063 l 446 1063 l 329 1274 m 494 1274 l 589 1274 l 674 1063 l 613 1063 l 494 1274 z "},"Ü":{"ha":1006,"x_min":115,"x_max":942,"o":"m 485 -11 q 208 78 301 -11 q 115 335 115 167 q 117 386 115 368 l 164 979 l 276 979 l 231 388 q 229 343 229 372 q 293 150 229 214 q 488 86 357 86 q 697 156 624 86 q 781 371 771 225 l 828 979 l 942 979 l 894 382 q 776 87 879 185 q 485 -11 672 -11 m 517 1229 l 507 1110 l 383 1110 l 393 1229 l 517 1229 m 754 1229 l 744 1110 l 621 1110 l 631 1229 l 754 1229 z "},"Ụ":{"ha":1006,"x_min":115,"x_max":942,"o":"m 485 -11 q 208 78 301 -11 q 115 335 115 167 q 117 386 115 368 l 164 979 l 276 979 l 231 388 q 229 343 229 372 q 293 150 229 214 q 488 86 357 86 q 697 156 624 86 q 781 371 771 225 l 828 979 l 942 979 l 894 382 q 776 87 879 185 q 485 -11 672 -11 m 531 -131 l 519 -253 l 392 -253 l 403 -131 l 531 -131 z "},"Ù":{"ha":1006,"x_min":115,"x_max":942,"o":"m 485 -11 q 208 78 301 -11 q 115 335 115 167 q 117 386 115 368 l 164 979 l 276 979 l 231 388 q 229 343 229 372 q 293 150 229 214 q 488 86 357 86 q 697 156 624 86 q 781 371 771 225 l 828 979 l 942 979 l 894 382 q 776 87 879 185 q 485 -11 672 -11 m 356 1274 l 472 1274 l 599 1063 l 521 1063 l 356 1274 z "},"Ủ":{"ha":1006,"x_min":115,"x_max":942,"o":"m 485 -11 q 208 78 301 -11 q 115 335 115 167 q 117 386 115 368 l 164 979 l 276 979 l 231 388 q 229 343 229 372 q 293 150 229 214 q 488 86 357 86 q 697 156 624 86 q 781 371 771 225 l 828 979 l 942 979 l 894 382 q 776 87 879 185 q 485 -11 672 -11 m 597 1063 l 524 1063 l 525 1088 q 543 1126 526 1111 q 588 1154 560 1140 q 617 1171 607 1163 q 626 1189 626 1179 q 613 1206 626 1200 q 574 1213 599 1213 q 486 1196 532 1213 l 471 1257 q 583 1279 524 1279 q 681 1257 646 1279 q 715 1197 715 1235 q 697 1151 715 1168 q 646 1119 679 1135 q 610 1098 621 1106 q 599 1076 600 1090 l 597 1063 z "},"Ư":{"ha":1006,"x_min":115,"x_max":1118,"o":"m 1118 1153 l 1117 1115 q 1063 981 1110 1033 q 938 914 1017 928 l 894 382 q 776 87 879 185 q 485 -11 672 -11 q 208 78 301 -11 q 115 335 115 167 q 117 386 115 368 l 164 979 l 276 979 l 231 388 q 229 343 229 372 q 293 150 229 214 q 488 86 357 86 q 697 156 624 86 q 781 371 771 225 l 828 979 l 861 979 q 975 1015 939 981 q 1017 1132 1011 1050 l 1018 1153 l 1118 1153 z "},"Ứ":{"ha":1006,"x_min":115,"x_max":1118,"o":"m 1118 1153 l 1117 1115 q 1063 981 1110 1033 q 938 914 1017 928 l 894 382 q 776 87 879 185 q 485 -11 672 -11 q 208 78 301 -11 q 115 335 115 167 q 117 386 115 368 l 164 979 l 276 979 l 231 388 q 229 343 229 372 q 293 150 229 214 q 488 86 357 86 q 697 156 624 86 q 781 371 771 225 l 828 979 l 861 979 q 975 1015 939 981 q 1017 1132 1011 1050 l 1018 1153 l 1118 1153 m 521 1063 l 674 1274 l 804 1274 l 599 1063 l 521 1063 z "},"Ự":{"ha":1006,"x_min":115,"x_max":1118,"o":"m 1118 1153 l 1117 1115 q 1063 981 1110 1033 q 938 914 1017 928 l 894 382 q 776 87 879 185 q 485 -11 672 -11 q 208 78 301 -11 q 115 335 115 167 q 117 386 115 368 l 164 979 l 276 979 l 231 388 q 229 343 229 372 q 293 150 229 214 q 488 86 357 86 q 697 156 624 86 q 781 371 771 225 l 828 979 l 861 979 q 975 1015 939 981 q 1017 1132 1011 1050 l 1018 1153 l 1118 1153 m 531 -131 l 519 -253 l 392 -253 l 403 -131 l 531 -131 z "},"Ừ":{"ha":1006,"x_min":115,"x_max":1118,"o":"m 1118 1153 l 1117 1115 q 1063 981 1110 1033 q 938 914 1017 928 l 894 382 q 776 87 879 185 q 485 -11 672 -11 q 208 78 301 -11 q 115 335 115 167 q 117 386 115 368 l 164 979 l 276 979 l 231 388 q 229 343 229 372 q 293 150 229 214 q 488 86 357 86 q 697 156 624 86 q 781 371 771 225 l 828 979 l 861 979 q 975 1015 939 981 q 1017 1132 1011 1050 l 1018 1153 l 1118 1153 m 356 1274 l 472 1274 l 599 1063 l 521 1063 l 356 1274 z "},"Ử":{"ha":1006,"x_min":115,"x_max":1118,"o":"m 1118 1153 l 1117 1115 q 1063 981 1110 1033 q 938 914 1017 928 l 894 382 q 776 87 879 185 q 485 -11 672 -11 q 208 78 301 -11 q 115 335 115 167 q 117 386 115 368 l 164 979 l 276 979 l 231 388 q 229 343 229 372 q 293 150 229 214 q 488 86 357 86 q 697 156 624 86 q 781 371 771 225 l 828 979 l 861 979 q 975 1015 939 981 q 1017 1132 1011 1050 l 1018 1153 l 1118 1153 m 597 1063 l 524 1063 l 525 1088 q 543 1126 526 1111 q 588 1154 560 1140 q 617 1171 607 1163 q 626 1189 626 1179 q 613 1206 626 1200 q 574 1213 599 1213 q 486 1196 532 1213 l 471 1257 q 583 1279 524 1279 q 681 1257 646 1279 q 715 1197 715 1235 q 697 1151 715 1168 q 646 1119 679 1135 q 610 1098 621 1106 q 599 1076 600 1090 l 597 1063 z "},"Ữ":{"ha":1006,"x_min":115,"x_max":1118,"o":"m 1118 1153 l 1117 1115 q 1063 981 1110 1033 q 938 914 1017 928 l 894 382 q 776 87 879 185 q 485 -11 672 -11 q 208 78 301 -11 q 115 335 115 167 q 117 386 115 368 l 164 979 l 276 979 l 231 388 q 229 343 229 372 q 293 150 229 214 q 488 86 357 86 q 697 156 624 86 q 781 371 771 225 l 828 979 l 861 979 q 975 1015 939 981 q 1017 1132 1011 1050 l 1018 1153 l 1118 1153 m 339 1092 q 380 1211 343 1171 q 475 1251 417 1251 q 528 1240 503 1251 q 588 1206 554 1228 q 632 1180 614 1189 q 665 1171 650 1171 q 715 1191 696 1171 q 736 1247 733 1211 l 799 1247 q 757 1128 794 1169 q 661 1088 719 1088 q 609 1099 633 1088 q 549 1133 585 1111 q 506 1159 524 1150 q 472 1168 488 1168 q 422 1148 442 1168 q 400 1092 403 1128 l 339 1092 z "},"Ű":{"ha":1006,"x_min":115,"x_max":942,"o":"m 485 -11 q 208 78 301 -11 q 115 335 115 167 q 117 386 115 368 l 164 979 l 276 979 l 231 388 q 229 343 229 372 q 293 150 229 214 q 488 86 357 86 q 697 156 624 86 q 781 371 771 225 l 828 979 l 942 979 l 894 382 q 776 87 879 185 q 485 -11 672 -11 m 446 1063 l 560 1274 l 661 1274 l 507 1063 l 446 1063 m 613 1063 l 725 1274 l 828 1274 l 674 1063 l 613 1063 z "},"Ȗ":{"ha":1006,"x_min":115,"x_max":942,"o":"m 485 -11 q 208 78 301 -11 q 115 335 115 167 q 117 386 115 368 l 164 979 l 276 979 l 231 388 q 229 343 229 372 q 293 150 229 214 q 488 86 357 86 q 697 156 624 86 q 781 371 771 225 l 828 979 l 942 979 l 894 382 q 776 87 879 185 q 485 -11 672 -11 m 572 1258 q 708 1221 649 1258 q 790 1111 767 1183 l 717 1081 q 655 1156 690 1135 q 568 1178 619 1178 q 480 1156 518 1178 q 407 1081 442 1135 l 338 1111 q 435 1222 374 1186 q 572 1258 496 1258 z "},"Ū":{"ha":1006,"x_min":115,"x_max":942,"o":"m 485 -11 q 208 78 301 -11 q 115 335 115 167 q 117 386 115 368 l 164 979 l 276 979 l 231 388 q 229 343 229 372 q 293 150 229 214 q 488 86 357 86 q 697 156 624 86 q 781 371 771 225 l 828 979 l 942 979 l 894 382 q 776 87 879 185 q 485 -11 672 -11 m 364 1211 l 779 1211 l 772 1126 l 357 1126 l 364 1211 z "},"Ṻ":{"ha":1006,"x_min":115,"x_max":942,"o":"m 485 -11 q 208 78 301 -11 q 115 335 115 167 q 117 386 115 368 l 164 979 l 276 979 l 231 388 q 229 343 229 372 q 293 150 229 214 q 488 86 357 86 q 697 156 624 86 q 781 371 771 225 l 828 979 l 942 979 l 894 382 q 776 87 879 185 q 485 -11 672 -11 m 364 1211 l 779 1211 l 772 1126 l 357 1126 l 364 1211 m 535 1451 l 525 1332 l 401 1332 l 411 1451 l 535 1451 m 772 1451 l 763 1332 l 639 1332 l 649 1451 l 772 1451 z "},"Ų":{"ha":1006,"x_min":115,"x_max":942,"o":"m 942 979 l 894 382 q 628 6 871 72 q 538 -40 568 -11 q 508 -112 508 -68 q 530 -174 508 -153 q 592 -194 551 -194 q 674 -171 626 -194 l 692 -236 q 638 -259 669 -250 q 575 -268 606 -268 q 462 -230 504 -268 q 419 -131 419 -192 q 478 -11 419 -54 q 207 78 299 -10 q 115 335 115 167 q 117 386 115 368 l 164 979 l 276 979 l 231 388 q 229 343 229 372 q 293 150 229 214 q 488 86 357 86 q 697 156 624 86 q 781 371 771 225 l 828 979 l 942 979 z "},"Ů":{"ha":1006,"x_min":115,"x_max":942,"o":"m 485 -11 q 208 78 301 -11 q 115 335 115 167 q 117 386 115 368 l 164 979 l 276 979 l 231 388 q 229 343 229 372 q 293 150 229 214 q 488 86 357 86 q 697 156 624 86 q 781 371 771 225 l 828 979 l 942 979 l 894 382 q 776 87 879 185 q 485 -11 672 -11 m 569 1056 q 470 1095 511 1056 q 429 1193 429 1135 q 470 1291 429 1251 q 569 1331 511 1331 q 669 1291 628 1331 q 710 1193 710 1251 q 669 1095 710 1135 q 569 1056 628 1056 m 569 1124 q 617 1144 599 1124 q 636 1193 636 1164 q 617 1242 636 1222 q 569 1263 599 1263 q 522 1242 540 1263 q 503 1193 503 1222 q 522 1144 503 1164 q 569 1124 540 1124 z "},"Ũ":{"ha":1006,"x_min":115,"x_max":942,"o":"m 485 -11 q 208 78 301 -11 q 115 335 115 167 q 117 386 115 368 l 164 979 l 276 979 l 231 388 q 229 343 229 372 q 293 150 229 214 q 488 86 357 86 q 697 156 624 86 q 781 371 771 225 l 828 979 l 942 979 l 894 382 q 776 87 879 185 q 485 -11 672 -11 m 339 1092 q 380 1211 343 1171 q 475 1251 417 1251 q 528 1240 503 1251 q 588 1206 554 1228 q 632 1180 614 1189 q 665 1171 650 1171 q 715 1191 696 1171 q 736 1247 733 1211 l 799 1247 q 757 1128 794 1169 q 661 1088 719 1088 q 609 1099 633 1088 q 549 1133 585 1111 q 506 1159 524 1150 q 472 1168 488 1168 q 422 1148 442 1168 q 400 1092 403 1128 l 339 1092 z "},"Ṹ":{"ha":1006,"x_min":115,"x_max":942,"o":"m 485 -11 q 208 78 301 -11 q 115 335 115 167 q 117 386 115 368 l 164 979 l 276 979 l 231 388 q 229 343 229 372 q 293 150 229 214 q 488 86 357 86 q 697 156 624 86 q 781 371 771 225 l 828 979 l 942 979 l 894 382 q 776 87 879 185 q 485 -11 672 -11 m 339 1092 q 380 1211 343 1171 q 475 1251 417 1251 q 528 1240 503 1251 q 588 1206 554 1228 q 632 1180 614 1189 q 665 1171 650 1171 q 715 1191 696 1171 q 736 1247 733 1211 l 799 1247 q 757 1128 794 1169 q 661 1088 719 1088 q 609 1099 633 1088 q 549 1133 585 1111 q 506 1159 524 1150 q 472 1168 488 1168 q 422 1148 442 1168 q 400 1092 403 1128 l 339 1092 m 539 1285 l 692 1496 l 822 1496 l 617 1285 l 539 1285 z "},"V":{"ha":960,"x_min":53,"x_max":1007,"o":"m 1007 979 l 503 0 l 404 0 l 53 979 l 172 979 l 465 143 l 889 979 l 1007 979 z "},"W":{"ha":1529,"x_min":96,"x_max":1532,"o":"m 1532 979 l 1114 0 l 1017 0 l 801 800 l 458 0 l 363 0 l 96 979 l 211 979 l 425 161 l 774 979 l 860 978 l 1075 160 l 1421 979 l 1532 979 z "},"Ẃ":{"ha":1529,"x_min":96,"x_max":1532,"o":"m 1532 979 l 1114 0 l 1017 0 l 801 800 l 458 0 l 363 0 l 96 979 l 211 979 l 425 161 l 774 979 l 860 978 l 1075 160 l 1421 979 l 1532 979 m 782 1063 l 935 1274 l 1065 1274 l 860 1063 l 782 1063 z "},"Ŵ":{"ha":1529,"x_min":96,"x_max":1532,"o":"m 1532 979 l 1114 0 l 1017 0 l 801 800 l 458 0 l 363 0 l 96 979 l 211 979 l 425 161 l 774 979 l 860 978 l 1075 160 l 1421 979 l 1532 979 m 618 1063 l 800 1274 l 875 1274 l 1024 1063 l 924 1063 l 836 1206 l 721 1063 l 618 1063 z "},"Ẅ":{"ha":1529,"x_min":96,"x_max":1532,"o":"m 1532 979 l 1114 0 l 1017 0 l 801 800 l 458 0 l 363 0 l 96 979 l 211 979 l 425 161 l 774 979 l 860 978 l 1075 160 l 1421 979 l 1532 979 m 778 1229 l 768 1110 l 644 1110 l 654 1229 l 778 1229 m 1015 1229 l 1006 1110 l 882 1110 l 892 1229 l 1015 1229 z "},"Ẁ":{"ha":1529,"x_min":96,"x_max":1532,"o":"m 1532 979 l 1114 0 l 1017 0 l 801 800 l 458 0 l 363 0 l 96 979 l 211 979 l 425 161 l 774 979 l 860 978 l 1075 160 l 1421 979 l 1532 979 m 617 1274 l 733 1274 l 860 1063 l 782 1063 l 617 1274 z "},"X":{"ha":897,"x_min":-15,"x_max":919,"o":"m 526 499 l 860 0 l 726 0 l 457 414 l 121 0 l -15 0 l 397 503 l 79 979 l 213 979 l 468 589 l 782 979 l 919 979 l 526 499 z "},"Y":{"ha":835,"x_min":25,"x_max":908,"o":"m 483 464 l 447 0 l 333 0 l 369 463 l 25 979 l 154 979 l 432 558 l 776 979 l 908 979 l 483 464 z "},"Ý":{"ha":835,"x_min":25,"x_max":908,"o":"m 483 464 l 447 0 l 333 0 l 369 463 l 25 979 l 154 979 l 432 558 l 776 979 l 908 979 l 483 464 m 435 1063 l 588 1274 l 718 1274 l 513 1063 l 435 1063 z "},"Ŷ":{"ha":835,"x_min":25,"x_max":908,"o":"m 483 464 l 447 0 l 333 0 l 369 463 l 25 979 l 154 979 l 432 558 l 776 979 l 908 979 l 483 464 m 271 1063 l 453 1274 l 528 1274 l 676 1063 l 576 1063 l 489 1206 l 374 1063 l 271 1063 z "},"Ÿ":{"ha":835,"x_min":25,"x_max":908,"o":"m 483 464 l 447 0 l 333 0 l 369 463 l 25 979 l 154 979 l 432 558 l 776 979 l 908 979 l 483 464 m 431 1229 l 421 1110 l 297 1110 l 307 1229 l 431 1229 m 668 1229 l 658 1110 l 535 1110 l 544 1229 l 668 1229 z "},"Ẏ":{"ha":835,"x_min":25,"x_max":908,"o":"m 483 464 l 447 0 l 333 0 l 369 463 l 25 979 l 154 979 l 432 558 l 776 979 l 908 979 l 483 464 m 556 1232 l 546 1106 l 408 1106 l 419 1232 l 556 1232 z "},"Ỵ":{"ha":835,"x_min":25,"x_max":908,"o":"m 483 464 l 447 0 l 333 0 l 369 463 l 25 979 l 154 979 l 432 558 l 776 979 l 908 979 l 483 464 m 444 -131 l 433 -253 l 306 -253 l 317 -131 l 444 -131 z "},"Ỳ":{"ha":835,"x_min":25,"x_max":908,"o":"m 483 464 l 447 0 l 333 0 l 369 463 l 25 979 l 154 979 l 432 558 l 776 979 l 908 979 l 483 464 m 269 1274 l 386 1274 l 513 1063 l 435 1063 l 269 1274 z "},"Ỷ":{"ha":835,"x_min":25,"x_max":908,"o":"m 483 464 l 447 0 l 333 0 l 369 463 l 25 979 l 154 979 l 432 558 l 776 979 l 908 979 l 483 464 m 511 1063 l 438 1063 l 439 1088 q 457 1126 440 1111 q 501 1154 474 1140 q 531 1171 521 1163 q 540 1189 540 1179 q 526 1206 540 1200 q 488 1213 513 1213 q 400 1196 446 1213 l 385 1257 q 497 1279 438 1279 q 594 1257 560 1279 q 629 1197 629 1235 q 611 1151 629 1168 q 560 1119 593 1135 q 524 1098 535 1106 q 513 1076 514 1090 l 511 1063 z "},"Ȳ":{"ha":835,"x_min":25,"x_max":908,"o":"m 483 464 l 447 0 l 333 0 l 369 463 l 25 979 l 154 979 l 432 558 l 776 979 l 908 979 l 483 464 m 278 1211 l 693 1211 l 686 1126 l 271 1126 l 278 1211 z "},"Ỹ":{"ha":835,"x_min":25,"x_max":908,"o":"m 483 464 l 447 0 l 333 0 l 369 463 l 25 979 l 154 979 l 432 558 l 776 979 l 908 979 l 483 464 m 253 1092 q 294 1211 257 1171 q 389 1251 331 1251 q 442 1240 417 1251 q 501 1206 468 1228 q 546 1180 528 1189 q 579 1171 564 1171 q 628 1191 610 1171 q 650 1247 647 1211 l 713 1247 q 671 1128 708 1169 q 575 1088 633 1088 q 523 1099 547 1088 q 463 1133 499 1111 q 419 1159 438 1150 q 386 1168 401 1168 q 336 1148 356 1168 q 314 1092 317 1128 l 253 1092 z "},"Z":{"ha":819,"x_min":36,"x_max":804,"o":"m 797 896 l 179 96 l 750 96 l 742 0 l 36 0 l 42 85 l 660 883 l 106 883 l 114 979 l 804 979 l 797 896 z "},"Ź":{"ha":819,"x_min":36,"x_max":804,"o":"m 797 896 l 179 96 l 750 96 l 742 0 l 36 0 l 42 85 l 660 883 l 106 883 l 114 979 l 804 979 l 797 896 m 428 1063 l 581 1274 l 711 1274 l 506 1063 l 428 1063 z "},"Ž":{"ha":819,"x_min":36,"x_max":804,"o":"m 797 896 l 179 96 l 750 96 l 742 0 l 36 0 l 42 85 l 660 883 l 106 883 l 114 979 l 804 979 l 797 896 m 686 1274 l 504 1063 l 429 1063 l 281 1274 l 382 1274 l 474 1129 l 583 1274 l 686 1274 z "},"Ż":{"ha":819,"x_min":36,"x_max":804,"o":"m 797 896 l 179 96 l 750 96 l 742 0 l 36 0 l 42 85 l 660 883 l 106 883 l 114 979 l 804 979 l 797 896 m 549 1232 l 539 1106 l 401 1106 l 413 1232 l 549 1232 z "},"Ẓ":{"ha":819,"x_min":36,"x_max":804,"o":"m 797 896 l 179 96 l 750 96 l 742 0 l 36 0 l 42 85 l 660 883 l 106 883 l 114 979 l 804 979 l 797 896 m 443 -131 l 432 -253 l 304 -253 l 315 -131 l 443 -131 z "},"a":{"ha":736,"x_min":71,"x_max":643,"o":"m 403 693 q 643 463 643 693 q 642 424 643 438 l 608 0 l 499 0 l 507 108 q 423 20 476 50 q 301 -10 369 -10 q 135 45 200 -10 q 71 185 71 100 q 111 306 71 261 q 240 372 151 351 q 481 393 329 393 l 531 393 l 533 433 l 535 460 q 500 566 535 532 q 390 600 465 600 q 161 528 276 600 l 131 611 q 257 670 182 647 q 403 693 332 693 m 325 79 q 460 135 404 79 q 521 278 515 190 l 524 321 l 485 321 q 298 308 363 321 q 209 268 233 294 q 185 194 185 242 q 222 110 185 142 q 325 79 260 79 z "},"á":{"ha":736,"x_min":71,"x_max":667,"o":"m 403 693 q 643 463 643 693 q 642 424 643 438 l 608 0 l 499 0 l 507 108 q 423 20 476 50 q 301 -10 369 -10 q 135 45 200 -10 q 71 185 71 100 q 111 306 71 261 q 240 372 151 351 q 481 393 329 393 l 531 393 l 533 433 l 535 460 q 500 566 535 532 q 390 600 465 600 q 161 528 276 600 l 131 611 q 257 670 182 647 q 403 693 332 693 m 325 79 q 460 135 404 79 q 521 278 515 190 l 524 321 l 485 321 q 298 308 363 321 q 209 268 233 294 q 185 194 185 242 q 222 110 185 142 q 325 79 260 79 m 375 765 l 532 1046 l 667 1046 l 453 765 l 375 765 z "},"ă":{"ha":736,"x_min":71,"x_max":660,"o":"m 403 693 q 643 463 643 693 q 642 424 643 438 l 608 0 l 499 0 l 507 108 q 423 20 476 50 q 301 -10 369 -10 q 135 45 200 -10 q 71 185 71 100 q 111 306 71 261 q 240 372 151 351 q 481 393 329 393 l 531 393 l 533 433 l 535 460 q 500 566 535 532 q 390 600 465 600 q 161 528 276 600 l 131 611 q 257 670 182 647 q 403 693 332 693 m 325 79 q 460 135 404 79 q 521 278 515 190 l 524 321 l 485 321 q 298 308 363 321 q 209 268 233 294 q 185 194 185 242 q 222 110 185 142 q 325 79 260 79 m 419 807 q 285 851 343 807 q 203 983 226 894 l 275 1013 q 425 890 322 890 q 516 918 475 890 q 592 1013 557 946 l 660 983 q 561 850 625 893 q 419 807 497 807 z "},"ắ":{"ha":736,"x_min":71,"x_max":664,"o":"m 403 693 q 643 463 643 693 q 642 424 643 438 l 608 0 l 499 0 l 507 108 q 423 20 476 50 q 301 -10 369 -10 q 135 45 200 -10 q 71 185 71 100 q 111 306 71 261 q 240 372 151 351 q 481 393 329 393 l 531 393 l 533 433 l 535 460 q 500 566 535 532 q 390 600 465 600 q 161 528 276 600 l 131 611 q 257 670 182 647 q 403 693 332 693 m 325 79 q 460 135 404 79 q 521 278 515 190 l 524 321 l 485 321 q 298 308 363 321 q 209 268 233 294 q 185 194 185 242 q 222 110 185 142 q 325 79 260 79 m 389 908 l 538 1106 l 664 1106 l 463 908 l 389 908 m 417 758 q 283 795 340 758 q 199 906 225 832 l 267 933 q 331 857 293 879 q 422 835 369 835 q 513 857 472 835 q 588 933 553 879 l 651 906 q 553 794 615 829 q 417 758 492 758 z "},"ặ":{"ha":736,"x_min":71,"x_max":660,"o":"m 403 693 q 643 463 643 693 q 642 424 643 438 l 608 0 l 499 0 l 507 108 q 423 20 476 50 q 301 -10 369 -10 q 135 45 200 -10 q 71 185 71 100 q 111 306 71 261 q 240 372 151 351 q 481 393 329 393 l 531 393 l 533 433 l 535 460 q 500 566 535 532 q 390 600 465 600 q 161 528 276 600 l 131 611 q 257 670 182 647 q 403 693 332 693 m 325 79 q 460 135 404 79 q 521 278 515 190 l 524 321 l 485 321 q 298 308 363 321 q 209 268 233 294 q 185 194 185 242 q 222 110 185 142 q 325 79 260 79 m 404 -131 l 393 -253 l 265 -253 l 276 -131 l 404 -131 m 419 807 q 285 851 343 807 q 203 983 226 894 l 275 1013 q 425 890 322 890 q 516 918 475 890 q 592 1013 557 946 l 660 983 q 561 850 625 893 q 419 807 497 807 z "},"ằ":{"ha":736,"x_min":71,"x_max":651,"o":"m 403 693 q 643 463 643 693 q 642 424 643 438 l 608 0 l 499 0 l 507 108 q 423 20 476 50 q 301 -10 369 -10 q 135 45 200 -10 q 71 185 71 100 q 111 306 71 261 q 240 372 151 351 q 481 393 329 393 l 531 393 l 533 433 l 535 460 q 500 566 535 532 q 390 600 465 600 q 161 528 276 600 l 131 611 q 257 670 182 647 q 403 693 332 693 m 325 79 q 460 135 404 79 q 521 278 515 190 l 524 321 l 485 321 q 298 308 363 321 q 209 268 233 294 q 185 194 185 242 q 222 110 185 142 q 325 79 260 79 m 224 1106 l 336 1106 l 463 908 l 389 908 l 224 1106 m 417 758 q 283 795 340 758 q 199 906 225 832 l 267 933 q 331 857 293 879 q 422 835 369 835 q 513 857 472 835 q 588 933 553 879 l 651 906 q 553 794 615 829 q 417 758 492 758 z "},"ẳ":{"ha":736,"x_min":71,"x_max":651,"o":"m 403 693 q 643 463 643 693 q 642 424 643 438 l 608 0 l 499 0 l 507 108 q 423 20 476 50 q 301 -10 369 -10 q 135 45 200 -10 q 71 185 71 100 q 111 306 71 261 q 240 372 151 351 q 481 393 329 393 l 531 393 l 533 433 l 535 460 q 500 566 535 532 q 390 600 465 600 q 161 528 276 600 l 131 611 q 257 670 182 647 q 403 693 332 693 m 325 79 q 460 135 404 79 q 521 278 515 190 l 524 321 l 485 321 q 298 308 363 321 q 209 268 233 294 q 185 194 185 242 q 222 110 185 142 q 325 79 260 79 m 390 932 q 409 969 392 957 q 456 994 426 982 q 483 1008 475 1003 q 492 1024 492 1014 q 442 1046 492 1046 q 350 1031 401 1046 l 336 1090 q 450 1113 392 1113 q 546 1090 511 1113 q 581 1033 581 1068 q 563 989 581 1004 q 513 960 544 974 q 478 943 490 951 q 464 921 465 935 l 463 908 l 389 908 l 390 932 m 417 758 q 283 795 340 758 q 199 906 225 832 l 267 933 q 331 857 293 879 q 422 835 369 835 q 513 857 472 835 q 588 933 553 879 l 651 906 q 553 794 615 829 q 417 758 492 758 z "},"ẵ":{"ha":736,"x_min":71,"x_max":665,"o":"m 403 693 q 643 463 643 693 q 642 424 643 438 l 608 0 l 499 0 l 507 108 q 423 20 476 50 q 301 -10 369 -10 q 135 45 200 -10 q 71 185 71 100 q 111 306 71 261 q 240 372 151 351 q 481 393 329 393 l 531 393 l 533 433 l 535 460 q 500 566 535 532 q 390 600 465 600 q 161 528 276 600 l 131 611 q 257 670 182 647 q 403 693 332 693 m 325 79 q 460 135 404 79 q 521 278 515 190 l 524 321 l 485 321 q 298 308 363 321 q 209 268 233 294 q 185 194 185 242 q 222 110 185 142 q 325 79 260 79 m 532 969 q 478 980 504 969 q 418 1010 453 990 q 372 1034 389 1026 q 338 1042 354 1042 q 290 1024 308 1042 q 269 974 271 1006 l 207 974 q 247 1079 210 1042 q 340 1117 285 1117 q 394 1106 368 1117 q 454 1076 419 1096 q 501 1053 482 1061 q 536 1044 519 1044 q 583 1063 565 1044 q 603 1113 601 1081 l 665 1113 q 625 1007 663 1044 q 532 969 588 969 m 417 758 q 283 795 340 758 q 199 906 225 832 l 267 933 q 331 857 293 879 q 422 835 369 835 q 513 857 472 835 q 588 933 553 879 l 651 906 q 553 794 615 829 q 417 758 492 758 z "},"ǎ":{"ha":736,"x_min":71,"x_max":643,"o":"m 403 693 q 643 463 643 693 q 642 424 643 438 l 608 0 l 499 0 l 507 108 q 423 20 476 50 q 301 -10 369 -10 q 135 45 200 -10 q 71 185 71 100 q 111 306 71 261 q 240 372 151 351 q 481 393 329 393 l 531 393 l 533 433 l 535 460 q 500 566 535 532 q 390 600 465 600 q 161 528 276 600 l 131 611 q 257 670 182 647 q 403 693 332 693 m 325 79 q 460 135 404 79 q 521 278 515 190 l 524 321 l 485 321 q 298 308 363 321 q 209 268 233 294 q 185 194 185 242 q 222 110 185 142 q 325 79 260 79 m 639 1046 l 454 765 l 375 765 l 233 1046 l 335 1046 l 419 847 l 533 1046 l 639 1046 z "},"â":{"ha":736,"x_min":71,"x_max":643,"o":"m 403 693 q 643 463 643 693 q 642 424 643 438 l 608 0 l 499 0 l 507 108 q 423 20 476 50 q 301 -10 369 -10 q 135 45 200 -10 q 71 185 71 100 q 111 306 71 261 q 240 372 151 351 q 481 393 329 393 l 531 393 l 533 433 l 535 460 q 500 566 535 532 q 390 600 465 600 q 161 528 276 600 l 131 611 q 257 670 182 647 q 403 693 332 693 m 325 79 q 460 135 404 79 q 521 278 515 190 l 524 321 l 485 321 q 298 308 363 321 q 209 268 233 294 q 185 194 185 242 q 222 110 185 142 q 325 79 260 79 m 211 765 l 397 1046 l 476 1046 l 617 765 l 517 765 l 431 964 l 317 765 l 211 765 z "},"ấ":{"ha":736,"x_min":71,"x_max":806,"o":"m 403 693 q 643 463 643 693 q 642 424 643 438 l 608 0 l 499 0 l 507 108 q 423 20 476 50 q 301 -10 369 -10 q 135 45 200 -10 q 71 185 71 100 q 111 306 71 261 q 240 372 151 351 q 481 393 329 393 l 531 393 l 533 433 l 535 460 q 500 566 535 532 q 390 600 465 600 q 161 528 276 600 l 131 611 q 257 670 182 647 q 403 693 332 693 m 325 79 q 460 135 404 79 q 521 278 515 190 l 524 321 l 485 321 q 298 308 363 321 q 209 268 233 294 q 185 194 185 242 q 222 110 185 142 q 325 79 260 79 m 543 908 l 682 1106 l 806 1106 l 611 908 l 543 908 m 211 765 l 393 969 l 468 969 l 617 765 l 518 765 l 428 903 l 314 765 l 211 765 z "},"ậ":{"ha":736,"x_min":71,"x_max":643,"o":"m 403 693 q 643 463 643 693 q 642 424 643 438 l 608 0 l 499 0 l 507 108 q 423 20 476 50 q 301 -10 369 -10 q 135 45 200 -10 q 71 185 71 100 q 111 306 71 261 q 240 372 151 351 q 481 393 329 393 l 531 393 l 533 433 l 535 460 q 500 566 535 532 q 390 600 465 600 q 161 528 276 600 l 131 611 q 257 670 182 647 q 403 693 332 693 m 325 79 q 460 135 404 79 q 521 278 515 190 l 524 321 l 485 321 q 298 308 363 321 q 209 268 233 294 q 185 194 185 242 q 222 110 185 142 q 325 79 260 79 m 404 -131 l 393 -253 l 265 -253 l 276 -131 l 404 -131 m 211 765 l 397 1046 l 476 1046 l 617 765 l 517 765 l 431 964 l 317 765 l 211 765 z "},"ầ":{"ha":736,"x_min":71,"x_max":671,"o":"m 403 693 q 643 463 643 693 q 642 424 643 438 l 608 0 l 499 0 l 507 108 q 423 20 476 50 q 301 -10 369 -10 q 135 45 200 -10 q 71 185 71 100 q 111 306 71 261 q 240 372 151 351 q 481 393 329 393 l 531 393 l 533 433 l 535 460 q 500 566 535 532 q 390 600 465 600 q 161 528 276 600 l 131 611 q 257 670 182 647 q 403 693 332 693 m 325 79 q 460 135 404 79 q 521 278 515 190 l 524 321 l 485 321 q 298 308 363 321 q 209 268 233 294 q 185 194 185 242 q 222 110 185 142 q 325 79 260 79 m 465 1106 l 576 1106 l 671 908 l 603 908 l 465 1106 m 393 969 l 468 969 l 617 765 l 518 765 l 428 903 l 314 765 l 211 765 l 393 969 z "},"ẩ":{"ha":736,"x_min":71,"x_max":733,"o":"m 403 693 q 643 463 643 693 q 642 424 643 438 l 608 0 l 499 0 l 507 108 q 423 20 476 50 q 301 -10 369 -10 q 135 45 200 -10 q 71 185 71 100 q 111 306 71 261 q 240 372 151 351 q 481 393 329 393 l 531 393 l 533 433 l 535 460 q 500 566 535 532 q 390 600 465 600 q 161 528 276 600 l 131 611 q 257 670 182 647 q 403 693 332 693 m 325 79 q 460 135 404 79 q 521 278 515 190 l 524 321 l 485 321 q 298 308 363 321 q 209 268 233 294 q 185 194 185 242 q 222 110 185 142 q 325 79 260 79 m 543 932 q 562 970 544 957 q 608 994 579 983 q 636 1008 628 1003 q 644 1024 644 1014 q 594 1046 644 1046 q 503 1031 554 1046 l 489 1090 q 603 1113 544 1113 q 699 1090 664 1113 q 733 1033 733 1068 q 715 989 733 1004 q 665 960 697 974 q 631 943 643 951 q 617 921 618 935 l 615 908 l 542 908 l 543 932 m 393 969 l 468 969 l 617 765 l 518 765 l 428 903 l 314 765 l 211 765 l 393 969 z "},"ẫ":{"ha":736,"x_min":71,"x_max":667,"o":"m 403 693 q 643 463 643 693 q 642 424 643 438 l 608 0 l 499 0 l 507 108 q 423 20 476 50 q 301 -10 369 -10 q 135 45 200 -10 q 71 185 71 100 q 111 306 71 261 q 240 372 151 351 q 481 393 329 393 l 531 393 l 533 433 l 535 460 q 500 566 535 532 q 390 600 465 600 q 161 528 276 600 l 131 611 q 257 670 182 647 q 403 693 332 693 m 325 79 q 460 135 404 79 q 521 278 515 190 l 524 321 l 485 321 q 298 308 363 321 q 209 268 233 294 q 185 194 185 242 q 222 110 185 142 q 325 79 260 79 m 208 990 q 249 1091 211 1054 q 342 1128 286 1128 q 395 1119 371 1128 q 458 1094 419 1111 q 503 1075 485 1082 q 538 1068 521 1068 q 585 1085 567 1068 q 604 1129 603 1101 l 667 1129 q 627 1030 665 1067 q 533 993 589 993 q 481 1001 504 993 q 418 1026 458 1008 q 374 1046 392 1039 q 338 1053 356 1053 q 290 1035 308 1053 q 271 990 272 1017 l 208 990 m 393 969 l 468 969 l 617 765 l 518 765 l 428 903 l 314 765 l 211 765 l 393 969 z "},"ȁ":{"ha":736,"x_min":71,"x_max":643,"o":"m 403 693 q 643 463 643 693 q 642 424 643 438 l 608 0 l 499 0 l 507 108 q 423 20 476 50 q 301 -10 369 -10 q 135 45 200 -10 q 71 185 71 100 q 111 306 71 261 q 240 372 151 351 q 481 393 329 393 l 531 393 l 533 433 l 535 460 q 500 566 535 532 q 390 600 465 600 q 161 528 276 600 l 131 611 q 257 670 182 647 q 403 693 332 693 m 325 79 q 460 135 404 79 q 521 278 515 190 l 524 321 l 485 321 q 298 308 363 321 q 209 268 233 294 q 185 194 185 242 q 222 110 185 142 q 325 79 260 79 m 217 1046 l 317 1046 l 358 765 l 301 765 l 217 1046 m 385 1046 l 483 1046 l 526 765 l 469 765 l 385 1046 z "},"ä":{"ha":736,"x_min":71,"x_max":643,"o":"m 403 693 q 643 463 643 693 q 642 424 643 438 l 608 0 l 499 0 l 507 108 q 423 20 476 50 q 301 -10 369 -10 q 135 45 200 -10 q 71 185 71 100 q 111 306 71 261 q 240 372 151 351 q 481 393 329 393 l 531 393 l 533 433 l 535 460 q 500 566 535 532 q 390 600 465 600 q 161 528 276 600 l 131 611 q 257 670 182 647 q 403 693 332 693 m 325 79 q 460 135 404 79 q 521 278 515 190 l 524 321 l 485 321 q 298 308 363 321 q 209 268 233 294 q 185 194 185 242 q 222 110 185 142 q 325 79 260 79 m 374 965 l 364 847 l 240 847 l 250 965 l 374 965 m 611 965 l 601 847 l 478 847 l 488 965 l 611 965 z "},"ȧ":{"ha":736,"x_min":71,"x_max":643,"o":"m 403 693 q 643 463 643 693 q 642 424 643 438 l 608 0 l 499 0 l 507 108 q 423 20 476 50 q 301 -10 369 -10 q 135 45 200 -10 q 71 185 71 100 q 111 306 71 261 q 240 372 151 351 q 481 393 329 393 l 531 393 l 533 433 l 535 460 q 500 566 535 532 q 390 600 465 600 q 161 528 276 600 l 131 611 q 257 670 182 647 q 403 693 332 693 m 325 79 q 460 135 404 79 q 521 278 515 190 l 524 321 l 485 321 q 298 308 363 321 q 209 268 233 294 q 185 194 185 242 q 222 110 185 142 q 325 79 260 79 m 499 969 l 489 843 l 351 843 l 363 969 l 499 969 z "},"ạ":{"ha":736,"x_min":71,"x_max":643,"o":"m 403 693 q 643 463 643 693 q 642 424 643 438 l 608 0 l 499 0 l 507 108 q 423 20 476 50 q 301 -10 369 -10 q 135 45 200 -10 q 71 185 71 100 q 111 306 71 261 q 240 372 151 351 q 481 393 329 393 l 531 393 l 533 433 l 535 460 q 500 566 535 532 q 390 600 465 600 q 161 528 276 600 l 131 611 q 257 670 182 647 q 403 693 332 693 m 325 79 q 460 135 404 79 q 521 278 515 190 l 524 321 l 485 321 q 298 308 363 321 q 209 268 233 294 q 185 194 185 242 q 222 110 185 142 q 325 79 260 79 m 404 -131 l 393 -253 l 265 -253 l 276 -131 l 404 -131 z "},"à":{"ha":736,"x_min":71,"x_max":643,"o":"m 403 693 q 643 463 643 693 q 642 424 643 438 l 608 0 l 499 0 l 507 108 q 423 20 476 50 q 301 -10 369 -10 q 135 45 200 -10 q 71 185 71 100 q 111 306 71 261 q 240 372 151 351 q 481 393 329 393 l 531 393 l 533 433 l 535 460 q 500 566 535 532 q 390 600 465 600 q 161 528 276 600 l 131 611 q 257 670 182 647 q 403 693 332 693 m 325 79 q 460 135 404 79 q 521 278 515 190 l 524 321 l 485 321 q 298 308 363 321 q 209 268 233 294 q 185 194 185 242 q 222 110 185 142 q 325 79 260 79 m 213 1046 l 333 1046 l 453 765 l 375 765 l 213 1046 z "},"ả":{"ha":736,"x_min":71,"x_max":643,"o":"m 403 693 q 643 463 643 693 q 642 424 643 438 l 608 0 l 499 0 l 507 108 q 423 20 476 50 q 301 -10 369 -10 q 135 45 200 -10 q 71 185 71 100 q 111 306 71 261 q 240 372 151 351 q 481 393 329 393 l 531 393 l 533 433 l 535 460 q 500 566 535 532 q 390 600 465 600 q 161 528 276 600 l 131 611 q 257 670 182 647 q 403 693 332 693 m 325 79 q 460 135 404 79 q 521 278 515 190 l 524 321 l 485 321 q 298 308 363 321 q 209 268 233 294 q 185 194 185 242 q 222 110 185 142 q 325 79 260 79 m 454 765 l 381 765 l 383 803 q 402 853 386 832 q 444 896 418 874 q 474 926 465 915 q 483 950 483 938 q 469 974 483 965 q 429 982 456 982 q 346 967 400 982 l 331 1031 q 446 1051 385 1051 q 540 1026 504 1051 q 575 961 575 1001 q 558 908 575 929 q 511 864 542 888 q 469 826 482 842 q 456 789 457 811 l 454 765 z "},"ȃ":{"ha":736,"x_min":71,"x_max":649,"o":"m 403 693 q 643 463 643 693 q 642 424 643 438 l 608 0 l 499 0 l 507 108 q 423 20 476 50 q 301 -10 369 -10 q 135 45 200 -10 q 71 185 71 100 q 111 306 71 261 q 240 372 151 351 q 481 393 329 393 l 531 393 l 533 433 l 535 460 q 500 566 535 532 q 390 600 465 600 q 161 528 276 600 l 131 611 q 257 670 182 647 q 403 693 332 693 m 325 79 q 460 135 404 79 q 521 278 515 190 l 524 321 l 485 321 q 298 308 363 321 q 209 268 233 294 q 185 194 185 242 q 222 110 185 142 q 325 79 260 79 m 431 1011 q 566 967 507 1011 q 649 836 625 924 l 576 806 q 425 928 529 928 q 334 900 375 928 q 260 806 293 872 l 190 835 q 290 968 226 925 q 431 1011 353 1011 z "},"ā":{"ha":736,"x_min":71,"x_max":643,"o":"m 403 693 q 643 463 643 693 q 642 424 643 438 l 608 0 l 499 0 l 507 108 q 423 20 476 50 q 301 -10 369 -10 q 135 45 200 -10 q 71 185 71 100 q 111 306 71 261 q 240 372 151 351 q 481 393 329 393 l 531 393 l 533 433 l 535 460 q 500 566 535 532 q 390 600 465 600 q 161 528 276 600 l 131 611 q 257 670 182 647 q 403 693 332 693 m 325 79 q 460 135 404 79 q 521 278 515 190 l 524 321 l 485 321 q 298 308 363 321 q 209 268 233 294 q 185 194 185 242 q 222 110 185 142 q 325 79 260 79 m 221 949 l 636 949 l 629 864 l 214 864 l 221 949 z "},"ą":{"ha":736,"x_min":71,"x_max":651,"o":"m 651 -236 q 597 -259 629 -250 q 535 -268 565 -268 q 422 -230 464 -268 q 379 -131 379 -192 q 412 -31 379 -74 q 501 33 444 13 l 507 108 q 423 20 476 50 q 300 -10 369 -10 q 135 45 200 -10 q 71 185 71 100 q 111 306 71 261 q 240 372 151 351 q 481 393 329 393 l 531 393 l 533 433 l 535 460 q 500 566 535 532 q 390 600 465 600 q 161 528 276 600 l 131 611 q 257 670 182 647 q 403 693 332 693 q 643 463 643 693 q 642 424 643 438 l 608 0 l 596 0 q 504 -31 540 0 q 468 -112 468 -61 q 490 -174 468 -153 q 551 -194 513 -194 q 635 -171 588 -194 l 651 -236 m 325 79 q 460 135 404 79 q 521 278 515 190 l 524 321 l 485 321 q 298 308 363 321 q 209 267 233 294 q 185 193 185 240 q 222 110 185 142 q 325 79 260 79 z "},"å":{"ha":736,"x_min":71,"x_max":643,"o":"m 403 693 q 643 463 643 693 q 642 424 643 438 l 608 0 l 499 0 l 507 108 q 423 20 476 50 q 301 -10 369 -10 q 135 45 200 -10 q 71 185 71 100 q 111 306 71 261 q 240 372 151 351 q 481 393 329 393 l 531 393 l 533 433 l 535 460 q 500 566 535 532 q 390 600 465 600 q 161 528 276 600 l 131 611 q 257 670 182 647 q 403 693 332 693 m 325 79 q 460 135 404 79 q 521 278 515 190 l 524 321 l 485 321 q 298 308 363 321 q 209 268 233 294 q 185 194 185 242 q 222 110 185 142 q 325 79 260 79 m 425 768 q 326 808 367 768 q 285 906 285 847 q 326 1003 285 964 q 425 1043 367 1043 q 524 1003 483 1043 q 565 906 565 964 q 524 808 565 847 q 425 768 483 768 m 425 836 q 473 856 454 836 q 492 906 492 876 q 473 955 492 935 q 425 975 454 975 q 377 955 396 975 q 358 906 358 935 q 377 856 358 876 q 425 836 396 836 z "},"ǻ":{"ha":736,"x_min":71,"x_max":694,"o":"m 422 769 q 325 808 365 769 q 285 904 285 847 q 326 1004 285 964 q 428 1044 368 1044 q 521 1010 483 1044 l 589 1138 l 694 1181 l 607 1026 l 540 990 q 565 913 565 954 q 524 811 565 853 q 422 769 483 769 m 358 904 q 377 857 358 876 q 424 838 396 838 q 472 858 453 838 q 492 907 492 878 q 474 956 493 936 q 426 976 456 976 q 378 956 397 976 q 358 904 358 935 m 403 693 q 643 463 643 693 q 642 424 643 438 l 608 0 l 499 0 l 507 108 q 423 20 476 50 q 301 -10 369 -10 q 135 45 200 -10 q 71 185 71 100 q 111 306 71 261 q 240 372 151 351 q 481 393 329 393 l 531 393 l 533 433 l 535 460 q 500 566 535 532 q 390 600 465 600 q 161 528 276 600 l 131 611 q 257 670 182 647 q 403 693 332 693 m 325 79 q 460 135 404 79 q 521 278 515 190 l 524 321 l 485 321 q 298 308 363 321 q 209 267 233 294 q 185 193 185 240 q 222 110 185 142 q 325 79 260 79 z "},"ã":{"ha":736,"x_min":71,"x_max":656,"o":"m 403 693 q 643 463 643 693 q 642 424 643 438 l 608 0 l 499 0 l 507 108 q 423 20 476 50 q 301 -10 369 -10 q 135 45 200 -10 q 71 185 71 100 q 111 306 71 261 q 240 372 151 351 q 481 393 329 393 l 531 393 l 533 433 l 535 460 q 500 566 535 532 q 390 600 465 600 q 161 528 276 600 l 131 611 q 257 670 182 647 q 403 693 332 693 m 325 79 q 460 135 404 79 q 521 278 515 190 l 524 321 l 485 321 q 298 308 363 321 q 209 268 233 294 q 185 194 185 242 q 222 110 185 142 q 325 79 260 79 m 196 831 q 237 949 200 908 q 331 989 274 989 q 382 978 358 989 q 444 944 406 968 q 489 919 471 928 q 524 910 507 910 q 572 929 554 910 q 593 985 590 949 l 656 985 q 615 867 651 907 q 521 826 578 826 q 466 838 492 826 q 407 872 440 850 q 361 898 378 890 q 329 906 344 906 q 279 885 299 906 q 257 831 260 865 l 196 831 z "},"æ":{"ha":1185,"x_min":71,"x_max":1129,"o":"m 638 321 l 638 315 q 692 143 638 204 q 853 82 747 82 q 960 102 906 82 q 1064 161 1015 122 l 1094 78 q 984 15 1054 39 q 849 -10 914 -10 q 674 35 744 -10 q 569 163 603 79 q 465 35 535 81 q 306 -10 396 -10 q 136 44 201 -10 q 71 185 71 99 q 111 306 71 261 q 240 372 151 351 q 481 393 329 393 l 533 393 l 536 433 q 538 463 538 443 q 502 566 538 532 q 393 600 467 600 q 161 528 276 600 l 131 611 q 257 670 182 647 q 404 693 332 693 q 619 581 569 693 q 722 664 661 635 q 858 693 782 693 q 1056 615 983 693 q 1129 389 1129 538 q 1125 321 1129 357 l 638 321 m 861 606 q 714 551 769 606 q 643 393 658 496 l 1029 393 q 988 551 1033 497 q 861 606 942 606 m 322 79 q 460 137 404 79 q 525 286 517 194 l 528 321 l 485 321 q 298 308 363 321 q 209 267 233 294 q 185 193 185 240 q 222 110 185 142 q 322 79 260 79 z "},"ǽ":{"ha":1185,"x_min":71,"x_max":1129,"o":"m 638 321 l 638 315 q 692 143 638 204 q 853 82 747 82 q 960 102 906 82 q 1064 161 1015 122 l 1094 78 q 984 15 1054 39 q 849 -10 914 -10 q 674 35 744 -10 q 569 163 603 79 q 465 35 535 81 q 306 -10 396 -10 q 136 44 201 -10 q 71 185 71 99 q 111 306 71 261 q 240 372 151 351 q 481 393 329 393 l 533 393 l 536 433 q 538 463 538 443 q 502 566 538 532 q 393 600 467 600 q 161 528 276 600 l 131 611 q 257 670 182 647 q 404 693 332 693 q 619 581 569 693 q 722 664 661 635 q 858 693 782 693 q 1056 615 983 693 q 1129 389 1129 538 q 1125 321 1129 357 l 638 321 m 861 606 q 714 551 769 606 q 643 393 658 496 l 1029 393 q 988 551 1033 497 q 861 606 942 606 m 322 79 q 460 137 404 79 q 525 286 517 194 l 528 321 l 485 321 q 298 308 363 321 q 209 267 233 294 q 185 193 185 240 q 222 110 185 142 q 322 79 260 79 m 579 765 l 736 1046 l 871 1046 l 657 765 l 579 765 z "},"b":{"ha":808,"x_min":78,"x_max":746,"o":"m 458 693 q 608 653 543 693 q 710 538 674 613 q 746 365 746 464 q 706 169 746 254 q 594 37 667 83 q 428 -10 522 -10 q 289 25 349 -10 q 200 122 229 60 l 190 0 l 78 0 l 156 979 l 268 979 l 236 576 q 330 662 271 631 q 458 693 389 693 m 418 83 q 574 158 517 83 q 631 365 631 233 q 578 538 631 476 q 429 600 525 600 q 272 524 329 600 q 215 317 215 449 q 267 143 215 203 q 418 83 319 83 z "},"c":{"ha":665,"x_min":64,"x_max":654,"o":"m 378 -10 q 212 31 283 -10 q 102 145 140 71 q 64 317 64 219 q 106 515 64 431 q 225 647 147 600 q 408 693 303 693 q 545 669 482 693 q 654 604 608 646 l 611 521 q 511 580 560 561 q 408 599 463 599 q 240 524 300 599 q 181 315 181 449 q 235 144 181 206 q 388 83 289 83 q 486 102 440 83 q 582 161 532 121 l 614 78 q 508 13 569 36 q 378 -10 446 -10 z "},"ć":{"ha":665,"x_min":64,"x_max":675,"o":"m 378 -10 q 212 31 283 -10 q 102 145 140 71 q 64 317 64 219 q 106 515 64 431 q 225 647 147 600 q 408 693 303 693 q 545 669 482 693 q 654 604 608 646 l 611 521 q 511 580 560 561 q 408 599 463 599 q 240 524 300 599 q 181 315 181 449 q 235 144 181 206 q 388 83 289 83 q 486 102 440 83 q 582 161 532 121 l 614 78 q 508 13 569 36 q 378 -10 446 -10 m 383 765 l 540 1046 l 675 1046 l 461 765 l 383 765 z "},"č":{"ha":665,"x_min":64,"x_max":654,"o":"m 378 -10 q 212 31 283 -10 q 102 145 140 71 q 64 317 64 219 q 106 515 64 431 q 225 647 147 600 q 408 693 303 693 q 545 669 482 693 q 654 604 608 646 l 611 521 q 511 580 560 561 q 408 599 463 599 q 240 524 300 599 q 181 315 181 449 q 235 144 181 206 q 388 83 289 83 q 486 102 440 83 q 582 161 532 121 l 614 78 q 508 13 569 36 q 378 -10 446 -10 m 647 1046 l 463 765 l 383 765 l 242 1046 l 343 1046 l 428 847 l 542 1046 l 647 1046 z "},"ç":{"ha":665,"x_min":64,"x_max":654,"o":"m 614 78 q 510 15 571 38 q 382 -10 449 -8 l 372 -58 q 399 -57 381 -57 q 474 -81 446 -57 q 503 -150 503 -106 q 460 -235 503 -203 q 340 -268 417 -268 q 275 -261 310 -268 q 215 -242 240 -254 l 235 -182 q 340 -201 289 -201 q 399 -189 378 -201 q 419 -153 419 -176 q 407 -125 419 -135 q 371 -115 394 -115 q 310 -128 342 -115 l 285 -106 l 306 -3 q 128 104 193 19 q 64 317 64 189 q 106 515 64 431 q 225 647 147 600 q 408 693 303 693 q 545 669 482 693 q 654 604 608 646 l 611 521 q 511 580 560 561 q 408 599 463 599 q 240 524 300 599 q 181 315 181 449 q 235 144 181 206 q 388 83 289 83 q 486 102 440 83 q 582 161 532 121 l 614 78 z "},"ḉ":{"ha":665,"x_min":64,"x_max":675,"o":"m 461 765 l 383 765 l 540 1046 l 675 1046 l 461 765 m 408 599 q 240 524 300 599 q 181 315 181 449 q 235 144 181 206 q 388 83 289 83 q 486 102 440 83 q 582 161 532 121 l 614 78 q 510 15 571 38 q 382 -10 449 -8 l 372 -58 q 399 -57 381 -57 q 474 -81 446 -57 q 503 -150 503 -106 q 460 -235 503 -203 q 340 -268 417 -268 q 275 -261 310 -268 q 215 -242 240 -254 l 235 -182 q 340 -201 289 -201 q 399 -189 378 -201 q 419 -153 419 -176 q 407 -125 419 -135 q 371 -115 394 -115 q 310 -128 342 -115 l 285 -106 l 306 -3 q 128 104 193 19 q 64 317 64 189 q 106 515 64 431 q 225 647 147 600 q 408 693 303 693 q 545 669 482 693 q 654 604 608 646 l 611 521 q 511 580 560 561 q 408 599 463 599 z "},"ĉ":{"ha":665,"x_min":64,"x_max":654,"o":"m 378 -10 q 212 31 283 -10 q 102 145 140 71 q 64 317 64 219 q 106 515 64 431 q 225 647 147 600 q 408 693 303 693 q 545 669 482 693 q 654 604 608 646 l 611 521 q 511 580 560 561 q 408 599 463 599 q 240 524 300 599 q 181 315 181 449 q 235 144 181 206 q 388 83 289 83 q 486 102 440 83 q 582 161 532 121 l 614 78 q 508 13 569 36 q 378 -10 446 -10 m 219 765 l 406 1046 l 485 1046 l 625 765 l 525 765 l 439 964 l 325 765 l 219 765 z "},"ċ":{"ha":665,"x_min":64,"x_max":654,"o":"m 378 -10 q 212 31 283 -10 q 102 145 140 71 q 64 317 64 219 q 106 515 64 431 q 225 647 147 600 q 408 693 303 693 q 545 669 482 693 q 654 604 608 646 l 611 521 q 511 580 560 561 q 408 599 463 599 q 240 524 300 599 q 181 315 181 449 q 235 144 181 206 q 388 83 289 83 q 486 102 440 83 q 582 161 532 121 l 614 78 q 508 13 569 36 q 378 -10 446 -10 m 507 969 l 497 843 l 360 843 l 371 969 l 507 969 z "},"d":{"ha":808,"x_min":64,"x_max":754,"o":"m 754 979 l 676 0 l 565 0 l 574 106 q 480 21 539 51 q 351 -10 421 -10 q 201 30 267 -10 q 100 143 136 69 q 64 315 64 217 q 103 513 64 428 q 215 646 143 599 q 382 693 288 693 q 520 658 461 693 q 608 563 579 624 l 642 979 l 754 979 m 381 83 q 538 159 481 83 q 594 365 594 235 q 542 540 594 479 q 392 600 490 600 q 235 525 293 600 q 178 319 178 450 q 231 145 178 207 q 381 83 285 83 z "},"ð":{"ha":776,"x_min":61,"x_max":750,"o":"m 604 804 q 719 446 719 661 q 627 102 719 214 q 375 -10 535 -10 q 147 72 232 -10 q 61 292 61 154 q 102 470 61 393 q 217 590 143 547 q 386 632 290 632 q 524 603 465 632 q 614 519 582 574 q 506 769 601 665 l 275 689 l 257 760 l 443 825 q 263 908 369 879 l 297 989 q 550 861 449 950 l 732 925 l 750 854 l 604 804 m 376 83 q 535 151 479 83 q 592 339 592 219 q 538 486 592 432 q 390 540 485 540 q 232 472 289 540 q 175 289 175 404 q 227 137 175 190 q 376 83 279 83 z "},"ď":{"ha":808,"x_min":64,"x_max":889,"o":"m 642 979 l 754 979 l 676 0 l 565 0 l 574 106 q 480 21 539 51 q 351 -10 421 -10 q 201 30 267 -10 q 100 143 136 69 q 64 315 64 217 q 103 513 64 428 q 215 646 143 599 q 382 693 288 693 q 520 658 461 693 q 608 563 579 624 l 642 979 m 889 979 l 833 715 l 779 715 l 800 979 l 889 979 m 381 83 q 538 159 481 83 q 594 365 594 235 q 542 540 594 479 q 392 600 490 600 q 235 525 293 600 q 178 319 178 450 q 231 145 178 207 q 381 83 285 83 z "},"đ":{"ha":808,"x_min":64,"x_max":872,"o":"m 865 771 l 738 771 l 678 0 l 565 0 l 575 107 q 481 22 540 53 q 351 -10 421 -10 q 201 31 267 -10 q 100 146 136 71 q 64 321 64 221 q 103 514 64 429 q 215 646 143 599 q 382 693 288 693 q 520 658 461 693 q 608 563 579 624 l 625 771 l 357 771 l 364 856 l 632 856 l 642 979 l 754 979 l 744 856 l 872 856 l 865 771 m 381 83 q 538 159 481 83 q 594 369 594 235 q 542 541 594 482 q 392 600 490 600 q 235 524 293 600 q 178 317 178 449 q 231 144 178 206 q 381 83 285 83 z "},"ḍ":{"ha":808,"x_min":64,"x_max":754,"o":"m 754 979 l 676 0 l 565 0 l 574 106 q 480 21 539 51 q 351 -10 421 -10 q 201 30 267 -10 q 100 143 136 69 q 64 315 64 217 q 103 513 64 428 q 215 646 143 599 q 382 693 288 693 q 520 658 461 693 q 608 563 579 624 l 642 979 l 754 979 m 381 83 q 538 159 481 83 q 594 365 594 235 q 542 540 594 479 q 392 600 490 600 q 235 525 293 600 q 178 319 178 450 q 231 145 178 207 q 381 83 285 83 m 435 -131 l 424 -253 l 296 -253 l 307 -131 l 435 -131 z "},"ḏ":{"ha":808,"x_min":64,"x_max":754,"o":"m 754 979 l 676 0 l 565 0 l 574 106 q 480 21 539 51 q 351 -10 421 -10 q 201 30 267 -10 q 100 143 136 69 q 64 315 64 217 q 103 513 64 428 q 215 646 143 599 q 382 693 288 693 q 520 658 461 693 q 608 563 579 624 l 642 979 l 754 979 m 381 83 q 538 159 481 83 q 594 365 594 235 q 542 540 594 479 q 392 600 490 600 q 235 525 293 600 q 178 319 178 450 q 231 145 178 207 q 381 83 285 83 m 161 -151 l 576 -151 l 569 -233 l 154 -233 l 161 -151 z "},"ǆ":{"ha":1507,"x_min":64,"x_max":1460,"o":"m 754 979 l 676 0 l 565 0 l 574 106 q 480 21 539 51 q 351 -10 421 -10 q 201 30 267 -10 q 100 143 136 69 q 64 315 64 217 q 103 513 64 428 q 215 646 143 599 q 382 693 288 693 q 520 658 461 693 q 608 563 579 624 l 642 979 l 754 979 m 381 83 q 538 159 481 83 q 594 365 594 235 q 542 540 594 479 q 392 600 490 600 q 235 525 293 600 q 178 319 178 450 q 231 145 178 207 q 381 83 285 83 m 1454 594 l 1000 89 l 1429 89 l 1422 0 l 849 0 l 856 78 l 1311 588 l 910 588 l 917 676 l 1460 676 l 1454 594 m 1422 1046 l 1238 765 l 1158 765 l 1017 1046 l 1118 1046 l 1203 847 l 1317 1046 l 1422 1046 z "},"e":{"ha":732,"x_min":64,"x_max":676,"o":"m 176 321 l 176 315 q 231 143 176 204 q 390 82 286 82 q 611 161 514 82 l 643 78 q 530 14 601 38 q 385 -10 458 -10 q 151 79 238 -10 q 64 318 64 168 q 106 513 64 428 q 222 646 147 599 q 397 693 297 693 q 601 616 526 693 q 676 389 676 539 q 672 321 676 357 l 176 321 m 401 606 q 253 551 308 606 q 182 393 197 496 l 576 393 q 533 552 581 499 q 401 606 486 606 z "},"é":{"ha":732,"x_min":64,"x_max":676,"o":"m 176 321 l 176 315 q 231 143 176 204 q 390 82 286 82 q 611 161 514 82 l 643 78 q 530 14 601 38 q 385 -10 458 -10 q 151 79 238 -10 q 64 318 64 168 q 106 513 64 428 q 222 646 147 599 q 397 693 297 693 q 601 616 526 693 q 676 389 676 539 q 672 321 676 357 l 176 321 m 401 606 q 253 551 308 606 q 182 393 197 496 l 576 393 q 533 552 581 499 q 401 606 486 606 m 378 765 l 535 1046 l 669 1046 l 456 765 l 378 765 z "},"ĕ":{"ha":732,"x_min":64,"x_max":676,"o":"m 176 321 l 176 315 q 231 143 176 204 q 390 82 286 82 q 611 161 514 82 l 643 78 q 530 14 601 38 q 385 -10 458 -10 q 151 79 238 -10 q 64 318 64 168 q 106 513 64 428 q 222 646 147 599 q 397 693 297 693 q 601 616 526 693 q 676 389 676 539 q 672 321 676 357 l 176 321 m 401 606 q 253 551 308 606 q 182 393 197 496 l 576 393 q 533 552 581 499 q 401 606 486 606 m 422 807 q 288 851 346 807 q 206 983 229 894 l 278 1013 q 428 890 325 890 q 519 918 478 890 q 594 1013 560 946 l 663 983 q 564 850 628 893 q 422 807 500 807 z "},"ě":{"ha":732,"x_min":64,"x_max":676,"o":"m 176 321 l 176 315 q 231 143 176 204 q 390 82 286 82 q 611 161 514 82 l 643 78 q 530 14 601 38 q 385 -10 458 -10 q 151 79 238 -10 q 64 318 64 168 q 106 513 64 428 q 222 646 147 599 q 397 693 297 693 q 601 616 526 693 q 676 389 676 539 q 672 321 676 357 l 176 321 m 401 606 q 253 551 308 606 q 182 393 197 496 l 576 393 q 533 552 581 499 q 401 606 486 606 m 642 1046 l 457 765 l 378 765 l 236 1046 l 338 1046 l 422 847 l 536 1046 l 642 1046 z "},"ḝ":{"ha":732,"x_min":64,"x_max":676,"o":"m 422 807 q 288 851 346 807 q 206 983 229 894 l 278 1013 q 428 890 325 890 q 519 918 478 890 q 594 1013 560 946 l 663 983 q 564 850 628 893 q 422 807 500 807 m 176 321 l 176 315 q 231 143 176 204 q 390 82 286 82 q 611 161 514 82 l 643 78 q 538 17 603 40 q 401 -10 472 -7 l 392 -58 q 418 -57 400 -57 q 494 -81 465 -57 q 522 -150 522 -106 q 479 -235 522 -203 q 360 -268 436 -268 q 294 -261 329 -268 q 235 -242 260 -254 l 254 -182 q 360 -201 308 -201 q 418 -189 397 -201 q 439 -153 439 -176 q 426 -125 439 -135 q 390 -115 414 -115 q 329 -128 361 -115 l 304 -106 l 324 -6 q 133 99 203 13 q 64 318 64 185 q 106 513 64 428 q 222 646 147 599 q 397 693 297 693 q 601 616 526 693 q 676 389 676 539 q 672 321 676 357 l 176 321 m 401 606 q 253 551 308 606 q 182 393 197 496 l 576 393 q 533 552 581 499 q 401 606 486 606 z "},"ê":{"ha":732,"x_min":64,"x_max":676,"o":"m 176 321 l 176 315 q 231 143 176 204 q 390 82 286 82 q 611 161 514 82 l 643 78 q 530 14 601 38 q 385 -10 458 -10 q 151 79 238 -10 q 64 318 64 168 q 106 513 64 428 q 222 646 147 599 q 397 693 297 693 q 601 616 526 693 q 676 389 676 539 q 672 321 676 357 l 176 321 m 401 606 q 253 551 308 606 q 182 393 197 496 l 576 393 q 533 552 581 499 q 401 606 486 606 m 214 765 l 400 1046 l 479 1046 l 619 765 l 519 765 l 433 964 l 319 765 l 214 765 z "},"ế":{"ha":732,"x_min":64,"x_max":808,"o":"m 176 321 l 176 315 q 231 143 176 204 q 390 82 286 82 q 611 161 514 82 l 643 78 q 530 14 601 38 q 385 -10 458 -10 q 151 79 238 -10 q 64 318 64 168 q 106 513 64 428 q 222 646 147 599 q 397 693 297 693 q 601 616 526 693 q 676 389 676 539 q 672 321 676 357 l 176 321 m 401 606 q 253 551 308 606 q 182 393 197 496 l 576 393 q 533 552 581 499 q 401 606 486 606 m 546 908 l 685 1106 l 808 1106 l 614 908 l 546 908 m 214 765 l 396 969 l 471 969 l 619 765 l 521 765 l 431 903 l 317 765 l 214 765 z "},"ệ":{"ha":732,"x_min":64,"x_max":676,"o":"m 176 321 l 176 315 q 231 143 176 204 q 390 82 286 82 q 611 161 514 82 l 643 78 q 530 14 601 38 q 385 -10 458 -10 q 151 79 238 -10 q 64 318 64 168 q 106 513 64 428 q 222 646 147 599 q 397 693 297 693 q 601 616 526 693 q 676 389 676 539 q 672 321 676 357 l 176 321 m 401 606 q 253 551 308 606 q 182 393 197 496 l 576 393 q 533 552 581 499 q 401 606 486 606 m 431 -131 l 419 -253 l 292 -253 l 303 -131 l 431 -131 m 214 765 l 400 1046 l 479 1046 l 619 765 l 519 765 l 433 964 l 319 765 l 214 765 z "},"ề":{"ha":732,"x_min":64,"x_max":676,"o":"m 176 321 l 176 315 q 231 143 176 204 q 390 82 286 82 q 611 161 514 82 l 643 78 q 530 14 601 38 q 385 -10 458 -10 q 151 79 238 -10 q 64 318 64 168 q 106 513 64 428 q 222 646 147 599 q 397 693 297 693 q 601 616 526 693 q 676 389 676 539 q 672 321 676 357 l 176 321 m 401 606 q 253 551 308 606 q 182 393 197 496 l 576 393 q 533 552 581 499 q 401 606 486 606 m 468 1106 l 579 1106 l 674 908 l 606 908 l 468 1106 m 396 969 l 471 969 l 619 765 l 521 765 l 431 903 l 317 765 l 214 765 l 396 969 z "},"ể":{"ha":732,"x_min":64,"x_max":736,"o":"m 176 321 l 176 315 q 231 143 176 204 q 390 82 286 82 q 611 161 514 82 l 643 78 q 530 14 601 38 q 385 -10 458 -10 q 151 79 238 -10 q 64 318 64 168 q 106 513 64 428 q 222 646 147 599 q 397 693 297 693 q 601 616 526 693 q 676 389 676 539 q 672 321 676 357 l 176 321 m 401 606 q 253 551 308 606 q 182 393 197 496 l 576 393 q 533 552 581 499 q 401 606 486 606 m 546 932 q 565 970 547 957 q 611 994 582 983 q 639 1008 631 1003 q 647 1024 647 1014 q 597 1046 647 1046 q 506 1031 557 1046 l 492 1090 q 606 1113 547 1113 q 701 1090 667 1113 q 736 1033 736 1068 q 718 989 736 1004 q 668 960 700 974 q 633 943 646 951 q 619 921 621 935 l 618 908 l 544 908 l 546 932 m 396 969 l 471 969 l 619 765 l 521 765 l 431 903 l 317 765 l 214 765 l 396 969 z "},"ễ":{"ha":732,"x_min":64,"x_max":676,"o":"m 176 321 l 176 315 q 231 143 176 204 q 390 82 286 82 q 611 161 514 82 l 643 78 q 530 14 601 38 q 385 -10 458 -10 q 151 79 238 -10 q 64 318 64 168 q 106 513 64 428 q 222 646 147 599 q 397 693 297 693 q 601 616 526 693 q 676 389 676 539 q 672 321 676 357 l 176 321 m 401 606 q 253 551 308 606 q 182 393 197 496 l 576 393 q 533 552 581 499 q 401 606 486 606 m 211 990 q 251 1091 214 1054 q 344 1128 289 1128 q 398 1119 374 1128 q 461 1094 422 1111 q 506 1075 488 1082 q 540 1068 524 1068 q 588 1085 569 1068 q 607 1129 606 1101 l 669 1129 q 630 1030 668 1067 q 536 993 592 993 q 484 1001 507 993 q 421 1026 461 1008 q 376 1046 394 1039 q 340 1053 358 1053 q 293 1035 311 1053 q 274 990 275 1017 l 211 990 m 396 969 l 471 969 l 619 765 l 521 765 l 431 903 l 317 765 l 214 765 l 396 969 z "},"ȅ":{"ha":732,"x_min":64,"x_max":676,"o":"m 176 321 l 176 315 q 231 143 176 204 q 390 82 286 82 q 611 161 514 82 l 643 78 q 530 14 601 38 q 385 -10 458 -10 q 151 79 238 -10 q 64 318 64 168 q 106 513 64 428 q 222 646 147 599 q 397 693 297 693 q 601 616 526 693 q 676 389 676 539 q 672 321 676 357 l 176 321 m 401 606 q 253 551 308 606 q 182 393 197 496 l 576 393 q 533 552 581 499 q 401 606 486 606 m 219 1046 l 319 1046 l 361 765 l 304 765 l 219 1046 m 388 1046 l 486 1046 l 529 765 l 472 765 l 388 1046 z "},"ë":{"ha":732,"x_min":64,"x_max":676,"o":"m 176 321 l 176 315 q 231 143 176 204 q 390 82 286 82 q 611 161 514 82 l 643 78 q 530 14 601 38 q 385 -10 458 -10 q 151 79 238 -10 q 64 318 64 168 q 106 513 64 428 q 222 646 147 599 q 397 693 297 693 q 601 616 526 693 q 676 389 676 539 q 672 321 676 357 l 176 321 m 401 606 q 253 551 308 606 q 182 393 197 496 l 576 393 q 533 552 581 499 q 401 606 486 606 m 376 965 l 367 847 l 243 847 l 253 965 l 376 965 m 614 965 l 604 847 l 481 847 l 490 965 l 614 965 z "},"ė":{"ha":732,"x_min":64,"x_max":676,"o":"m 176 321 l 176 315 q 231 143 176 204 q 390 82 286 82 q 611 161 514 82 l 643 78 q 530 14 601 38 q 385 -10 458 -10 q 151 79 238 -10 q 64 318 64 168 q 106 513 64 428 q 222 646 147 599 q 397 693 297 693 q 601 616 526 693 q 676 389 676 539 q 672 321 676 357 l 176 321 m 401 606 q 253 551 308 606 q 182 393 197 496 l 576 393 q 533 552 581 499 q 401 606 486 606 m 501 969 l 492 843 l 354 843 l 365 969 l 501 969 z "},"ẹ":{"ha":732,"x_min":64,"x_max":676,"o":"m 176 321 l 176 315 q 231 143 176 204 q 390 82 286 82 q 611 161 514 82 l 643 78 q 530 14 601 38 q 385 -10 458 -10 q 151 79 238 -10 q 64 318 64 168 q 106 513 64 428 q 222 646 147 599 q 397 693 297 693 q 601 616 526 693 q 676 389 676 539 q 672 321 676 357 l 176 321 m 401 606 q 253 551 308 606 q 182 393 197 496 l 576 393 q 533 552 581 499 q 401 606 486 606 m 431 -131 l 419 -253 l 292 -253 l 303 -131 l 431 -131 z "},"è":{"ha":732,"x_min":64,"x_max":676,"o":"m 176 321 l 176 315 q 231 143 176 204 q 390 82 286 82 q 611 161 514 82 l 643 78 q 530 14 601 38 q 385 -10 458 -10 q 151 79 238 -10 q 64 318 64 168 q 106 513 64 428 q 222 646 147 599 q 397 693 297 693 q 601 616 526 693 q 676 389 676 539 q 672 321 676 357 l 176 321 m 401 606 q 253 551 308 606 q 182 393 197 496 l 576 393 q 533 552 581 499 q 401 606 486 606 m 215 1046 l 336 1046 l 456 765 l 378 765 l 215 1046 z "},"ẻ":{"ha":732,"x_min":64,"x_max":676,"o":"m 176 321 l 176 315 q 231 143 176 204 q 390 82 286 82 q 611 161 514 82 l 643 78 q 530 14 601 38 q 385 -10 458 -10 q 151 79 238 -10 q 64 318 64 168 q 106 513 64 428 q 222 646 147 599 q 397 693 297 693 q 601 616 526 693 q 676 389 676 539 q 672 321 676 357 l 176 321 m 401 606 q 253 551 308 606 q 182 393 197 496 l 576 393 q 533 552 581 499 q 401 606 486 606 m 457 765 l 383 765 l 386 803 q 405 853 389 832 q 447 896 421 874 q 477 926 468 915 q 486 950 486 938 q 472 974 486 965 q 432 982 458 982 q 349 967 403 982 l 333 1031 q 449 1051 388 1051 q 542 1026 507 1051 q 578 961 578 1001 q 561 908 578 929 q 514 864 544 888 q 472 826 485 842 q 458 789 460 811 l 457 765 z "},"ȇ":{"ha":732,"x_min":64,"x_max":676,"o":"m 176 321 l 176 315 q 231 143 176 204 q 390 82 286 82 q 611 161 514 82 l 643 78 q 530 14 601 38 q 385 -10 458 -10 q 151 79 238 -10 q 64 318 64 168 q 106 513 64 428 q 222 646 147 599 q 397 693 297 693 q 601 616 526 693 q 676 389 676 539 q 672 321 676 357 l 176 321 m 401 606 q 253 551 308 606 q 182 393 197 496 l 576 393 q 533 552 581 499 q 401 606 486 606 m 433 1011 q 569 967 510 1011 q 651 836 628 924 l 579 806 q 428 928 532 928 q 337 900 378 928 q 263 806 296 872 l 193 835 q 292 968 229 925 q 433 1011 356 1011 z "},"ē":{"ha":732,"x_min":64,"x_max":676,"o":"m 176 321 l 176 315 q 231 143 176 204 q 390 82 286 82 q 611 161 514 82 l 643 78 q 530 14 601 38 q 385 -10 458 -10 q 151 79 238 -10 q 64 318 64 168 q 106 513 64 428 q 222 646 147 599 q 397 693 297 693 q 601 616 526 693 q 676 389 676 539 q 672 321 676 357 l 176 321 m 401 606 q 253 551 308 606 q 182 393 197 496 l 576 393 q 533 552 581 499 q 401 606 486 606 m 224 949 l 639 949 l 632 864 l 217 864 l 224 949 z "},"ḗ":{"ha":732,"x_min":64,"x_max":690,"o":"m 176 321 l 176 315 q 231 143 176 204 q 390 82 286 82 q 611 161 514 82 l 643 78 q 530 14 601 38 q 385 -10 458 -10 q 151 79 238 -10 q 64 318 64 168 q 106 513 64 428 q 222 646 147 599 q 397 693 297 693 q 601 616 526 693 q 676 389 676 539 q 672 321 676 357 l 176 321 m 401 606 q 253 551 308 606 q 182 393 197 496 l 576 393 q 533 552 581 499 q 401 606 486 606 m 224 949 l 639 949 l 632 864 l 217 864 l 224 949 m 399 1033 l 556 1314 l 690 1314 l 476 1033 l 399 1033 z "},"ḕ":{"ha":732,"x_min":64,"x_max":676,"o":"m 176 321 l 176 315 q 231 143 176 204 q 390 82 286 82 q 611 161 514 82 l 643 78 q 530 14 601 38 q 385 -10 458 -10 q 151 79 238 -10 q 64 318 64 168 q 106 513 64 428 q 222 646 147 599 q 397 693 297 693 q 601 616 526 693 q 676 389 676 539 q 672 321 676 357 l 176 321 m 401 606 q 253 551 308 606 q 182 393 197 496 l 576 393 q 533 552 581 499 q 401 606 486 606 m 224 949 l 639 949 l 632 864 l 217 864 l 224 949 m 236 1314 l 357 1314 l 476 1033 l 399 1033 l 236 1314 z "},"ę":{"ha":732,"x_min":64,"x_max":676,"o":"m 176 321 l 176 315 q 231 143 176 204 q 390 82 286 82 q 611 161 514 82 l 643 78 q 564 28 614 49 q 461 -38 489 -4 q 433 -112 433 -72 q 455 -174 433 -153 q 515 -194 476 -194 q 599 -171 551 -194 l 617 -236 q 500 -268 563 -268 q 385 -230 428 -268 q 343 -131 343 -192 q 397 -10 343 -57 l 385 -10 q 151 79 238 -10 q 64 318 64 168 q 106 513 64 428 q 222 646 147 599 q 397 693 297 693 q 601 615 526 693 q 676 388 676 538 q 672 321 676 357 l 176 321 m 401 606 q 256 553 314 606 q 182 393 197 501 l 576 393 q 533 552 581 499 q 401 606 486 606 z "},"ẽ":{"ha":732,"x_min":64,"x_max":676,"o":"m 176 321 l 176 315 q 231 143 176 204 q 390 82 286 82 q 611 161 514 82 l 643 78 q 530 14 601 38 q 385 -10 458 -10 q 151 79 238 -10 q 64 318 64 168 q 106 513 64 428 q 222 646 147 599 q 397 693 297 693 q 601 616 526 693 q 676 389 676 539 q 672 321 676 357 l 176 321 m 401 606 q 253 551 308 606 q 182 393 197 496 l 576 393 q 533 552 581 499 q 401 606 486 606 m 199 831 q 240 949 203 908 q 333 989 276 989 q 385 978 361 989 q 447 944 408 968 q 492 919 474 928 q 526 910 510 910 q 575 929 557 910 q 596 985 593 949 l 658 985 q 617 867 654 907 q 524 826 581 826 q 469 838 494 826 q 410 872 443 850 q 364 898 381 890 q 332 906 347 906 q 282 885 301 906 q 260 831 263 865 l 199 831 z "},"ə":{"ha":732,"x_min":56,"x_max":671,"o":"m 351 693 q 585 604 500 693 q 671 365 671 515 q 631 169 671 254 q 517 38 590 85 q 347 -10 443 -10 q 133 67 210 -10 q 56 294 56 143 q 60 363 56 328 l 558 363 l 558 367 q 503 539 558 478 q 346 600 447 600 q 122 522 221 600 l 92 604 q 206 669 133 644 q 351 693 279 693 m 342 76 q 483 132 429 76 q 553 290 538 188 l 157 290 q 201 130 153 183 q 342 76 250 76 z "},"f":{"ha":456,"x_min":31,"x_max":525,"o":"m 282 676 l 474 676 l 467 588 l 275 588 l 228 0 l 115 0 l 161 588 l 31 588 l 36 676 l 168 676 l 171 707 q 252 906 181 840 q 465 981 324 972 l 522 983 l 525 896 l 453 892 q 331 845 371 886 q 285 718 290 804 l 282 676 z "},"g":{"ha":814,"x_min":64,"x_max":736,"o":"m 736 676 l 686 49 q 364 -260 661 -260 q 64 -168 192 -260 l 107 -85 q 235 -149 176 -131 q 365 -168 293 -168 q 575 40 560 -168 l 583 139 q 490 52 550 83 q 358 21 431 21 q 145 106 225 21 q 65 332 65 190 q 105 519 65 438 q 217 647 144 601 q 385 693 289 693 q 525 658 465 693 q 615 561 585 624 l 624 676 l 736 676 m 383 114 q 542 185 485 114 q 600 379 600 256 q 547 542 600 485 q 396 600 493 600 q 237 528 294 600 q 179 332 179 457 q 232 170 179 226 q 383 114 285 114 z "},"ğ":{"ha":814,"x_min":64,"x_max":736,"o":"m 736 676 l 686 49 q 364 -260 661 -260 q 64 -168 192 -260 l 107 -85 q 235 -149 176 -131 q 365 -168 293 -168 q 575 40 560 -168 l 583 139 q 490 52 550 83 q 358 21 431 21 q 145 106 225 21 q 65 332 65 190 q 105 519 65 438 q 217 647 144 601 q 385 693 289 693 q 525 658 465 693 q 615 561 585 624 l 624 676 l 736 676 m 383 114 q 542 185 485 114 q 600 379 600 256 q 547 542 600 485 q 396 600 493 600 q 237 528 294 600 q 179 332 179 457 q 232 170 179 226 q 383 114 285 114 m 449 807 q 314 851 372 807 q 232 983 256 894 l 304 1013 q 454 890 351 890 q 545 918 504 890 q 621 1013 586 946 l 689 983 q 590 850 654 893 q 449 807 526 807 z "},"ǧ":{"ha":814,"x_min":64,"x_max":736,"o":"m 736 676 l 686 49 q 364 -260 661 -260 q 64 -168 192 -260 l 107 -85 q 235 -149 176 -131 q 365 -168 293 -168 q 575 40 560 -168 l 583 139 q 490 52 550 83 q 358 21 431 21 q 145 106 225 21 q 65 332 65 190 q 105 519 65 438 q 217 647 144 601 q 385 693 289 693 q 525 658 465 693 q 615 561 585 624 l 624 676 l 736 676 m 383 114 q 542 185 485 114 q 600 379 600 256 q 547 542 600 485 q 396 600 493 600 q 237 528 294 600 q 179 332 179 457 q 232 170 179 226 q 383 114 285 114 m 668 1046 l 483 765 l 404 765 l 263 1046 l 364 1046 l 449 847 l 563 1046 l 668 1046 z "},"ĝ":{"ha":814,"x_min":64,"x_max":736,"o":"m 736 676 l 686 49 q 364 -260 661 -260 q 64 -168 192 -260 l 107 -85 q 235 -149 176 -131 q 365 -168 293 -168 q 575 40 560 -168 l 583 139 q 490 52 550 83 q 358 21 431 21 q 145 106 225 21 q 65 332 65 190 q 105 519 65 438 q 217 647 144 601 q 385 693 289 693 q 525 658 465 693 q 615 561 585 624 l 624 676 l 736 676 m 383 114 q 542 185 485 114 q 600 379 600 256 q 547 542 600 485 q 396 600 493 600 q 237 528 294 600 q 179 332 179 457 q 232 170 179 226 q 383 114 285 114 m 240 765 l 426 1046 l 506 1046 l 646 765 l 546 765 l 460 964 l 346 765 l 240 765 z "},"ģ":{"ha":814,"x_min":64,"x_max":736,"o":"m 736 676 l 686 49 q 364 -260 661 -260 q 64 -168 192 -260 l 107 -85 q 235 -149 176 -131 q 365 -168 293 -168 q 575 40 560 -168 l 583 139 q 490 52 550 83 q 358 21 431 21 q 145 106 225 21 q 65 332 65 190 q 105 519 65 438 q 217 647 144 601 q 385 693 289 693 q 525 658 465 693 q 615 561 585 624 l 624 676 l 736 676 m 383 114 q 542 185 485 114 q 600 379 600 256 q 547 542 600 485 q 396 600 493 600 q 237 528 294 600 q 179 332 179 457 q 232 170 179 226 q 383 114 285 114 m 524 921 l 515 806 l 379 806 l 385 886 q 408 984 389 940 q 469 1065 428 1028 l 518 1028 q 477 976 490 1001 q 460 921 464 950 l 524 921 z "},"ġ":{"ha":814,"x_min":64,"x_max":736,"o":"m 736 676 l 686 49 q 364 -260 661 -260 q 64 -168 192 -260 l 107 -85 q 235 -149 176 -131 q 365 -168 293 -168 q 575 40 560 -168 l 583 139 q 490 52 550 83 q 358 21 431 21 q 145 106 225 21 q 65 332 65 190 q 105 519 65 438 q 217 647 144 601 q 385 693 289 693 q 525 658 465 693 q 615 561 585 624 l 624 676 l 736 676 m 383 114 q 542 185 485 114 q 600 379 600 256 q 547 542 600 485 q 396 600 493 600 q 237 528 294 600 q 179 332 179 457 q 232 170 179 226 q 383 114 285 114 m 528 969 l 518 843 l 381 843 l 392 969 l 528 969 z "},"ḡ":{"ha":814,"x_min":64,"x_max":736,"o":"m 736 676 l 686 49 q 364 -260 661 -260 q 64 -168 192 -260 l 107 -85 q 235 -149 176 -131 q 365 -168 293 -168 q 575 40 560 -168 l 583 139 q 490 52 550 83 q 358 21 431 21 q 145 106 225 21 q 65 332 65 190 q 105 519 65 438 q 217 647 144 601 q 385 693 289 693 q 525 658 465 693 q 615 561 585 624 l 624 676 l 736 676 m 383 114 q 542 185 485 114 q 600 379 600 256 q 547 542 600 485 q 396 600 493 600 q 237 528 294 600 q 179 332 179 457 q 232 170 179 226 q 383 114 285 114 m 250 949 l 665 949 l 658 864 l 243 864 l 250 949 z "},"h":{"ha":789,"x_min":78,"x_max":696,"o":"m 463 693 q 636 633 576 693 q 696 460 696 574 q 694 422 696 435 l 661 0 l 549 0 l 582 415 q 583 444 583 425 q 435 599 583 599 q 285 542 340 599 q 221 388 229 486 l 190 0 l 78 0 l 156 979 l 268 979 l 235 575 q 330 663 271 632 q 463 693 389 693 z "},"ħ":{"ha":789,"x_min":11,"x_max":696,"o":"m 463 693 q 636 633 576 693 q 696 460 696 574 q 694 422 696 435 l 661 0 l 549 0 l 582 415 q 583 444 583 425 q 435 599 583 599 q 285 542 340 599 q 221 388 229 486 l 190 0 l 78 0 l 138 771 l 11 771 l 18 856 l 144 856 l 154 979 l 267 979 l 257 856 l 525 856 l 518 771 l 250 771 l 235 575 q 330 663 271 632 q 463 693 389 693 z "},"ḫ":{"ha":789,"x_min":78,"x_max":696,"o":"m 463 693 q 636 633 576 693 q 696 460 696 574 q 694 422 696 435 l 661 0 l 549 0 l 582 415 q 583 444 583 425 q 435 599 583 599 q 285 542 340 599 q 221 388 229 486 l 190 0 l 78 0 l 156 979 l 268 979 l 235 575 q 330 663 271 632 q 463 693 389 693 m 349 -293 q 213 -249 272 -293 q 131 -118 154 -206 l 204 -87 q 354 -211 251 -211 q 445 -183 404 -211 q 519 -87 486 -154 l 589 -117 q 490 -251 554 -208 q 349 -293 426 -293 z "},"ĥ":{"ha":789,"x_min":15,"x_max":696,"o":"m 463 693 q 636 633 576 693 q 696 460 696 574 q 694 422 696 435 l 661 0 l 549 0 l 582 415 q 583 444 583 425 q 435 599 583 599 q 285 542 340 599 q 221 388 229 486 l 190 0 l 78 0 l 156 979 l 268 979 l 235 575 q 330 663 271 632 q 463 693 389 693 m 15 1063 l 197 1274 l 272 1274 l 421 1063 l 321 1063 l 233 1206 l 118 1063 l 15 1063 z "},"ḥ":{"ha":789,"x_min":78,"x_max":696,"o":"m 463 693 q 636 633 576 693 q 696 460 696 574 q 694 422 696 435 l 661 0 l 549 0 l 582 415 q 583 444 583 425 q 435 599 583 599 q 285 542 340 599 q 221 388 229 486 l 190 0 l 78 0 l 156 979 l 268 979 l 235 575 q 330 663 271 632 q 463 693 389 693 m 424 -131 l 413 -253 l 285 -253 l 296 -131 l 424 -131 z "},"i":{"ha":322,"x_min":78,"x_max":279,"o":"m 132 676 l 244 676 l 190 0 l 78 0 l 132 676 m 279 969 l 269 843 l 132 843 l 143 969 l 279 969 z "},"ı":{"ha":322,"x_min":78,"x_max":244,"o":"m 132 676 l 244 676 l 190 0 l 78 0 l 132 676 z "},"í":{"ha":322,"x_min":78,"x_max":447,"o":"m 132 676 l 244 676 l 190 0 l 78 0 l 132 676 m 156 765 l 313 1046 l 447 1046 l 233 765 l 156 765 z "},"ĭ":{"ha":322,"x_min":-17,"x_max":440,"o":"m 132 676 l 244 676 l 190 0 l 78 0 l 132 676 m 200 807 q 65 851 124 807 q -17 983 7 894 l 56 1013 q 206 890 103 890 q 297 918 256 890 q 372 1013 338 946 l 440 983 q 342 850 406 893 q 200 807 278 807 z "},"î":{"ha":322,"x_min":-8,"x_max":397,"o":"m 132 676 l 244 676 l 190 0 l 78 0 l 132 676 m -8 765 l 178 1046 l 257 1046 l 397 765 l 297 765 l 211 964 l 97 765 l -8 765 z "},"ȉ":{"ha":322,"x_min":-3,"x_max":307,"o":"m 132 676 l 244 676 l 190 0 l 78 0 l 132 676 m -3 1046 l 97 1046 l 139 765 l 82 765 l -3 1046 m 165 1046 l 264 1046 l 307 765 l 250 765 l 165 1046 z "},"ï":{"ha":322,"x_min":21,"x_max":392,"o":"m 132 676 l 244 676 l 190 0 l 78 0 l 132 676 m 154 965 l 144 847 l 21 847 l 31 965 l 154 965 m 392 965 l 382 847 l 258 847 l 268 965 l 392 965 z "},"ḯ":{"ha":322,"x_min":21,"x_max":468,"o":"m 132 676 l 244 676 l 190 0 l 78 0 l 132 676 m 154 965 l 144 847 l 21 847 l 31 965 l 154 965 m 392 965 l 382 847 l 258 847 l 268 965 l 392 965 m 176 1033 l 333 1314 l 468 1314 l 254 1033 l 176 1033 z "},"ị":{"ha":322,"x_min":49,"x_max":279,"o":"m 132 676 l 244 676 l 190 0 l 78 0 l 132 676 m 279 969 l 269 843 l 132 843 l 143 969 l 279 969 m 188 -131 l 176 -253 l 49 -253 l 60 -131 l 188 -131 z "},"ì":{"ha":322,"x_min":-7,"x_max":244,"o":"m 132 676 l 244 676 l 190 0 l 78 0 l 132 676 m -7 1046 l 114 1046 l 233 765 l 156 765 l -7 1046 z "},"ỉ":{"ha":322,"x_min":78,"x_max":356,"o":"m 132 676 l 244 676 l 190 0 l 78 0 l 132 676 m 235 765 l 161 765 l 164 803 q 183 853 167 832 q 225 896 199 874 q 255 926 246 915 q 264 950 264 938 q 250 974 264 965 q 210 982 236 982 q 126 967 181 982 l 111 1031 q 226 1051 165 1051 q 320 1026 285 1051 q 356 961 356 1001 q 339 908 356 929 q 292 864 322 888 q 250 826 263 842 q 236 789 238 811 l 235 765 z "},"ȋ":{"ha":322,"x_min":-29,"x_max":429,"o":"m 132 676 l 244 676 l 190 0 l 78 0 l 132 676 m 211 1011 q 347 967 288 1011 q 429 836 406 924 l 357 806 q 206 928 310 928 q 115 900 156 928 q 40 806 74 872 l -29 835 q 70 968 7 925 q 211 1011 133 1011 z "},"ī":{"ha":322,"x_min":-6,"x_max":417,"o":"m 132 676 l 244 676 l 190 0 l 78 0 l 132 676 m 1 949 l 417 949 l 410 864 l -6 864 l 1 949 z "},"į":{"ha":322,"x_min":-39,"x_max":279,"o":"m 279 969 l 269 843 l 132 843 l 143 969 l 279 969 m 183 0 q 83 -31 115 0 q 50 -111 50 -62 q 72 -173 50 -151 q 133 -194 94 -194 q 217 -171 169 -194 l 233 -236 q 179 -259 210 -250 q 118 -268 149 -268 q 3 -229 46 -268 q -39 -126 -39 -190 q -8 -26 -39 -69 q 81 39 22 17 l 132 676 l 244 676 l 190 0 l 183 0 z "},"ĩ":{"ha":322,"x_min":-24,"x_max":436,"o":"m 132 676 l 244 676 l 190 0 l 78 0 l 132 676 m -24 831 q 17 949 -19 908 q 111 989 54 989 q 163 978 139 989 q 225 944 186 968 q 269 919 251 928 q 304 910 288 910 q 353 929 335 910 q 374 985 371 949 l 436 985 q 395 867 432 907 q 301 826 358 826 q 247 838 272 826 q 188 872 221 850 q 142 898 158 890 q 110 906 125 906 q 60 885 79 906 q 38 831 40 865 l -24 831 z "},"j":{"ha":322,"x_min":-144,"x_max":279,"o":"m 192 8 q 118 -182 181 -121 q -78 -251 56 -243 l -140 -256 l -144 -168 l -79 -164 q 34 -122 -4 -158 q 78 -8 72 -85 l 132 676 l 244 676 l 192 8 m 279 969 l 269 843 l 132 843 l 143 969 l 279 969 z "},"ȷ":{"ha":322,"x_min":-144,"x_max":244,"o":"m 192 8 q 118 -182 181 -121 q -78 -251 56 -243 l -140 -256 l -144 -168 l -79 -164 q 34 -122 -4 -158 q 78 -8 72 -85 l 132 676 l 244 676 l 192 8 z "},"ĵ":{"ha":322,"x_min":-144,"x_max":397,"o":"m 192 8 q 118 -182 181 -121 q -78 -251 56 -243 l -140 -256 l -144 -168 l -79 -164 q 34 -122 -4 -158 q 78 -8 72 -85 l 132 676 l 244 676 l 192 8 m -8 765 l 178 1046 l 257 1046 l 397 765 l 297 765 l 211 964 l 97 765 l -8 765 z "},"k":{"ha":694,"x_min":78,"x_max":701,"o":"m 342 350 l 681 0 l 539 0 l 217 329 l 190 0 l 78 0 l 156 979 l 268 979 l 219 367 l 556 675 l 701 675 l 342 350 z "},"ķ":{"ha":694,"x_min":78,"x_max":701,"o":"m 342 350 l 681 0 l 539 0 l 217 329 l 190 0 l 78 0 l 156 979 l 268 979 l 219 367 l 556 675 l 701 675 l 342 350 m 381 -100 l 375 -181 q 351 -278 371 -235 q 290 -360 332 -322 l 242 -322 q 283 -271 269 -296 q 300 -215 296 -246 l 236 -215 l 244 -100 l 381 -100 z "},"ĸ":{"ha":694,"x_min":78,"x_max":701,"o":"m 342 350 l 681 0 l 539 0 l 217 329 l 190 0 l 78 0 l 132 676 l 244 676 l 219 367 l 556 675 l 701 675 l 342 350 z "},"l":{"ha":322,"x_min":78,"x_max":268,"o":"m 156 979 l 268 979 l 190 0 l 78 0 l 156 979 z "},"ĺ":{"ha":322,"x_min":78,"x_max":463,"o":"m 156 979 l 268 979 l 190 0 l 78 0 l 156 979 m 179 1063 l 332 1274 l 463 1274 l 257 1063 l 179 1063 z "},"ľ":{"ha":322,"x_min":78,"x_max":406,"o":"m 156 979 l 268 979 l 190 0 l 78 0 l 156 979 m 296 715 l 317 979 l 406 979 l 350 715 l 296 715 z "},"ļ":{"ha":322,"x_min":50,"x_max":268,"o":"m 156 979 l 268 979 l 190 0 l 78 0 l 156 979 m 194 -100 l 189 -181 q 165 -278 185 -235 q 104 -360 146 -322 l 56 -322 q 97 -271 83 -296 q 114 -215 110 -246 l 50 -215 l 58 -100 l 194 -100 z "},"ŀ":{"ha":363,"x_min":78,"x_max":418,"o":"m 156 979 l 268 979 l 190 0 l 78 0 l 156 979 m 418 556 l 408 425 l 267 425 l 276 556 l 418 556 z "},"ḷ":{"ha":322,"x_min":50,"x_max":268,"o":"m 156 979 l 268 979 l 190 0 l 78 0 l 156 979 m 189 -131 l 178 -253 l 50 -253 l 61 -131 l 189 -131 z "},"ǉ":{"ha":644,"x_min":78,"x_max":601,"o":"m 156 979 l 268 979 l 190 0 l 78 0 l 156 979 m 514 8 q 440 -182 503 -121 q 244 -251 378 -243 l 182 -256 l 178 -168 l 243 -164 q 356 -122 318 -158 q 400 -8 394 -85 l 454 676 l 567 676 l 514 8 m 601 969 l 592 843 l 454 843 l 465 969 l 601 969 z "},"ḻ":{"ha":322,"x_min":-92,"x_max":331,"o":"m 156 979 l 268 979 l 190 0 l 78 0 l 156 979 m -85 -151 l 331 -151 l 324 -233 l -92 -233 l -85 -151 z "},"ł":{"ha":392,"x_min":-3,"x_max":421,"o":"m 264 474 l 226 0 l 114 0 l 146 410 l 36 349 l -3 429 l 154 517 l 190 979 l 303 979 l 272 582 l 381 642 l 421 561 l 264 474 z "},"m":{"ha":1183,"x_min":78,"x_max":1090,"o":"m 876 693 q 1036 634 982 693 q 1090 463 1090 575 q 1089 422 1090 436 l 1056 0 l 943 0 l 976 417 q 978 450 978 428 q 945 563 978 526 q 846 599 913 599 q 711 543 761 599 q 654 385 661 488 l 624 0 l 511 0 l 544 417 q 546 450 546 428 q 513 563 546 526 q 414 599 481 599 q 279 543 329 599 q 221 385 229 488 l 190 0 l 78 0 l 132 675 l 242 675 l 233 576 q 446 693 303 693 q 574 660 524 693 q 646 565 625 628 q 740 660 681 626 q 876 693 800 693 z "},"ṃ":{"ha":1183,"x_min":78,"x_max":1090,"o":"m 876 693 q 1036 634 982 693 q 1090 463 1090 575 q 1089 422 1090 436 l 1056 0 l 943 0 l 976 417 q 978 450 978 428 q 945 563 978 526 q 846 599 913 599 q 711 543 761 599 q 654 385 661 488 l 624 0 l 511 0 l 544 417 q 546 450 546 428 q 513 563 546 526 q 414 599 481 599 q 279 543 329 599 q 221 385 229 488 l 190 0 l 78 0 l 132 675 l 242 675 l 233 576 q 446 693 303 693 q 574 660 524 693 q 646 565 625 628 q 740 660 681 626 q 876 693 800 693 m 621 -131 l 610 -253 l 482 -253 l 493 -131 l 621 -131 z "},"n":{"ha":789,"x_min":78,"x_max":696,"o":"m 463 693 q 636 633 576 693 q 696 460 696 574 q 694 422 696 435 l 661 0 l 549 0 l 582 415 q 583 444 583 425 q 435 599 583 599 q 285 542 340 599 q 221 388 229 486 l 190 0 l 78 0 l 132 676 l 242 676 l 233 572 q 328 661 268 629 q 463 693 388 693 z "},"ń":{"ha":789,"x_min":78,"x_max":696,"o":"m 463 693 q 636 633 576 693 q 696 460 696 574 q 694 422 696 435 l 661 0 l 549 0 l 582 415 q 583 444 583 425 q 435 599 583 599 q 285 542 340 599 q 221 388 229 486 l 190 0 l 78 0 l 132 676 l 242 676 l 233 572 q 328 661 268 629 q 463 693 388 693 m 390 765 l 547 1046 l 682 1046 l 468 765 l 390 765 z "},"ŉ":{"ha":789,"x_min":78,"x_max":696,"o":"m 328 1046 l 322 967 q 299 868 318 911 q 238 788 279 825 l 189 825 q 231 878 218 853 q 247 932 244 903 l 183 932 l 192 1046 l 328 1046 m 463 693 q 636 633 576 693 q 696 460 696 574 q 694 422 696 435 l 661 0 l 549 0 l 582 415 q 583 444 583 425 q 435 599 583 599 q 285 542 340 599 q 221 388 229 486 l 190 0 l 78 0 l 132 676 l 242 676 l 233 572 q 328 661 268 629 q 463 693 388 693 z "},"ň":{"ha":789,"x_min":78,"x_max":696,"o":"m 463 693 q 636 633 576 693 q 696 460 696 574 q 694 422 696 435 l 661 0 l 549 0 l 582 415 q 583 444 583 425 q 435 599 583 599 q 285 542 340 599 q 221 388 229 486 l 190 0 l 78 0 l 132 676 l 242 676 l 233 572 q 328 661 268 629 q 463 693 388 693 m 654 1046 l 469 765 l 390 765 l 249 1046 l 350 1046 l 435 847 l 549 1046 l 654 1046 z "},"ņ":{"ha":789,"x_min":78,"x_max":696,"o":"m 463 693 q 636 633 576 693 q 696 460 696 574 q 694 422 696 435 l 661 0 l 549 0 l 582 415 q 583 444 583 425 q 435 599 583 599 q 285 542 340 599 q 221 388 229 486 l 190 0 l 78 0 l 132 676 l 242 676 l 233 572 q 328 661 268 629 q 463 693 388 693 m 429 -100 l 424 -181 q 400 -278 419 -235 q 339 -360 381 -322 l 290 -322 q 331 -271 318 -296 q 349 -215 344 -246 l 285 -215 l 293 -100 l 429 -100 z "},"ṅ":{"ha":789,"x_min":78,"x_max":696,"o":"m 463 693 q 636 633 576 693 q 696 460 696 574 q 694 422 696 435 l 661 0 l 549 0 l 582 415 q 583 444 583 425 q 435 599 583 599 q 285 542 340 599 q 221 388 229 486 l 190 0 l 78 0 l 132 676 l 242 676 l 233 572 q 328 661 268 629 q 463 693 388 693 m 514 969 l 504 843 l 367 843 l 378 969 l 514 969 z "},"ṇ":{"ha":789,"x_min":78,"x_max":696,"o":"m 463 693 q 636 633 576 693 q 696 460 696 574 q 694 422 696 435 l 661 0 l 549 0 l 582 415 q 583 444 583 425 q 435 599 583 599 q 285 542 340 599 q 221 388 229 486 l 190 0 l 78 0 l 132 676 l 242 676 l 233 572 q 328 661 268 629 q 463 693 388 693 m 424 -131 l 413 -253 l 285 -253 l 296 -131 l 424 -131 z "},"ŋ":{"ha":789,"x_min":78,"x_max":696,"o":"m 463 693 q 637 634 578 693 q 696 460 696 575 q 694 422 696 435 l 663 13 q 587 -178 651 -115 q 392 -251 522 -242 l 329 -256 l 326 -168 l 390 -164 q 504 -119 465 -158 q 549 -3 543 -79 l 582 415 q 583 444 583 425 q 435 599 583 599 q 285 543 340 599 q 221 388 229 488 l 190 0 l 78 0 l 132 676 l 242 676 l 233 572 q 328 661 268 629 q 463 693 388 693 z "},"ǌ":{"ha":1111,"x_min":78,"x_max":1068,"o":"m 463 693 q 636 633 576 693 q 696 460 696 574 q 694 422 696 435 l 661 0 l 549 0 l 582 415 q 583 444 583 425 q 435 599 583 599 q 285 542 340 599 q 221 388 229 486 l 190 0 l 78 0 l 132 676 l 242 676 l 233 572 q 328 661 268 629 q 463 693 388 693 m 981 8 q 907 -182 969 -121 q 711 -251 844 -243 l 649 -256 l 644 -168 l 710 -164 q 823 -122 785 -158 q 867 -8 861 -85 l 921 676 l 1033 676 l 981 8 m 1068 969 l 1058 843 l 921 843 l 932 969 l 1068 969 z "},"ṉ":{"ha":789,"x_min":78,"x_max":696,"o":"m 463 693 q 636 633 576 693 q 696 460 696 574 q 694 422 696 435 l 661 0 l 549 0 l 582 415 q 583 444 583 425 q 435 599 583 599 q 285 542 340 599 q 221 388 229 486 l 190 0 l 78 0 l 132 676 l 242 676 l 233 572 q 328 661 268 629 q 463 693 388 693 m 150 -151 l 565 -151 l 558 -233 l 143 -233 l 150 -151 z "},"ñ":{"ha":789,"x_min":78,"x_max":696,"o":"m 463 693 q 636 633 576 693 q 696 460 696 574 q 694 422 696 435 l 661 0 l 549 0 l 582 415 q 583 444 583 425 q 435 599 583 599 q 285 542 340 599 q 221 388 229 486 l 190 0 l 78 0 l 132 676 l 242 676 l 233 572 q 328 661 268 629 q 463 693 388 693 m 211 831 q 252 949 215 908 q 346 989 289 989 q 397 978 374 989 q 460 944 421 968 q 504 919 486 928 q 539 910 522 910 q 588 929 569 910 q 608 985 606 949 l 671 985 q 630 867 667 907 q 536 826 593 826 q 481 838 507 826 q 422 872 456 850 q 376 898 393 890 q 344 906 360 906 q 294 885 314 906 q 272 831 275 865 l 211 831 z "},"o":{"ha":771,"x_min":64,"x_max":708,"o":"m 378 -10 q 212 31 283 -10 q 102 145 140 71 q 64 318 64 219 q 105 515 64 431 q 220 647 146 600 q 393 693 294 693 q 560 653 489 693 q 669 538 631 613 q 708 364 708 463 q 667 167 708 251 q 551 36 626 82 q 378 -10 476 -10 m 379 83 q 537 160 481 83 q 593 368 593 236 q 541 540 593 479 q 393 600 489 600 q 235 522 292 600 q 178 314 178 444 q 229 142 178 201 q 379 83 281 83 z "},"ó":{"ha":771,"x_min":64,"x_max":708,"o":"m 378 -10 q 212 31 283 -10 q 102 145 140 71 q 64 318 64 219 q 105 515 64 431 q 220 647 146 600 q 393 693 294 693 q 560 653 489 693 q 669 538 631 613 q 708 364 708 463 q 667 167 708 251 q 551 36 626 82 q 378 -10 476 -10 m 379 83 q 537 160 481 83 q 593 368 593 236 q 541 540 593 479 q 393 600 489 600 q 235 522 292 600 q 178 314 178 444 q 229 142 178 201 q 379 83 281 83 m 379 765 l 536 1046 l 671 1046 l 457 765 l 379 765 z "},"ŏ":{"ha":771,"x_min":64,"x_max":708,"o":"m 378 -10 q 212 31 283 -10 q 102 145 140 71 q 64 318 64 219 q 105 515 64 431 q 220 647 146 600 q 393 693 294 693 q 560 653 489 693 q 669 538 631 613 q 708 364 708 463 q 667 167 708 251 q 551 36 626 82 q 378 -10 476 -10 m 379 83 q 537 160 481 83 q 593 368 593 236 q 541 540 593 479 q 393 600 489 600 q 235 522 292 600 q 178 314 178 444 q 229 142 178 201 q 379 83 281 83 m 424 807 q 289 851 347 807 q 207 983 231 894 l 279 1013 q 429 890 326 890 q 520 918 479 890 q 596 1013 561 946 l 664 983 q 565 850 629 893 q 424 807 501 807 z "},"ô":{"ha":771,"x_min":64,"x_max":708,"o":"m 378 -10 q 212 31 283 -10 q 102 145 140 71 q 64 318 64 219 q 105 515 64 431 q 220 647 146 600 q 393 693 294 693 q 560 653 489 693 q 669 538 631 613 q 708 364 708 463 q 667 167 708 251 q 551 36 626 82 q 378 -10 476 -10 m 379 83 q 537 160 481 83 q 593 368 593 236 q 541 540 593 479 q 393 600 489 600 q 235 522 292 600 q 178 314 178 444 q 229 142 178 201 q 379 83 281 83 m 215 765 l 401 1046 l 481 1046 l 621 765 l 521 765 l 435 964 l 321 765 l 215 765 z "},"ố":{"ha":771,"x_min":64,"x_max":810,"o":"m 378 -10 q 212 31 283 -10 q 102 145 140 71 q 64 318 64 219 q 105 515 64 431 q 220 647 146 600 q 393 693 294 693 q 560 653 489 693 q 669 538 631 613 q 708 364 708 463 q 667 167 708 251 q 551 36 626 82 q 378 -10 476 -10 m 379 83 q 537 160 481 83 q 593 368 593 236 q 541 540 593 479 q 393 600 489 600 q 235 522 292 600 q 178 314 178 444 q 229 142 178 201 q 379 83 281 83 m 547 908 l 686 1106 l 810 1106 l 615 908 l 547 908 m 215 765 l 397 969 l 472 969 l 621 765 l 522 765 l 432 903 l 318 765 l 215 765 z "},"ộ":{"ha":771,"x_min":64,"x_max":708,"o":"m 378 -10 q 212 31 283 -10 q 102 145 140 71 q 64 318 64 219 q 105 515 64 431 q 220 647 146 600 q 393 693 294 693 q 560 653 489 693 q 669 538 631 613 q 708 364 708 463 q 667 167 708 251 q 551 36 626 82 q 378 -10 476 -10 m 379 83 q 537 160 481 83 q 593 368 593 236 q 541 540 593 479 q 393 600 489 600 q 235 522 292 600 q 178 314 178 444 q 229 142 178 201 q 379 83 281 83 m 413 -131 l 401 -253 l 274 -253 l 285 -131 l 413 -131 m 215 765 l 401 1046 l 481 1046 l 621 765 l 521 765 l 435 964 l 321 765 l 215 765 z "},"ồ":{"ha":771,"x_min":64,"x_max":708,"o":"m 378 -10 q 212 31 283 -10 q 102 145 140 71 q 64 318 64 219 q 105 515 64 431 q 220 647 146 600 q 393 693 294 693 q 560 653 489 693 q 669 538 631 613 q 708 364 708 463 q 667 167 708 251 q 551 36 626 82 q 378 -10 476 -10 m 379 83 q 537 160 481 83 q 593 368 593 236 q 541 540 593 479 q 393 600 489 600 q 235 522 292 600 q 178 314 178 444 q 229 142 178 201 q 379 83 281 83 m 469 1106 l 581 1106 l 675 908 l 607 908 l 469 1106 m 397 969 l 472 969 l 621 765 l 522 765 l 432 903 l 318 765 l 215 765 l 397 969 z "},"ổ":{"ha":771,"x_min":64,"x_max":738,"o":"m 378 -10 q 212 31 283 -10 q 102 145 140 71 q 64 318 64 219 q 105 515 64 431 q 220 647 146 600 q 393 693 294 693 q 560 653 489 693 q 669 538 631 613 q 708 364 708 463 q 667 167 708 251 q 551 36 626 82 q 378 -10 476 -10 m 379 83 q 537 160 481 83 q 593 368 593 236 q 541 540 593 479 q 393 600 489 600 q 235 522 292 600 q 178 314 178 444 q 229 142 178 201 q 379 83 281 83 m 547 932 q 566 970 549 957 q 613 994 583 983 q 640 1008 632 1003 q 649 1024 649 1014 q 599 1046 649 1046 q 507 1031 558 1046 l 493 1090 q 607 1113 549 1113 q 703 1090 668 1113 q 738 1033 738 1068 q 719 989 738 1004 q 669 960 701 974 q 635 943 647 951 q 621 921 622 935 l 619 908 l 546 908 l 547 932 m 397 969 l 472 969 l 621 765 l 522 765 l 432 903 l 318 765 l 215 765 l 397 969 z "},"ỗ":{"ha":771,"x_min":64,"x_max":708,"o":"m 378 -10 q 212 31 283 -10 q 102 145 140 71 q 64 318 64 219 q 105 515 64 431 q 220 647 146 600 q 393 693 294 693 q 560 653 489 693 q 669 538 631 613 q 708 364 708 463 q 667 167 708 251 q 551 36 626 82 q 378 -10 476 -10 m 379 83 q 537 160 481 83 q 593 368 593 236 q 541 540 593 479 q 393 600 489 600 q 235 522 292 600 q 178 314 178 444 q 229 142 178 201 q 379 83 281 83 m 213 990 q 253 1091 215 1054 q 346 1128 290 1128 q 399 1119 375 1128 q 463 1094 424 1111 q 507 1075 489 1082 q 542 1068 525 1068 q 589 1085 571 1068 q 608 1129 607 1101 l 671 1129 q 631 1030 669 1067 q 538 993 593 993 q 485 1001 508 993 q 422 1026 463 1008 q 378 1046 396 1039 q 342 1053 360 1053 q 294 1035 313 1053 q 275 990 276 1017 l 213 990 m 397 969 l 472 969 l 621 765 l 522 765 l 432 903 l 318 765 l 215 765 l 397 969 z "},"ȍ":{"ha":771,"x_min":64,"x_max":708,"o":"m 378 -10 q 212 31 283 -10 q 102 145 140 71 q 64 318 64 219 q 105 515 64 431 q 220 647 146 600 q 393 693 294 693 q 560 653 489 693 q 669 538 631 613 q 708 364 708 463 q 667 167 708 251 q 551 36 626 82 q 378 -10 476 -10 m 379 83 q 537 160 481 83 q 593 368 593 236 q 541 540 593 479 q 393 600 489 600 q 235 522 292 600 q 178 314 178 444 q 229 142 178 201 q 379 83 281 83 m 221 1046 l 321 1046 l 363 765 l 306 765 l 221 1046 m 389 1046 l 488 1046 l 531 765 l 474 765 l 389 1046 z "},"ö":{"ha":771,"x_min":64,"x_max":708,"o":"m 378 -10 q 212 31 283 -10 q 102 145 140 71 q 64 318 64 219 q 105 515 64 431 q 220 647 146 600 q 393 693 294 693 q 560 653 489 693 q 669 538 631 613 q 708 364 708 463 q 667 167 708 251 q 551 36 626 82 q 378 -10 476 -10 m 379 83 q 537 160 481 83 q 593 368 593 236 q 541 540 593 479 q 393 600 489 600 q 235 522 292 600 q 178 314 178 444 q 229 142 178 201 q 379 83 281 83 m 378 965 l 368 847 l 244 847 l 254 965 l 378 965 m 615 965 l 606 847 l 482 847 l 492 965 l 615 965 z "},"ȫ":{"ha":771,"x_min":64,"x_max":708,"o":"m 378 -10 q 212 31 283 -10 q 102 145 140 71 q 64 318 64 219 q 105 515 64 431 q 220 647 146 600 q 393 693 294 693 q 560 653 489 693 q 669 538 631 613 q 708 364 708 463 q 667 167 708 251 q 551 36 626 82 q 378 -10 476 -10 m 379 83 q 537 160 481 83 q 593 368 593 236 q 541 540 593 479 q 393 600 489 600 q 235 522 292 600 q 178 314 178 444 q 229 142 178 201 q 379 83 281 83 m 378 965 l 368 847 l 244 847 l 254 965 l 378 965 m 615 965 l 606 847 l 482 847 l 492 965 l 615 965 m 246 1217 l 661 1217 l 654 1132 l 239 1132 l 246 1217 z "},"ȱ":{"ha":771,"x_min":64,"x_max":708,"o":"m 378 -10 q 212 31 283 -10 q 102 145 140 71 q 64 318 64 219 q 105 515 64 431 q 220 647 146 600 q 393 693 294 693 q 560 653 489 693 q 669 538 631 613 q 708 364 708 463 q 667 167 708 251 q 551 36 626 82 q 378 -10 476 -10 m 379 83 q 537 160 481 83 q 593 368 593 236 q 541 540 593 479 q 393 600 489 600 q 235 522 292 600 q 178 314 178 444 q 229 142 178 201 q 379 83 281 83 m 503 969 l 493 843 l 356 843 l 367 969 l 503 969 m 246 1217 l 661 1217 l 654 1132 l 239 1132 l 246 1217 z "},"ọ":{"ha":771,"x_min":64,"x_max":708,"o":"m 378 -10 q 212 31 283 -10 q 102 145 140 71 q 64 318 64 219 q 105 515 64 431 q 220 647 146 600 q 393 693 294 693 q 560 653 489 693 q 669 538 631 613 q 708 364 708 463 q 667 167 708 251 q 551 36 626 82 q 378 -10 476 -10 m 379 83 q 537 160 481 83 q 593 368 593 236 q 541 540 593 479 q 393 600 489 600 q 235 522 292 600 q 178 314 178 444 q 229 142 178 201 q 379 83 281 83 m 413 -131 l 401 -253 l 274 -253 l 285 -131 l 413 -131 z "},"ò":{"ha":771,"x_min":64,"x_max":708,"o":"m 378 -10 q 212 31 283 -10 q 102 145 140 71 q 64 318 64 219 q 105 515 64 431 q 220 647 146 600 q 393 693 294 693 q 560 653 489 693 q 669 538 631 613 q 708 364 708 463 q 667 167 708 251 q 551 36 626 82 q 378 -10 476 -10 m 379 83 q 537 160 481 83 q 593 368 593 236 q 541 540 593 479 q 393 600 489 600 q 235 522 292 600 q 178 314 178 444 q 229 142 178 201 q 379 83 281 83 m 217 1046 l 338 1046 l 457 765 l 379 765 l 217 1046 z "},"ỏ":{"ha":771,"x_min":64,"x_max":708,"o":"m 378 -10 q 212 31 283 -10 q 102 145 140 71 q 64 318 64 219 q 105 515 64 431 q 220 647 146 600 q 393 693 294 693 q 560 653 489 693 q 669 538 631 613 q 708 364 708 463 q 667 167 708 251 q 551 36 626 82 q 378 -10 476 -10 m 379 83 q 537 160 481 83 q 593 368 593 236 q 541 540 593 479 q 393 600 489 600 q 235 522 292 600 q 178 314 178 444 q 229 142 178 201 q 379 83 281 83 m 458 765 l 385 765 l 388 803 q 406 853 390 832 q 449 896 422 874 q 478 926 469 915 q 488 950 488 938 q 474 974 488 965 q 433 982 460 982 q 350 967 404 982 l 335 1031 q 450 1051 389 1051 q 544 1026 508 1051 q 579 961 579 1001 q 563 908 579 929 q 515 864 546 888 q 474 826 486 842 q 460 789 461 811 l 458 765 z "},"ơ":{"ha":771,"x_min":64,"x_max":751,"o":"m 750 819 q 706 691 743 742 q 603 622 669 640 q 681 510 654 578 q 708 364 708 442 q 667 167 708 251 q 551 36 626 82 q 378 -10 476 -10 q 212 31 283 -10 q 102 145 140 71 q 64 318 64 219 q 105 515 64 431 q 221 647 146 600 q 394 693 296 693 q 475 688 431 693 q 513 683 499 683 q 610 718 576 683 q 650 835 644 753 l 651 856 l 751 856 l 750 819 m 379 83 q 537 160 481 83 q 593 368 593 236 q 541 540 593 479 q 393 600 489 600 q 235 522 292 600 q 178 314 178 444 q 229 142 178 201 q 379 83 281 83 z "},"ớ":{"ha":771,"x_min":64,"x_max":751,"o":"m 750 819 q 706 691 743 742 q 603 622 669 640 q 681 510 654 578 q 708 364 708 442 q 667 167 708 251 q 551 36 626 82 q 378 -10 476 -10 q 212 31 283 -10 q 102 145 140 71 q 64 318 64 219 q 105 515 64 431 q 221 647 146 600 q 394 693 296 693 q 475 688 431 693 q 513 683 499 683 q 610 718 576 683 q 650 835 644 753 l 651 856 l 751 856 l 750 819 m 379 83 q 537 160 481 83 q 593 368 593 236 q 541 540 593 479 q 393 600 489 600 q 235 522 292 600 q 178 314 178 444 q 229 142 178 201 q 379 83 281 83 m 379 765 l 536 1046 l 671 1046 l 457 765 l 379 765 z "},"ợ":{"ha":771,"x_min":64,"x_max":751,"o":"m 750 819 q 706 691 743 742 q 603 622 669 640 q 681 510 654 578 q 708 364 708 442 q 667 167 708 251 q 551 36 626 82 q 378 -10 476 -10 q 212 31 283 -10 q 102 145 140 71 q 64 318 64 219 q 105 515 64 431 q 221 647 146 600 q 394 693 296 693 q 475 688 431 693 q 513 683 499 683 q 610 718 576 683 q 650 835 644 753 l 651 856 l 751 856 l 750 819 m 379 83 q 537 160 481 83 q 593 368 593 236 q 541 540 593 479 q 393 600 489 600 q 235 522 292 600 q 178 314 178 444 q 229 142 178 201 q 379 83 281 83 m 413 -131 l 401 -253 l 274 -253 l 285 -131 l 413 -131 z "},"ờ":{"ha":771,"x_min":64,"x_max":751,"o":"m 750 819 q 706 691 743 742 q 603 622 669 640 q 681 510 654 578 q 708 364 708 442 q 667 167 708 251 q 551 36 626 82 q 378 -10 476 -10 q 212 31 283 -10 q 102 145 140 71 q 64 318 64 219 q 105 515 64 431 q 221 647 146 600 q 394 693 296 693 q 475 688 431 693 q 513 683 499 683 q 610 718 576 683 q 650 835 644 753 l 651 856 l 751 856 l 750 819 m 379 83 q 537 160 481 83 q 593 368 593 236 q 541 540 593 479 q 393 600 489 600 q 235 522 292 600 q 178 314 178 444 q 229 142 178 201 q 379 83 281 83 m 217 1046 l 338 1046 l 457 765 l 379 765 l 217 1046 z "},"ở":{"ha":771,"x_min":64,"x_max":751,"o":"m 750 819 q 706 691 743 742 q 603 622 669 640 q 681 510 654 578 q 708 364 708 442 q 667 167 708 251 q 551 36 626 82 q 378 -10 476 -10 q 212 31 283 -10 q 102 145 140 71 q 64 318 64 219 q 105 515 64 431 q 221 647 146 600 q 394 693 296 693 q 475 688 431 693 q 513 683 499 683 q 610 718 576 683 q 650 835 644 753 l 651 856 l 751 856 l 750 819 m 379 83 q 537 160 481 83 q 593 368 593 236 q 541 540 593 479 q 393 600 489 600 q 235 522 292 600 q 178 314 178 444 q 229 142 178 201 q 379 83 281 83 m 458 765 l 385 765 l 388 803 q 406 853 390 832 q 449 896 422 874 q 478 926 469 915 q 488 950 488 938 q 474 974 488 965 q 433 982 460 982 q 350 967 404 982 l 335 1031 q 450 1051 389 1051 q 544 1026 508 1051 q 579 961 579 1001 q 563 908 579 929 q 515 864 546 888 q 474 826 486 842 q 460 789 461 811 l 458 765 z "},"ỡ":{"ha":771,"x_min":64,"x_max":751,"o":"m 750 819 q 706 691 743 742 q 603 622 669 640 q 681 510 654 578 q 708 364 708 442 q 667 167 708 251 q 551 36 626 82 q 378 -10 476 -10 q 212 31 283 -10 q 102 145 140 71 q 64 318 64 219 q 105 515 64 431 q 221 647 146 600 q 394 693 296 693 q 475 688 431 693 q 513 683 499 683 q 610 718 576 683 q 650 835 644 753 l 651 856 l 751 856 l 750 819 m 379 83 q 537 160 481 83 q 593 368 593 236 q 541 540 593 479 q 393 600 489 600 q 235 522 292 600 q 178 314 178 444 q 229 142 178 201 q 379 83 281 83 m 200 831 q 241 949 204 908 q 335 989 278 989 q 386 978 363 989 q 449 944 410 968 q 493 919 475 928 q 528 910 511 910 q 576 929 558 910 q 597 985 594 949 l 660 985 q 619 867 656 907 q 525 826 582 826 q 470 838 496 826 q 411 872 444 850 q 365 898 382 890 q 333 906 349 906 q 283 885 303 906 q 261 831 264 865 l 200 831 z "},"ő":{"ha":771,"x_min":64,"x_max":708,"o":"m 378 -10 q 212 31 283 -10 q 102 145 140 71 q 64 318 64 219 q 105 515 64 431 q 220 647 146 600 q 393 693 294 693 q 560 653 489 693 q 669 538 631 613 q 708 364 708 463 q 667 167 708 251 q 551 36 626 82 q 378 -10 476 -10 m 379 83 q 537 160 481 83 q 593 368 593 236 q 541 540 593 479 q 393 600 489 600 q 235 522 292 600 q 178 314 178 444 q 229 142 178 201 q 379 83 281 83 m 306 765 l 390 1046 l 496 1046 l 363 765 l 306 765 m 474 765 l 557 1046 l 664 1046 l 531 765 l 474 765 z "},"ȏ":{"ha":771,"x_min":64,"x_max":708,"o":"m 378 -10 q 212 31 283 -10 q 102 145 140 71 q 64 318 64 219 q 105 515 64 431 q 220 647 146 600 q 393 693 294 693 q 560 653 489 693 q 669 538 631 613 q 708 364 708 463 q 667 167 708 251 q 551 36 626 82 q 378 -10 476 -10 m 379 83 q 537 160 481 83 q 593 368 593 236 q 541 540 593 479 q 393 600 489 600 q 235 522 292 600 q 178 314 178 444 q 229 142 178 201 q 379 83 281 83 m 435 1011 q 570 967 511 1011 q 653 836 629 924 l 581 806 q 429 928 533 928 q 338 900 379 928 q 264 806 297 872 l 194 835 q 294 968 231 925 q 435 1011 357 1011 z "},"ō":{"ha":771,"x_min":64,"x_max":708,"o":"m 378 -10 q 212 31 283 -10 q 102 145 140 71 q 64 318 64 219 q 105 515 64 431 q 220 647 146 600 q 393 693 294 693 q 560 653 489 693 q 669 538 631 613 q 708 364 708 463 q 667 167 708 251 q 551 36 626 82 q 378 -10 476 -10 m 379 83 q 537 160 481 83 q 593 368 593 236 q 541 540 593 479 q 393 600 489 600 q 235 522 292 600 q 178 314 178 444 q 229 142 178 201 q 379 83 281 83 m 225 949 l 640 949 l 633 864 l 218 864 l 225 949 z "},"ṓ":{"ha":771,"x_min":64,"x_max":708,"o":"m 378 -10 q 212 31 283 -10 q 102 145 140 71 q 64 318 64 219 q 105 515 64 431 q 220 647 146 600 q 393 693 294 693 q 560 653 489 693 q 669 538 631 613 q 708 364 708 463 q 667 167 708 251 q 551 36 626 82 q 378 -10 476 -10 m 379 83 q 537 160 481 83 q 593 368 593 236 q 541 540 593 479 q 393 600 489 600 q 235 522 292 600 q 178 314 178 444 q 229 142 178 201 q 379 83 281 83 m 225 949 l 640 949 l 633 864 l 218 864 l 225 949 m 400 1033 l 557 1314 l 692 1314 l 478 1033 l 400 1033 z "},"ṑ":{"ha":771,"x_min":64,"x_max":708,"o":"m 378 -10 q 212 31 283 -10 q 102 145 140 71 q 64 318 64 219 q 105 515 64 431 q 220 647 146 600 q 393 693 294 693 q 560 653 489 693 q 669 538 631 613 q 708 364 708 463 q 667 167 708 251 q 551 36 626 82 q 378 -10 476 -10 m 379 83 q 537 160 481 83 q 593 368 593 236 q 541 540 593 479 q 393 600 489 600 q 235 522 292 600 q 178 314 178 444 q 229 142 178 201 q 379 83 281 83 m 225 949 l 640 949 l 633 864 l 218 864 l 225 949 m 238 1314 l 358 1314 l 478 1033 l 400 1033 l 238 1314 z "},"ǫ":{"ha":771,"x_min":64,"x_max":708,"o":"m 478 4 q 384 -42 414 -15 q 354 -112 354 -69 q 376 -174 354 -153 q 436 -194 397 -194 q 519 -171 472 -194 l 538 -236 q 421 -268 483 -268 q 308 -230 350 -268 q 265 -131 265 -192 q 322 -7 265 -51 q 134 97 204 10 q 64 318 64 183 q 105 515 64 431 q 220 647 146 600 q 393 693 294 693 q 560 653 489 693 q 669 538 631 613 q 708 364 708 463 q 644 124 708 214 q 478 4 579 35 m 178 314 q 229 142 178 201 q 379 83 281 83 q 537 160 481 83 q 593 368 593 236 q 541 540 593 479 q 393 600 489 600 q 235 522 292 600 q 178 314 178 444 z "},"ø":{"ha":771,"x_min":64,"x_max":708,"o":"m 611 615 q 683 507 658 571 q 708 364 708 443 q 667 167 708 251 q 551 36 626 82 q 378 -10 476 -10 q 222 25 292 -10 l 164 -64 l 100 -24 l 161 68 q 89 175 114 111 q 64 318 64 239 q 105 515 64 431 q 220 647 146 600 q 393 693 294 693 q 550 658 481 693 l 608 746 l 672 707 l 611 615 m 178 314 q 218 156 178 215 l 496 576 q 393 600 453 600 q 234 523 290 600 q 178 314 178 446 m 379 82 q 538 159 482 82 q 594 368 594 236 q 553 526 594 468 l 275 106 q 379 82 319 82 z "},"ǿ":{"ha":771,"x_min":64,"x_max":708,"o":"m 611 615 q 683 507 658 571 q 708 364 708 443 q 667 167 708 251 q 551 36 626 82 q 378 -10 476 -10 q 222 25 292 -10 l 164 -64 l 100 -24 l 161 68 q 89 175 114 111 q 64 318 64 239 q 105 515 64 431 q 220 647 146 600 q 393 693 294 693 q 550 658 481 693 l 608 746 l 672 707 l 611 615 m 178 314 q 218 156 178 215 l 496 576 q 393 600 453 600 q 234 523 290 600 q 178 314 178 446 m 379 82 q 538 159 482 82 q 594 368 594 236 q 553 526 594 468 l 275 106 q 379 82 319 82 m 379 765 l 536 1046 l 671 1046 l 457 765 l 379 765 z "},"õ":{"ha":771,"x_min":64,"x_max":708,"o":"m 378 -10 q 212 31 283 -10 q 102 145 140 71 q 64 318 64 219 q 105 515 64 431 q 220 647 146 600 q 393 693 294 693 q 560 653 489 693 q 669 538 631 613 q 708 364 708 463 q 667 167 708 251 q 551 36 626 82 q 378 -10 476 -10 m 379 83 q 537 160 481 83 q 593 368 593 236 q 541 540 593 479 q 393 600 489 600 q 235 522 292 600 q 178 314 178 444 q 229 142 178 201 q 379 83 281 83 m 200 831 q 241 949 204 908 q 335 989 278 989 q 386 978 363 989 q 449 944 410 968 q 493 919 475 928 q 528 910 511 910 q 576 929 558 910 q 597 985 594 949 l 660 985 q 619 867 656 907 q 525 826 582 826 q 470 838 496 826 q 411 872 444 850 q 365 898 382 890 q 333 906 349 906 q 283 885 303 906 q 261 831 264 865 l 200 831 z "},"ṍ":{"ha":771,"x_min":64,"x_max":708,"o":"m 378 -10 q 212 31 283 -10 q 102 145 140 71 q 64 318 64 219 q 105 515 64 431 q 220 647 146 600 q 393 693 294 693 q 560 653 489 693 q 669 538 631 613 q 708 364 708 463 q 667 167 708 251 q 551 36 626 82 q 378 -10 476 -10 m 379 83 q 537 160 481 83 q 593 368 593 236 q 541 540 593 479 q 393 600 489 600 q 235 522 292 600 q 178 314 178 444 q 229 142 178 201 q 379 83 281 83 m 200 831 q 241 949 204 908 q 335 989 278 989 q 386 978 363 989 q 449 944 410 968 q 493 919 475 928 q 528 910 511 910 q 576 929 558 910 q 597 985 594 949 l 660 985 q 619 867 656 907 q 525 826 582 826 q 470 838 496 826 q 411 872 444 850 q 365 898 382 890 q 333 906 349 906 q 283 885 303 906 q 261 831 264 865 l 200 831 m 400 1033 l 557 1314 l 692 1314 l 478 1033 l 400 1033 z "},"ṏ":{"ha":771,"x_min":64,"x_max":708,"o":"m 378 -10 q 212 31 283 -10 q 102 145 140 71 q 64 318 64 219 q 105 515 64 431 q 220 647 146 600 q 393 693 294 693 q 560 653 489 693 q 669 538 631 613 q 708 364 708 463 q 667 167 708 251 q 551 36 626 82 q 378 -10 476 -10 m 379 83 q 537 160 481 83 q 593 368 593 236 q 541 540 593 479 q 393 600 489 600 q 235 522 292 600 q 178 314 178 444 q 229 142 178 201 q 379 83 281 83 m 200 831 q 241 949 204 908 q 335 989 278 989 q 386 978 363 989 q 449 944 410 968 q 493 919 475 928 q 528 910 511 910 q 576 929 558 910 q 597 985 594 949 l 660 985 q 619 867 656 907 q 525 826 582 826 q 470 838 496 826 q 411 872 444 850 q 365 898 382 890 q 333 906 349 906 q 283 885 303 906 q 261 831 264 865 l 200 831 m 399 1233 l 389 1115 l 265 1115 l 275 1233 l 399 1233 m 636 1233 l 626 1115 l 503 1115 l 513 1233 l 636 1233 z "},"ȭ":{"ha":771,"x_min":64,"x_max":708,"o":"m 378 -10 q 212 31 283 -10 q 102 145 140 71 q 64 318 64 219 q 105 515 64 431 q 220 647 146 600 q 393 693 294 693 q 560 653 489 693 q 669 538 631 613 q 708 364 708 463 q 667 167 708 251 q 551 36 626 82 q 378 -10 476 -10 m 379 83 q 537 160 481 83 q 593 368 593 236 q 541 540 593 479 q 393 600 489 600 q 235 522 292 600 q 178 314 178 444 q 229 142 178 201 q 379 83 281 83 m 200 831 q 241 949 204 908 q 335 989 278 989 q 386 978 363 989 q 449 944 410 968 q 493 919 475 928 q 528 910 511 910 q 576 929 558 910 q 597 985 594 949 l 660 985 q 619 867 656 907 q 525 826 582 826 q 470 838 496 826 q 411 872 444 850 q 365 898 382 890 q 333 906 349 906 q 283 885 303 906 q 261 831 264 865 l 200 831 m 246 1217 l 661 1217 l 654 1132 l 239 1132 l 246 1217 z "},"œ":{"ha":1256,"x_min":64,"x_max":1200,"o":"m 704 321 l 704 315 q 760 143 704 204 q 922 82 815 82 q 1031 102 976 82 q 1135 161 1086 122 l 1165 78 q 1055 15 1125 39 q 918 -10 985 -10 q 749 31 819 -10 q 643 146 679 71 q 535 31 604 72 q 375 -10 467 -10 q 211 31 282 -10 q 102 145 140 71 q 64 318 64 219 q 105 515 64 431 q 220 647 146 600 q 393 693 294 693 q 657 536 588 693 q 765 652 696 611 q 926 693 833 693 q 1126 615 1053 693 q 1200 389 1200 538 q 1196 321 1200 357 l 704 321 m 931 606 q 781 551 838 606 q 710 393 725 496 l 1100 393 q 1058 551 1104 497 q 931 606 1013 606 m 379 83 q 536 160 481 83 q 592 368 592 236 q 540 540 592 479 q 393 600 488 600 q 235 522 292 600 q 178 314 178 444 q 229 142 178 201 q 379 83 281 83 z "},"p":{"ha":808,"x_min":58,"x_max":746,"o":"m 458 693 q 608 653 543 693 q 710 538 674 613 q 746 365 746 464 q 706 169 746 254 q 594 37 667 83 q 428 -10 522 -10 q 290 24 349 -10 q 200 119 231 58 l 171 -250 l 58 -250 l 131 676 l 243 676 l 235 574 q 328 661 268 629 q 458 693 388 693 m 418 83 q 574 158 517 83 q 631 365 631 233 q 578 538 631 476 q 429 600 525 600 q 272 524 329 600 q 215 317 215 449 q 267 143 215 203 q 418 83 319 83 z "},"þ":{"ha":808,"x_min":58,"x_max":746,"o":"m 458 693 q 608 653 543 693 q 710 538 674 613 q 746 365 746 464 q 706 169 746 254 q 594 37 667 83 q 428 -10 522 -10 q 290 24 349 -10 q 200 119 231 58 l 171 -250 l 58 -250 l 156 979 l 268 979 l 236 576 q 330 662 271 631 q 458 693 389 693 m 418 83 q 574 158 517 83 q 631 365 631 233 q 578 538 631 476 q 429 600 525 600 q 272 524 329 600 q 215 317 215 449 q 267 143 215 203 q 418 83 319 83 z "},"q":{"ha":808,"x_min":63,"x_max":731,"o":"m 731 676 l 657 -250 l 544 -250 l 572 106 q 478 21 538 51 q 350 -10 419 -10 q 200 31 265 -10 q 99 144 135 71 q 63 317 63 218 q 103 513 63 428 q 215 646 143 599 q 381 693 288 693 q 519 658 460 693 q 608 560 579 622 l 618 676 l 731 676 m 379 83 q 536 159 479 83 q 593 365 593 235 q 541 540 593 479 q 392 600 489 600 q 235 524 292 600 q 178 317 178 449 q 231 144 178 206 q 379 83 283 83 z "},"r":{"ha":490,"x_min":78,"x_max":507,"o":"m 507 693 l 507 596 l 431 589 q 279 529 329 579 q 222 386 229 479 l 190 0 l 78 0 l 132 675 l 240 675 l 232 567 q 326 653 268 624 q 469 690 383 683 l 507 693 z "},"ŕ":{"ha":490,"x_min":78,"x_max":583,"o":"m 507 693 l 507 596 l 431 589 q 279 529 329 579 q 222 386 229 479 l 190 0 l 78 0 l 132 675 l 240 675 l 232 567 q 326 653 268 624 q 469 690 383 683 l 507 693 m 292 765 l 449 1046 l 583 1046 l 369 765 l 292 765 z "},"ř":{"ha":490,"x_min":78,"x_max":556,"o":"m 507 693 l 507 596 l 431 589 q 279 529 329 579 q 222 386 229 479 l 190 0 l 78 0 l 132 675 l 240 675 l 232 567 q 326 653 268 624 q 469 690 383 683 l 507 693 m 556 1046 l 371 765 l 292 765 l 150 1046 l 251 1046 l 336 847 l 450 1046 l 556 1046 z "},"ŗ":{"ha":490,"x_min":50,"x_max":507,"o":"m 507 693 l 507 596 l 431 589 q 279 529 329 579 q 222 386 229 479 l 190 0 l 78 0 l 132 675 l 240 675 l 232 567 q 326 653 268 624 q 469 690 383 683 l 507 693 m 194 -100 l 189 -181 q 165 -278 185 -235 q 104 -360 146 -322 l 56 -322 q 97 -271 83 -296 q 114 -215 110 -246 l 50 -215 l 58 -100 l 194 -100 z "},"ȑ":{"ha":490,"x_min":78,"x_max":507,"o":"m 507 693 l 507 596 l 431 589 q 279 529 329 579 q 222 386 229 479 l 190 0 l 78 0 l 132 675 l 240 675 l 232 567 q 326 653 268 624 q 469 690 383 683 l 507 693 m 133 1046 l 233 1046 l 275 765 l 218 765 l 133 1046 m 301 1046 l 400 1046 l 443 765 l 386 765 l 301 1046 z "},"ṛ":{"ha":490,"x_min":50,"x_max":507,"o":"m 507 693 l 507 596 l 431 589 q 279 529 329 579 q 222 386 229 479 l 190 0 l 78 0 l 132 675 l 240 675 l 232 567 q 326 653 268 624 q 469 690 383 683 l 507 693 m 189 -131 l 178 -253 l 50 -253 l 61 -131 l 189 -131 z "},"ȓ":{"ha":490,"x_min":78,"x_max":565,"o":"m 507 693 l 507 596 l 431 589 q 279 529 329 579 q 222 386 229 479 l 190 0 l 78 0 l 132 675 l 240 675 l 232 567 q 326 653 268 624 q 469 690 383 683 l 507 693 m 347 1011 q 483 967 424 1011 q 565 836 542 924 l 493 806 q 342 928 446 928 q 251 900 292 928 q 176 806 210 872 l 107 835 q 206 968 143 925 q 347 1011 269 1011 z "},"ṟ":{"ha":490,"x_min":-92,"x_max":507,"o":"m 507 693 l 507 596 l 431 589 q 279 529 329 579 q 222 386 229 479 l 190 0 l 78 0 l 132 675 l 240 675 l 232 567 q 326 653 268 624 q 469 690 383 683 l 507 693 m -85 -151 l 331 -151 l 324 -233 l -92 -233 l -85 -151 z "},"s":{"ha":667,"x_min":42,"x_max":610,"o":"m 315 -10 q 167 13 238 -10 q 42 78 96 36 l 86 161 q 197 100 142 119 q 318 81 253 81 q 481 181 481 81 q 442 249 481 226 q 319 296 403 271 q 203 336 247 317 q 128 392 160 356 q 97 490 97 429 q 171 638 97 582 q 365 693 244 693 q 502 669 438 693 q 610 604 567 646 l 565 522 q 365 601 474 601 q 248 574 289 601 q 207 496 207 547 q 247 428 207 450 q 367 382 286 406 q 482 342 438 361 q 558 285 526 322 q 589 186 589 247 q 514 43 589 96 q 315 -10 439 -10 z "},"ś":{"ha":667,"x_min":42,"x_max":632,"o":"m 315 -10 q 167 13 238 -10 q 42 78 96 36 l 86 161 q 197 100 142 119 q 318 81 253 81 q 481 181 481 81 q 442 249 481 226 q 319 296 403 271 q 203 336 247 317 q 128 392 160 356 q 97 490 97 429 q 171 638 97 582 q 365 693 244 693 q 502 669 438 693 q 610 604 567 646 l 565 522 q 365 601 474 601 q 248 574 289 601 q 207 496 207 547 q 247 428 207 450 q 367 382 286 406 q 482 342 438 361 q 558 285 526 322 q 589 186 589 247 q 514 43 589 96 q 315 -10 439 -10 m 340 765 l 497 1046 l 632 1046 l 418 765 l 340 765 z "},"ṥ":{"ha":667,"x_min":42,"x_max":638,"o":"m 315 -10 q 167 13 238 -10 q 42 78 96 36 l 86 161 q 197 100 142 119 q 318 81 253 81 q 481 181 481 81 q 442 249 481 226 q 319 296 403 271 q 203 336 247 317 q 128 392 160 356 q 97 490 97 429 q 171 638 97 582 q 365 693 244 693 q 502 669 438 693 q 610 604 567 646 l 565 522 q 365 601 474 601 q 248 574 289 601 q 207 496 207 547 q 247 428 207 450 q 367 382 286 406 q 482 342 438 361 q 558 285 526 322 q 589 186 589 247 q 514 43 589 96 q 315 -10 439 -10 m 346 765 l 503 1046 l 638 1046 l 424 765 l 346 765 m 332 1046 l 322 919 l 185 919 l 196 1046 l 332 1046 z "},"š":{"ha":667,"x_min":42,"x_max":610,"o":"m 315 -10 q 167 13 238 -10 q 42 78 96 36 l 86 161 q 197 100 142 119 q 318 81 253 81 q 481 181 481 81 q 442 249 481 226 q 319 296 403 271 q 203 336 247 317 q 128 392 160 356 q 97 490 97 429 q 171 638 97 582 q 365 693 244 693 q 502 669 438 693 q 610 604 567 646 l 565 522 q 365 601 474 601 q 248 574 289 601 q 207 496 207 547 q 247 428 207 450 q 367 382 286 406 q 482 342 438 361 q 558 285 526 322 q 589 186 589 247 q 514 43 589 96 q 315 -10 439 -10 m 604 1046 l 419 765 l 340 765 l 199 1046 l 300 1046 l 385 847 l 499 1046 l 604 1046 z "},"ṧ":{"ha":667,"x_min":42,"x_max":610,"o":"m 315 -10 q 167 13 238 -10 q 42 78 96 36 l 86 161 q 197 100 142 119 q 318 81 253 81 q 481 181 481 81 q 442 249 481 226 q 319 296 403 271 q 203 336 247 317 q 128 392 160 356 q 97 490 97 429 q 171 638 97 582 q 365 693 244 693 q 502 669 438 693 q 610 604 567 646 l 565 522 q 365 601 474 601 q 248 574 289 601 q 207 496 207 547 q 247 428 207 450 q 367 382 286 406 q 482 342 438 361 q 558 285 526 322 q 589 186 589 247 q 514 43 589 96 q 315 -10 439 -10 m 604 1046 l 419 765 l 340 765 l 199 1046 l 300 1046 l 385 847 l 499 1046 l 604 1046 m 485 1238 l 475 1111 l 338 1111 l 349 1238 l 485 1238 z "},"ş":{"ha":667,"x_min":42,"x_max":610,"o":"m 207 496 q 247 428 207 450 q 367 382 286 406 q 482 342 438 361 q 558 285 526 322 q 589 186 589 247 q 519 46 589 99 q 331 -10 449 -7 l 321 -58 q 347 -57 329 -57 q 423 -81 394 -57 q 451 -150 451 -106 q 408 -235 451 -203 q 289 -268 365 -268 q 224 -261 258 -268 q 164 -242 189 -254 l 183 -182 q 289 -201 238 -201 q 347 -189 326 -201 q 368 -153 368 -176 q 356 -125 368 -135 q 319 -115 343 -115 q 258 -128 290 -115 l 233 -106 l 253 -6 q 42 78 132 10 l 86 161 q 197 100 142 119 q 318 81 253 81 q 481 181 481 81 q 442 249 481 226 q 319 296 403 271 q 203 336 247 317 q 128 392 160 356 q 97 490 97 429 q 171 638 97 582 q 365 693 244 693 q 502 669 438 693 q 610 604 567 646 l 565 522 q 365 601 474 601 q 248 574 289 601 q 207 496 207 547 z "},"ŝ":{"ha":667,"x_min":42,"x_max":610,"o":"m 315 -10 q 167 13 238 -10 q 42 78 96 36 l 86 161 q 197 100 142 119 q 318 81 253 81 q 481 181 481 81 q 442 249 481 226 q 319 296 403 271 q 203 336 247 317 q 128 392 160 356 q 97 490 97 429 q 171 638 97 582 q 365 693 244 693 q 502 669 438 693 q 610 604 567 646 l 565 522 q 365 601 474 601 q 248 574 289 601 q 207 496 207 547 q 247 428 207 450 q 367 382 286 406 q 482 342 438 361 q 558 285 526 322 q 589 186 589 247 q 514 43 589 96 q 315 -10 439 -10 m 176 765 l 363 1046 l 442 1046 l 582 765 l 482 765 l 396 964 l 282 765 l 176 765 z "},"ș":{"ha":667,"x_min":42,"x_max":610,"o":"m 315 -10 q 167 13 238 -10 q 42 78 96 36 l 86 161 q 197 100 142 119 q 318 81 253 81 q 481 181 481 81 q 442 249 481 226 q 319 296 403 271 q 203 336 247 317 q 128 392 160 356 q 97 490 97 429 q 171 638 97 582 q 365 693 244 693 q 502 669 438 693 q 610 604 567 646 l 565 522 q 365 601 474 601 q 248 574 289 601 q 207 496 207 547 q 247 428 207 450 q 367 382 286 406 q 482 342 438 361 q 558 285 526 322 q 589 186 589 247 q 514 43 589 96 q 315 -10 439 -10 m 365 -100 l 360 -181 q 336 -278 356 -235 q 275 -360 317 -322 l 226 -322 q 267 -271 254 -296 q 285 -215 281 -246 l 221 -215 l 229 -100 l 365 -100 z "},"ṡ":{"ha":667,"x_min":42,"x_max":610,"o":"m 315 -10 q 167 13 238 -10 q 42 78 96 36 l 86 161 q 197 100 142 119 q 318 81 253 81 q 481 181 481 81 q 442 249 481 226 q 319 296 403 271 q 203 336 247 317 q 128 392 160 356 q 97 490 97 429 q 171 638 97 582 q 365 693 244 693 q 502 669 438 693 q 610 604 567 646 l 565 522 q 365 601 474 601 q 248 574 289 601 q 207 496 207 547 q 247 428 207 450 q 367 382 286 406 q 482 342 438 361 q 558 285 526 322 q 589 186 589 247 q 514 43 589 96 q 315 -10 439 -10 m 464 969 l 454 843 l 317 843 l 328 969 l 464 969 z "},"ṣ":{"ha":667,"x_min":42,"x_max":610,"o":"m 315 -10 q 167 13 238 -10 q 42 78 96 36 l 86 161 q 197 100 142 119 q 318 81 253 81 q 481 181 481 81 q 442 249 481 226 q 319 296 403 271 q 203 336 247 317 q 128 392 160 356 q 97 490 97 429 q 171 638 97 582 q 365 693 244 693 q 502 669 438 693 q 610 604 567 646 l 565 522 q 365 601 474 601 q 248 574 289 601 q 207 496 207 547 q 247 428 207 450 q 367 382 286 406 q 482 342 438 361 q 558 285 526 322 q 589 186 589 247 q 514 43 589 96 q 315 -10 439 -10 m 360 -131 l 349 -253 l 221 -253 l 232 -131 l 360 -131 z "},"ṩ":{"ha":667,"x_min":42,"x_max":610,"o":"m 315 -10 q 167 13 238 -10 q 42 78 96 36 l 86 161 q 197 100 142 119 q 318 81 253 81 q 481 181 481 81 q 442 249 481 226 q 319 296 403 271 q 203 336 247 317 q 128 392 160 356 q 97 490 97 429 q 171 638 97 582 q 365 693 244 693 q 502 669 438 693 q 610 604 567 646 l 565 522 q 365 601 474 601 q 248 574 289 601 q 207 496 207 547 q 247 428 207 450 q 367 382 286 406 q 482 342 438 361 q 558 285 526 322 q 589 186 589 247 q 514 43 589 96 q 315 -10 439 -10 m 360 -131 l 349 -253 l 221 -253 l 232 -131 l 360 -131 m 464 969 l 454 843 l 317 843 l 328 969 l 464 969 z "},"ß":{"ha":856,"x_min":78,"x_max":803,"o":"m 131 669 q 231 906 143 826 q 460 986 319 986 q 628 942 565 986 q 690 818 690 897 q 658 714 690 757 q 567 619 626 671 q 500 556 521 581 q 479 500 479 531 q 512 438 479 460 q 614 390 544 417 q 713 348 675 368 q 776 292 750 328 q 803 200 803 256 q 731 49 803 107 q 539 -10 660 -10 q 402 13 469 -10 q 285 78 335 36 l 329 161 q 438 101 385 121 q 547 82 490 82 q 653 111 614 82 q 693 192 693 140 q 659 256 693 233 q 554 304 625 278 q 457 345 494 326 q 394 397 419 364 q 368 483 368 431 q 398 578 368 539 q 485 665 428 618 q 558 738 535 708 q 582 807 582 768 q 549 872 582 849 q 457 896 517 896 q 244 672 261 896 l 190 0 l 78 0 l 131 669 z "},"t":{"ha":472,"x_min":31,"x_max":474,"o":"m 247 244 q 246 218 246 235 q 382 81 246 81 q 443 86 415 81 l 431 -3 q 365 -10 401 -10 q 193 47 253 -10 q 133 208 133 104 q 135 239 133 228 l 163 588 l 31 588 l 36 676 l 168 676 l 185 882 l 297 882 l 281 676 l 474 676 l 467 588 l 274 588 l 247 244 z "},"ŧ":{"ha":486,"x_min":38,"x_max":481,"o":"m 281 588 l 269 432 l 433 432 l 426 346 l 263 346 l 254 244 q 253 218 253 235 q 389 81 253 81 q 450 86 422 81 l 438 -3 q 372 -10 408 -10 q 200 47 260 -10 q 140 208 140 104 q 142 239 140 228 l 150 346 l 44 346 l 51 432 l 157 432 l 169 588 l 38 588 l 43 676 l 175 676 l 192 882 l 304 882 l 288 676 l 481 676 l 474 588 l 281 588 z "},"ť":{"ha":472,"x_min":31,"x_max":483,"o":"m 422 742 l 360 742 l 381 979 l 483 979 l 422 742 m 281 676 l 474 676 l 467 588 l 274 588 l 247 244 q 246 218 246 235 q 382 81 246 81 q 443 86 415 81 l 431 -3 q 365 -10 401 -10 q 193 47 253 -10 q 133 208 133 104 q 135 239 133 228 l 163 588 l 31 588 l 36 676 l 168 676 l 185 882 l 297 882 l 281 676 z "},"ţ":{"ha":472,"x_min":31,"x_max":474,"o":"m 247 244 q 246 218 246 235 q 382 81 246 81 q 443 86 415 81 l 431 -3 q 365 -10 401 -10 q 303 -4 329 -10 l 293 -58 q 319 -57 301 -57 q 395 -81 367 -57 q 424 -150 424 -106 q 381 -235 424 -203 q 261 -268 338 -268 q 196 -261 231 -268 q 136 -242 161 -254 l 156 -182 q 261 -201 210 -201 q 319 -189 299 -201 q 340 -153 340 -176 q 328 -125 340 -135 q 292 -115 315 -115 q 231 -128 263 -115 l 206 -106 l 231 21 q 133 208 133 74 q 135 239 133 228 l 163 588 l 31 588 l 36 676 l 168 676 l 185 882 l 297 882 l 281 676 l 474 676 l 467 588 l 274 588 l 247 244 z "},"ț":{"ha":472,"x_min":31,"x_max":474,"o":"m 247 244 q 246 218 246 235 q 382 81 246 81 q 443 86 415 81 l 431 -3 q 365 -10 401 -10 q 193 47 253 -10 q 133 208 133 104 q 135 239 133 228 l 163 588 l 31 588 l 36 676 l 168 676 l 185 882 l 297 882 l 281 676 l 474 676 l 467 588 l 274 588 l 247 244 m 338 -100 l 332 -181 q 308 -278 328 -235 q 247 -360 289 -322 l 199 -322 q 240 -271 226 -296 q 257 -215 253 -246 l 193 -215 l 201 -100 l 338 -100 z "},"ẗ":{"ha":472,"x_min":31,"x_max":474,"o":"m 247 244 q 246 218 246 235 q 382 81 246 81 q 443 86 415 81 l 431 -3 q 365 -10 401 -10 q 193 47 253 -10 q 133 208 133 104 q 135 239 133 228 l 163 588 l 31 588 l 36 676 l 168 676 l 185 882 l 297 882 l 281 676 l 474 676 l 467 588 l 274 588 l 247 244 m 206 1132 l 196 1013 l 72 1013 l 82 1132 l 206 1132 m 443 1132 l 433 1013 l 310 1013 l 319 1132 l 443 1132 z "},"ṭ":{"ha":472,"x_min":31,"x_max":474,"o":"m 247 244 q 246 218 246 235 q 382 81 246 81 q 443 86 415 81 l 431 -3 q 365 -10 401 -10 q 193 47 253 -10 q 133 208 133 104 q 135 239 133 228 l 163 588 l 31 588 l 36 676 l 168 676 l 185 882 l 297 882 l 281 676 l 474 676 l 467 588 l 274 588 l 247 244 m 332 -131 l 321 -253 l 193 -253 l 204 -131 l 332 -131 z "},"ṯ":{"ha":472,"x_min":31,"x_max":474,"o":"m 247 244 q 246 218 246 235 q 382 81 246 81 q 443 86 415 81 l 431 -3 q 365 -10 401 -10 q 193 47 253 -10 q 133 208 133 104 q 135 239 133 228 l 163 588 l 31 588 l 36 676 l 168 676 l 185 882 l 297 882 l 281 676 l 474 676 l 467 588 l 274 588 l 247 244 m 58 -151 l 474 -151 l 467 -233 l 51 -233 l 58 -151 z "},"u":{"ha":779,"x_min":93,"x_max":700,"o":"m 700 676 l 647 0 l 538 0 l 546 110 q 453 22 511 53 q 322 -10 394 -10 q 151 49 210 -10 q 93 222 93 108 q 94 260 93 247 l 128 676 l 240 676 l 207 267 q 206 238 206 257 q 351 85 206 85 q 496 140 442 85 q 557 294 550 196 l 588 676 l 700 676 z "},"ú":{"ha":779,"x_min":93,"x_max":700,"o":"m 700 676 l 647 0 l 538 0 l 546 110 q 453 22 511 53 q 322 -10 394 -10 q 151 49 210 -10 q 93 222 93 108 q 94 260 93 247 l 128 676 l 240 676 l 207 267 q 206 238 206 257 q 351 85 206 85 q 496 140 442 85 q 557 294 550 196 l 588 676 l 700 676 m 383 765 l 540 1046 l 675 1046 l 461 765 l 383 765 z "},"ŭ":{"ha":779,"x_min":93,"x_max":700,"o":"m 700 676 l 647 0 l 538 0 l 546 110 q 453 22 511 53 q 322 -10 394 -10 q 151 49 210 -10 q 93 222 93 108 q 94 260 93 247 l 128 676 l 240 676 l 207 267 q 206 238 206 257 q 351 85 206 85 q 496 140 442 85 q 557 294 550 196 l 588 676 l 700 676 m 428 807 q 293 851 351 807 q 211 983 235 894 l 283 1013 q 433 890 331 890 q 524 918 483 890 q 600 1013 565 946 l 668 983 q 569 850 633 893 q 428 807 506 807 z "},"û":{"ha":779,"x_min":93,"x_max":700,"o":"m 700 676 l 647 0 l 538 0 l 546 110 q 453 22 511 53 q 322 -10 394 -10 q 151 49 210 -10 q 93 222 93 108 q 94 260 93 247 l 128 676 l 240 676 l 207 267 q 206 238 206 257 q 351 85 206 85 q 496 140 442 85 q 557 294 550 196 l 588 676 l 700 676 m 219 765 l 406 1046 l 485 1046 l 625 765 l 525 765 l 439 964 l 325 765 l 219 765 z "},"ȕ":{"ha":779,"x_min":93,"x_max":700,"o":"m 700 676 l 647 0 l 538 0 l 546 110 q 453 22 511 53 q 322 -10 394 -10 q 151 49 210 -10 q 93 222 93 108 q 94 260 93 247 l 128 676 l 240 676 l 207 267 q 206 238 206 257 q 351 85 206 85 q 496 140 442 85 q 557 294 550 196 l 588 676 l 700 676 m 225 1046 l 325 1046 l 367 765 l 310 765 l 225 1046 m 393 1046 l 492 1046 l 535 765 l 478 765 l 393 1046 z "},"ü":{"ha":779,"x_min":93,"x_max":700,"o":"m 700 676 l 647 0 l 538 0 l 546 110 q 453 22 511 53 q 322 -10 394 -10 q 151 49 210 -10 q 93 222 93 108 q 94 260 93 247 l 128 676 l 240 676 l 207 267 q 206 238 206 257 q 351 85 206 85 q 496 140 442 85 q 557 294 550 196 l 588 676 l 700 676 m 382 965 l 372 847 l 249 847 l 258 965 l 382 965 m 619 965 l 610 847 l 486 847 l 496 965 l 619 965 z "},"ụ":{"ha":779,"x_min":93,"x_max":700,"o":"m 700 676 l 647 0 l 538 0 l 546 110 q 453 22 511 53 q 322 -10 394 -10 q 151 49 210 -10 q 93 222 93 108 q 94 260 93 247 l 128 676 l 240 676 l 207 267 q 206 238 206 257 q 351 85 206 85 q 496 140 442 85 q 557 294 550 196 l 588 676 l 700 676 m 417 -131 l 406 -253 l 278 -253 l 289 -131 l 417 -131 z "},"ù":{"ha":779,"x_min":93,"x_max":700,"o":"m 700 676 l 647 0 l 538 0 l 546 110 q 453 22 511 53 q 322 -10 394 -10 q 151 49 210 -10 q 93 222 93 108 q 94 260 93 247 l 128 676 l 240 676 l 207 267 q 206 238 206 257 q 351 85 206 85 q 496 140 442 85 q 557 294 550 196 l 588 676 l 700 676 m 221 1046 l 342 1046 l 461 765 l 383 765 l 221 1046 z "},"ủ":{"ha":779,"x_min":93,"x_max":700,"o":"m 700 676 l 647 0 l 538 0 l 546 110 q 453 22 511 53 q 322 -10 394 -10 q 151 49 210 -10 q 93 222 93 108 q 94 260 93 247 l 128 676 l 240 676 l 207 267 q 206 238 206 257 q 351 85 206 85 q 496 140 442 85 q 557 294 550 196 l 588 676 l 700 676 m 463 765 l 389 765 l 392 803 q 410 853 394 832 q 453 896 426 874 q 483 926 474 915 q 492 950 492 938 q 478 974 492 965 q 438 982 464 982 q 354 967 408 982 l 339 1031 q 454 1051 393 1051 q 548 1026 513 1051 q 583 961 583 1001 q 567 908 583 929 q 519 864 550 888 q 478 826 490 842 q 464 789 465 811 l 463 765 z "},"ư":{"ha":799,"x_min":93,"x_max":876,"o":"m 876 856 l 875 819 q 822 681 869 735 q 696 615 774 628 l 647 0 l 538 0 l 546 110 q 453 22 511 53 q 322 -10 394 -10 q 151 49 210 -10 q 93 222 93 108 q 94 260 93 247 l 128 676 l 240 676 l 207 267 q 206 238 206 257 q 351 85 206 85 q 496 140 442 85 q 557 294 550 196 l 588 676 l 621 676 q 733 714 696 676 q 775 835 769 751 l 776 856 l 876 856 z "},"ứ":{"ha":799,"x_min":93,"x_max":876,"o":"m 876 856 l 875 819 q 822 681 869 735 q 696 615 774 628 l 647 0 l 538 0 l 546 110 q 453 22 511 53 q 322 -10 394 -10 q 151 49 210 -10 q 93 222 93 108 q 94 260 93 247 l 128 676 l 240 676 l 207 267 q 206 238 206 257 q 351 85 206 85 q 496 140 442 85 q 557 294 550 196 l 588 676 l 621 676 q 733 714 696 676 q 775 835 769 751 l 776 856 l 876 856 m 383 765 l 540 1046 l 675 1046 l 461 765 l 383 765 z "},"ự":{"ha":799,"x_min":93,"x_max":876,"o":"m 876 856 l 875 819 q 822 681 869 735 q 696 615 774 628 l 647 0 l 538 0 l 546 110 q 453 22 511 53 q 322 -10 394 -10 q 151 49 210 -10 q 93 222 93 108 q 94 260 93 247 l 128 676 l 240 676 l 207 267 q 206 238 206 257 q 351 85 206 85 q 496 140 442 85 q 557 294 550 196 l 588 676 l 621 676 q 733 714 696 676 q 775 835 769 751 l 776 856 l 876 856 m 417 -131 l 406 -253 l 278 -253 l 289 -131 l 417 -131 z "},"ừ":{"ha":799,"x_min":93,"x_max":876,"o":"m 876 856 l 875 819 q 822 681 869 735 q 696 615 774 628 l 647 0 l 538 0 l 546 110 q 453 22 511 53 q 322 -10 394 -10 q 151 49 210 -10 q 93 222 93 108 q 94 260 93 247 l 128 676 l 240 676 l 207 267 q 206 238 206 257 q 351 85 206 85 q 496 140 442 85 q 557 294 550 196 l 588 676 l 621 676 q 733 714 696 676 q 775 835 769 751 l 776 856 l 876 856 m 221 1046 l 342 1046 l 461 765 l 383 765 l 221 1046 z "},"ử":{"ha":799,"x_min":93,"x_max":876,"o":"m 876 856 l 875 819 q 822 681 869 735 q 696 615 774 628 l 647 0 l 538 0 l 546 110 q 453 22 511 53 q 322 -10 394 -10 q 151 49 210 -10 q 93 222 93 108 q 94 260 93 247 l 128 676 l 240 676 l 207 267 q 206 238 206 257 q 351 85 206 85 q 496 140 442 85 q 557 294 550 196 l 588 676 l 621 676 q 733 714 696 676 q 775 835 769 751 l 776 856 l 876 856 m 463 765 l 389 765 l 392 803 q 410 853 394 832 q 453 896 426 874 q 483 926 474 915 q 492 950 492 938 q 478 974 492 965 q 438 982 464 982 q 354 967 408 982 l 339 1031 q 454 1051 393 1051 q 548 1026 513 1051 q 583 961 583 1001 q 567 908 583 929 q 519 864 550 888 q 478 826 490 842 q 464 789 465 811 l 463 765 z "},"ữ":{"ha":799,"x_min":93,"x_max":876,"o":"m 876 856 l 875 819 q 822 681 869 735 q 696 615 774 628 l 647 0 l 538 0 l 546 110 q 453 22 511 53 q 322 -10 394 -10 q 151 49 210 -10 q 93 222 93 108 q 94 260 93 247 l 128 676 l 240 676 l 207 267 q 206 238 206 257 q 351 85 206 85 q 496 140 442 85 q 557 294 550 196 l 588 676 l 621 676 q 733 714 696 676 q 775 835 769 751 l 776 856 l 876 856 m 204 831 q 245 949 208 908 q 339 989 282 989 q 390 978 367 989 q 453 944 414 968 q 497 919 479 928 q 532 910 515 910 q 581 929 563 910 q 601 985 599 949 l 664 985 q 623 867 660 907 q 529 826 586 826 q 474 838 500 826 q 415 872 449 850 q 369 898 386 890 q 338 906 353 906 q 288 885 307 906 q 265 831 268 865 l 204 831 z "},"ű":{"ha":779,"x_min":93,"x_max":700,"o":"m 700 676 l 647 0 l 538 0 l 546 110 q 453 22 511 53 q 322 -10 394 -10 q 151 49 210 -10 q 93 222 93 108 q 94 260 93 247 l 128 676 l 240 676 l 207 267 q 206 238 206 257 q 351 85 206 85 q 496 140 442 85 q 557 294 550 196 l 588 676 l 700 676 m 310 765 l 394 1046 l 500 1046 l 367 765 l 310 765 m 478 765 l 561 1046 l 668 1046 l 535 765 l 478 765 z "},"ȗ":{"ha":779,"x_min":93,"x_max":700,"o":"m 700 676 l 647 0 l 538 0 l 546 110 q 453 22 511 53 q 322 -10 394 -10 q 151 49 210 -10 q 93 222 93 108 q 94 260 93 247 l 128 676 l 240 676 l 207 267 q 206 238 206 257 q 351 85 206 85 q 496 140 442 85 q 557 294 550 196 l 588 676 l 700 676 m 439 1011 q 574 967 515 1011 q 657 836 633 924 l 585 806 q 433 928 538 928 q 342 900 383 928 q 268 806 301 872 l 199 835 q 298 968 235 925 q 439 1011 361 1011 z "}}}
